<svg width="107" height="107" viewBox="0 0 107 107" fill="none" xmlns="http://www.w3.org/2000/svg">
<path fill-rule="evenodd" clip-rule="evenodd" d="M0 79C0 90.2357 0 95.8536 2.69649 99.8891C3.86382 101.636 5.36383 103.136 7.11088 104.304C11.1465 107 16.7643 107 28 107L80.0678 107C91.1127 107 96.6352 107 101.069 103.342C102.687 102.007 104.632 99.4551 105.489 97.5405C107.839 92.2944 106.655 87.9955 104.288 79.3976C94.165 42.6347 64.3642 12.8344 27.6021 2.71208C19.0044 0.344726 14.7055 -0.838952 9.4595 1.51081C7.54493 2.36837 4.99315 4.3125 3.6581 5.93072C0 10.3647 0 15.8871 0 26.9319L0 79Z" fill="#3E7AFC"/>
</svg>
