<svg width="114" height="122" viewBox="0 0 114 122" fill="none" xmlns="http://www.w3.org/2000/svg">
<path fill-rule="evenodd" clip-rule="evenodd" d="M93 122C101.427 122 105.64 122 108.667 119.978C109.977 119.102 111.102 117.977 111.978 116.667C114 113.64 114 109.427 114 101L114 53.9492C114 45.6288 114 41.4686 111.325 38.1658C110.334 36.9432 108.495 35.5067 107.069 34.8421C103.217 33.0466 99.8959 33.8758 93.2544 35.534C61.3732 43.4942 35.4936 69.3742 27.5339 101.255C25.8756 107.896 25.0465 111.217 26.842 115.069C27.5066 116.495 28.9431 118.335 30.1657 119.325C33.4685 122 37.6286 122 45.9489 122L93 122Z" fill="#FFDAB3"/>
<path d="M84.7591 38.6498C86.6213 37.8908 88.6694 37.4707 90.8193 37.4707C99.4051 37.4707 106.365 44.1676 106.365 52.4281C106.365 60.6889 99.4051 67.3855 90.8193 67.3855C82.2335 67.3855 75.2734 60.6889 75.2734 52.4281C75.2734 48.8175 76.603 45.5059 78.8169 42.9213" stroke="#0F0F0F" stroke-width="1.31295" stroke-linecap="round"/>
<path d="M52.2183 25.1758C49.9786 32.3164 40.7301 48.0174 21.6534 53.6962" stroke="#0F0F0F" stroke-width="1.31295" stroke-linecap="round"/>
<path d="M21.6533 55.5967C21.0823 63.2445 20.2831 79.6046 21.6533 83.8636" stroke="#0F0F0F" stroke-width="1.31295" stroke-linecap="round"/>
<path d="M20.8623 85.6383C17.3929 87.6243 10.27 88.8833 9.53222 78.0328C8.79444 67.1823 10.1029 53.4841 10.8497 47.9912" stroke="#0F0F0F" stroke-width="1.31295" stroke-linecap="round"/>
<path d="M8.60986 50.9075C5.05273 46.978 -5.48692 32.9078 6.76542 12.373" stroke="#0F0F0F" stroke-width="1.31295" stroke-linecap="round"/>
<path d="M9.79578 8.95182C15.9878 2.86689 19.2814 0.56283 23.4972 3.88163C25.0782 5.12614 25.4734 7.93765 23.102 11.4868" stroke="#0F0F0F" stroke-width="1.31295" stroke-linecap="round"/>
<path d="M56.8292 10.7247C57.3562 7.42899 56.288 2.25531 51.6912 1.09122C49.188 0.457326 45.7627 3.27788 44.8405 4.89414" stroke="#0F0F0F" stroke-width="1.31295" stroke-linecap="round"/>
<path d="M40.229 19.4736C38.1688 27.9085 30.6393 43.8033 16.9858 40.0297C16.9365 40.016 16.888 39.9977 16.8429 39.9744C13.3077 38.146 9.7577 31.1756 16.2514 21.5018" stroke="#0F0F0F" stroke-width="1.31295" stroke-linecap="round"/>
<path d="M39.439 21.6265L23.6296 12.373C21.1148 10.5375 14.8851 7.3348 9.85851 9.00983C9.73098 9.05238 9.61873 9.12927 9.53152 9.22847L7.14113 11.9463C6.91796 12.2002 6.89134 12.5646 7.08053 12.843C10.3402 17.6424 12.7053 18.8011 17.174 21.6265" stroke="#0F0F0F" stroke-width="1.31295" stroke-linecap="round"/>
<path d="M50.5054 29.8652L76.064 47.1044" stroke="#0F0F0F" stroke-width="1.31295" stroke-linecap="round"/>
<path d="M35.8818 29.9919C26.5279 26.0622 26.9231 26.0622 17.0422 21.626" stroke="#0F0F0F" stroke-width="1.31295" stroke-linecap="round"/>
<path d="M75.1416 49.894L47.3434 35.6973" stroke="#0F0F0F" stroke-width="1.31295" stroke-linecap="round"/>
<path d="M32.6396 24.4243L21.7048 18.4668" stroke="#0F0F0F" stroke-width="1.31295" stroke-linecap="round"/>
<path d="M52.6133 22.894C53.5618 24.4151 55.2482 25.4292 56.5656 26.3166L102.808 60.9215C104.521 61.9356 105.048 61.1748 105.311 60.6677C105.786 59.7538 104.521 58.776 104.257 58.5131C87.7454 42.0346 60.9923 15.5166 58.1466 12.373" stroke="#0F0F0F" stroke-width="1.31295" stroke-linecap="round"/>
<path d="M44.8403 4.89453C43.3448 6.7831 41.6402 9.54265 40.308 12.1727C40.2559 12.2757 40.2292 12.3886 40.2292 12.5031V19.7252" stroke="#0F0F0F" stroke-width="1.31295" stroke-linecap="round"/>
<path d="M80.0679 39.5082L58.33 20.1143" stroke="#0F0F0F" stroke-width="1.31295" stroke-linecap="round"/>
<path d="M58.937 38.6118L51.9545 33.9219" stroke="#0F0F0F" stroke-width="1.31295" stroke-linecap="round"/>
<path d="M52.6133 23.0204C51.6031 20.4853 47.7914 14.7813 40.6245 12.2461" stroke="#0F0F0F" stroke-width="1.31295" stroke-linecap="round"/>
<path d="M58.0146 12.245C54.8965 10.3014 47.475 6.79449 42.7322 8.31556" stroke="#0F0F0F" stroke-width="1.31295" stroke-linecap="round"/>
<path d="M98.3287 78.542C92.435 78.542 87.6573 77.407 87.6573 76.0068C87.6573 74.6069 92.435 73.4717 98.3287 73.4717C104.222 73.4717 109 74.6069 109 76.0068C109 77.407 104.222 78.542 98.3287 78.542Z" fill="#0F0F0F"/>
<path d="M104.785 45.8385C102.238 44.0209 97.4069 41.6536 91.4784 45.8385" stroke="#0F0F0F" stroke-width="1.31295" stroke-linecap="round"/>
<path d="M88.1841 50.1475C86.2518 52.26 82.9669 58.4121 85.2857 66.119" stroke="#0F0F0F" stroke-width="1.31295" stroke-linecap="round"/>
</svg>
