<svg width="105" height="128" viewBox="0 0 105 128" fill="none" xmlns="http://www.w3.org/2000/svg">
<path d="M10 80.499C10 54.2655 31.2665 32.999 57.5 32.999V32.999C83.7335 32.999 105 54.2655 105 80.499V80.499C105 106.733 83.7335 127.999 57.5 127.999L20.7801 127.999C14.8264 127.999 9.99999 123.173 10 117.219L10 80.499Z" fill="#DFC3DD"/>
<path d="M57.5854 78.4941L43.0553 82.2442C42.7571 82.3211 42.6635 82.6909 42.8902 82.8957L53.9669 92.8988C54.0619 92.9845 54.1938 93.0188 54.3197 92.9901L69.6063 89.5092C69.8998 89.4425 70.0087 89.0887 69.8018 88.874L60.3757 79.0793" stroke="#0F0F0F" stroke-width="0.973523" stroke-linecap="round"/>
<path d="M70.2118 89.2085L72.9658 74.6671C72.9878 74.551 72.9539 74.4316 72.8739 74.3432L63.4491 63.9354C63.238 63.7024 62.8464 63.8015 62.7765 64.1055L59.7324 77.3624" stroke="#0F0F0F" stroke-width="0.973523" stroke-linecap="round"/>
<path d="M42.561 82.7026L47.0955 68.5855C47.1341 68.4654 47.2305 68.3714 47.3534 68.3347L63.244 63.5684" stroke="#0F0F0F" stroke-width="0.973523" stroke-linecap="round"/>
<path d="M57.1111 65.9367L53.7859 79.3053C53.756 79.4254 53.7871 79.5521 53.8694 79.6459L57.9392 84.2759C58.132 84.4952 58.0161 84.8369 57.7277 84.8995L53.9599 85.7159C53.823 85.7456 53.6801 85.701 53.5861 85.5988L49.3385 80.9894C49.2491 80.8924 49.2163 80.7573 49.2519 80.6313L53.1757 66.6655C53.2116 66.5381 53.3121 66.4376 53.4415 66.4001L56.6216 65.479C56.9102 65.3954 57.1826 65.6501 57.1111 65.9367Z" fill="#0F0F0F"/>
<path d="M52.9023 72.7533L54.4633 46.9219" stroke="#0F0F0F" stroke-width="0.973523" stroke-linecap="round"/>
<path d="M52.903 72.7539L47.0493 49.4102" stroke="#0F0F0F" stroke-width="0.973523" stroke-linecap="round"/>
<path d="M52.5123 72.7533L39.6343 56.6807" stroke="#0F0F0F" stroke-width="0.973523" stroke-linecap="round"/>
<path d="M52.7074 72.753L30.0732 58.7852" stroke="#0F0F0F" stroke-width="0.973523" stroke-linecap="round"/>
<path d="M31.8296 54.3828L44.9028 66.2459" stroke="#0F0F0F" stroke-width="0.973523" stroke-linecap="round"/>
<path d="M49.5854 48.0703L51.5366 62.9952" stroke="#0F0F0F" stroke-width="0.973523" stroke-linecap="round"/>
<path d="M48.6095 64.9085L42.7559 50.749" stroke="#0F0F0F" stroke-width="0.973523" stroke-linecap="round"/>
<path d="M20.4575 32.9169C6.45158 28.8398 1.51245 36.9447 1.00494 41.5478C0.669717 56.5318 17.4906 58.2307 25.4789 56.7957C25.6192 56.7706 25.7578 56.8213 25.8489 56.9288L27.5736 58.9641C27.7784 59.2062 28.1771 59.1157 28.2528 58.8101L28.6276 57.3016C28.6495 57.2137 28.7022 57.1362 28.7767 57.0831L29.5363 56.5389C29.813 56.3408 29.7137 55.9145 29.3769 55.8535L27.5453 55.5223C27.2052 55.4609 27.0846 54.9963 27.3135 54.7422C28.1394 53.8243 29.027 52.1656 28.6614 49.932" stroke="#0F0F0F" stroke-width="0.973523" stroke-linecap="round"/>
<path d="M36.8681 55.3718V54.3459C36.8681 54.0958 36.632 53.8947 36.3785 53.8688C32.4101 53.4636 14.7563 42.9293 22.0739 28.5175C26.8929 19.0273 38.559 23.3184 41.4332 27.5273C46.2851 33.7888 42.4976 49.4728 38.8638 52.9309C38.7042 53.0826 38.679 53.3308 38.823 53.4969L39.7764 54.5967C40.006 54.8615 39.7816 55.3091 39.4289 55.342C38.7124 55.4088 37.9543 55.5863 37.3951 55.7484C37.1362 55.8234 36.8681 55.6366 36.8681 55.3718Z" stroke="#0F0F0F" stroke-width="0.973523" stroke-linecap="round"/>
<path d="M43.8787 45.4403C44.2567 45.6548 44.9271 45.9301 45.4786 46.0497C45.7545 46.1094 45.9818 46.4014 45.8998 46.6664L45.4996 47.9617C45.3991 48.2865 45.7476 48.5693 46.0542 48.4118L46.7945 48.0314C46.9227 47.9656 47.0774 47.9746 47.1966 48.0551L47.612 48.3351C47.8934 48.5249 48.27 48.2935 48.2189 47.9625L47.9878 46.4664C47.9564 46.2632 48.0928 46.073 48.2969 46.0265C52.701 45.0235 61.6708 40.0332 60.8499 27.5539C60.5939 23.662 55.6995 16.6731 45.2296 18.528C43.2877 18.872 38.9816 20.8134 37.293 23.9932" stroke="#0F0F0F" stroke-width="0.973523" stroke-linecap="round"/>
<path d="M53.6831 43.6465V45.1575C53.6831 45.401 53.9122 45.5828 54.1551 45.5315L54.6538 45.4267C54.7834 45.3993 54.9182 45.4385 55.0119 45.5304L55.3738 45.8859C55.6197 46.1274 56.0402 45.9567 56.0402 45.6155V43.9991C56.0402 43.7999 56.1949 43.6346 56.3967 43.612C60.6363 43.136 69.1932 39.932 72.2041 30.417C75.3023 20.6273 68.6123 17.1875 64.88 16.6914" stroke="#0F0F0F" stroke-width="0.973523" stroke-linecap="round"/>
<path d="M59.5551 23.7696C62.8652 21.2889 69.7348 12.9911 62.7803 5.24661C55.6515 -2.69185 39.1871 3.42727 43.1754 18.7254" stroke="#0F0F0F" stroke-width="0.973523" stroke-linecap="round"/>
<path d="M44.3172 7.64166C38.6224 6.4514 27.5033 7.85757 28.5859 23.0042" stroke="#0F0F0F" stroke-width="0.973523" stroke-linecap="round"/>
<path d="M39.439 7.2196C36.4043 3.0188 26.6269 -2.89537 18.7863 4.56646C11.3395 11.6537 17.8599 22.0607 23.4234 25.8745" stroke="#0F0F0F" stroke-width="0.973523" stroke-linecap="round"/>
<path d="M15.4395 14.0533C8.66811 13.3895 -2.9618 20.509 6.04409 33.7188" stroke="#0F0F0F" stroke-width="0.973523" stroke-linecap="round"/>
</svg>
