<svg width="40" height="61" fill="none" xmlns="http://www.w3.org/2000/svg"><path d="M20.434 57.686c0 1.278 1.052 2.315 2.348 2.315h14.87C38.949 60 40 58.964 40 57.686V43.03c0-1.278-1.051-2.314-2.348-2.314h-14.87c-1.296 0-2.348 1.036-2.348 2.314v14.657Z" fill="#1AB7A8"/><path fill-rule="evenodd" clip-rule="evenodd" d="M14.134 20.573c2.18 0 3.269 0 4.051.515.34.223.63.51.856.844.523.772.523 1.845.523 3.993v8.424c0 2.102 0 3.153-.725 4.006a3.667 3.667 0 0 1-1.147.842c-1.036.441-1.847.203-3.47-.275C7.927 37.071 2.827 32.044.95 25.84c-.484-1.6-.726-2.4-.279-3.42.162-.369.543-.874.855-1.131.865-.715 1.931-.715 4.063-.715h8.546Z" fill="#FFB71B"/><path d="M9.783 40.715C4.38 40.715 0 45.033 0 50.358c0 5.326 4.38 9.643 9.783 9.643 5.402 0 9.782-4.317 9.782-9.643v-7.454c0-1.209-.994-2.189-2.22-2.189H9.783Z" fill="#CF3642"/><path d="M30.216 19.286c5.403 0 9.783-4.318 9.783-9.643C40 4.317 35.62 0 30.216 0c-5.402 0-9.782 4.317-9.782 9.643v7.454c0 1.209.994 2.189 2.22 2.189h7.563Z" fill="#FF9203"/><path d="M20.87 30.215c0 5.326 4.283 9.643 9.566 9.643 5.282 0 9.565-4.317 9.565-9.643 0-5.325-4.283-9.643-9.565-9.643H23.04a2.18 2.18 0 0 0-2.17 2.189v7.454Z" fill="#3E7AFC"/></svg>