<svg width="248" height="52" viewBox="0 0 264 52" fill="none" xmlns="http://www.w3.org/2000/svg">
<g filter="url(#filter0_dd_2284_51646)">
<rect x="8" y="4" width="248" height="36" rx="16" fill="white"/>
<path d="M37.7933 20H36.5604C36.4875 19.6454 36.3598 19.3338 36.1776 19.0653C35.9986 18.7969 35.7798 18.5715 35.5213 18.3892C35.2661 18.2036 34.9827 18.0644 34.6712 17.9716C34.3596 17.8788 34.0348 17.8324 33.6967 17.8324C33.0803 17.8324 32.5218 17.9882 32.0213 18.2997C31.5241 18.6113 31.1281 19.0703 30.8331 19.6768C30.5414 20.2834 30.3956 21.0275 30.3956 21.9091C30.3956 22.7907 30.5414 23.5348 30.8331 24.1413C31.1281 24.7479 31.5241 25.2069 32.0213 25.5185C32.5218 25.83 33.0803 25.9858 33.6967 25.9858C34.0348 25.9858 34.3596 25.9394 34.6712 25.8466C34.9827 25.7538 35.2661 25.6162 35.5213 25.4339C35.7798 25.2483 35.9986 25.0213 36.1776 24.7528C36.3598 24.4811 36.4875 24.1695 36.5604 23.8182H37.7933C37.7005 24.3385 37.5315 24.8042 37.2862 25.2152C37.041 25.6262 36.736 25.9759 36.3714 26.2642C36.0069 26.5492 35.5975 26.7663 35.1435 26.9155C34.6927 27.0646 34.2105 27.1392 33.6967 27.1392C32.8284 27.1392 32.0561 26.9271 31.38 26.5028C30.7038 26.0786 30.1719 25.4754 29.7841 24.6932C29.3963 23.911 29.2024 22.983 29.2024 21.9091C29.2024 20.8352 29.3963 19.9072 29.7841 19.125C30.1719 18.3428 30.7038 17.7396 31.38 17.3153C32.0561 16.8911 32.8284 16.679 33.6967 16.679C34.2105 16.679 34.6927 16.7536 35.1435 16.9027C35.5975 17.0518 36.0069 17.2706 36.3714 17.5589C36.736 17.844 37.041 18.192 37.2862 18.603C37.5315 19.0107 37.7005 19.4763 37.7933 20ZM42.7289 27.1591C42.0395 27.1591 41.4346 26.995 40.9142 26.6669C40.3972 26.3388 39.9928 25.8797 39.7012 25.2898C39.4128 24.6998 39.2686 24.0104 39.2686 23.2216C39.2686 22.4261 39.4128 21.7318 39.7012 21.1385C39.9928 20.5452 40.3972 20.0845 40.9142 19.7564C41.4346 19.4283 42.0395 19.2642 42.7289 19.2642C43.4183 19.2642 44.0215 19.4283 44.5385 19.7564C45.0589 20.0845 45.4632 20.5452 45.7516 21.1385C46.0433 21.7318 46.1891 22.4261 46.1891 23.2216C46.1891 24.0104 46.0433 24.6998 45.7516 25.2898C45.4632 25.8797 45.0589 26.3388 44.5385 26.6669C44.0215 26.995 43.4183 27.1591 42.7289 27.1591ZM42.7289 26.1051C43.2525 26.1051 43.6834 25.9709 44.0215 25.7024C44.3596 25.4339 44.6098 25.081 44.7722 24.6435C44.9346 24.206 45.0158 23.732 45.0158 23.2216C45.0158 22.7112 44.9346 22.2356 44.7722 21.7947C44.6098 21.3539 44.3596 20.9976 44.0215 20.7259C43.6834 20.4541 43.2525 20.3182 42.7289 20.3182C42.2052 20.3182 41.7743 20.4541 41.4363 20.7259C41.0982 20.9976 40.848 21.3539 40.6855 21.7947C40.5231 22.2356 40.4419 22.7112 40.4419 23.2216C40.4419 23.732 40.5231 24.206 40.6855 24.6435C40.848 25.081 41.0982 25.4339 41.4363 25.7024C41.7743 25.9709 42.2052 26.1051 42.7289 26.1051ZM47.9801 27V19.3636H49.1136V20.5568H49.2131C49.3722 20.1491 49.629 19.8326 49.9837 19.6072C50.3383 19.3786 50.7642 19.2642 51.2614 19.2642C51.7652 19.2642 52.1844 19.3786 52.5192 19.6072C52.8572 19.8326 53.1207 20.1491 53.3097 20.5568H53.3892C53.5848 20.1624 53.8781 19.8492 54.2692 19.6172C54.6603 19.3819 55.1293 19.2642 55.6761 19.2642C56.3589 19.2642 56.9174 19.478 57.3516 19.9055C57.7857 20.3298 58.0028 20.991 58.0028 21.8892V27H56.8295V21.8892C56.8295 21.3258 56.6754 20.9231 56.3672 20.6811C56.0589 20.4392 55.696 20.3182 55.2784 20.3182C54.7415 20.3182 54.3255 20.4806 54.0305 20.8054C53.7356 21.1269 53.5881 21.5346 53.5881 22.0284V27H52.3949V21.7699C52.3949 21.3357 52.254 20.986 51.9723 20.7209C51.6906 20.4524 51.3277 20.3182 50.8835 20.3182C50.5786 20.3182 50.2936 20.3994 50.0284 20.5618C49.7666 20.7242 49.5545 20.9496 49.392 21.2379C49.233 21.523 49.1534 21.8527 49.1534 22.2273V27H47.9801ZM60.1481 29.8636V19.3636H61.2816V20.5767H61.4208C61.507 20.4441 61.6263 20.2751 61.7788 20.0696C61.9345 19.8608 62.1566 19.6752 62.445 19.5128C62.7366 19.3471 63.131 19.2642 63.6282 19.2642C64.2712 19.2642 64.838 19.425 65.3285 19.7464C65.819 20.0679 66.2018 20.5237 66.4769 21.1136C66.752 21.7036 66.8896 22.3996 66.8896 23.2017C66.8896 24.0104 66.752 24.7114 66.4769 25.3047C66.2018 25.8946 65.8207 26.352 65.3335 26.6768C64.8462 26.9983 64.2844 27.1591 63.6481 27.1591C63.1576 27.1591 62.7648 27.0779 62.4698 26.9155C62.1748 26.7498 61.9478 26.5625 61.7887 26.3537C61.6296 26.1416 61.507 25.9659 61.4208 25.8267H61.3214V29.8636H60.1481ZM61.3015 23.1818C61.3015 23.7585 61.386 24.2673 61.555 24.7081C61.7241 25.1456 61.971 25.4886 62.2958 25.7372C62.6206 25.9825 63.0183 26.1051 63.489 26.1051C63.9795 26.1051 64.3888 25.9759 64.717 25.7173C65.0484 25.4555 65.297 25.1042 65.4627 24.6634C65.6317 24.2192 65.7163 23.7254 65.7163 23.1818C65.7163 22.6449 65.6334 22.161 65.4677 21.7301C65.3053 21.2959 65.0584 20.9529 64.7269 20.701C64.3988 20.4458 63.9862 20.3182 63.489 20.3182C63.0117 20.3182 62.6107 20.4392 62.2859 20.6811C61.9611 20.9197 61.7158 21.2545 61.5501 21.6854C61.3844 22.1129 61.3015 22.6117 61.3015 23.1818ZM69.8526 16.8182V27H68.6793V16.8182H69.8526ZM75.2033 27.1591C74.4675 27.1591 73.8328 26.9967 73.2992 26.6719C72.7689 26.3438 72.3596 25.8864 72.0712 25.2997C71.7862 24.7098 71.6436 24.0237 71.6436 23.2415C71.6436 22.4593 71.7862 21.7699 72.0712 21.1733C72.3596 20.5734 72.7606 20.1061 73.2743 19.7713C73.7914 19.4332 74.3946 19.2642 75.084 19.2642C75.4817 19.2642 75.8745 19.3305 76.2623 19.4631C76.65 19.5956 77.003 19.8111 77.3212 20.1094C77.6394 20.4044 77.8929 20.7955 78.0819 21.2827C78.2708 21.7699 78.3652 22.3698 78.3652 23.0824V23.5795H72.4789V22.5653H77.1721C77.1721 22.1345 77.0859 21.75 76.9135 21.4119C76.7445 21.0739 76.5025 20.8071 76.1877 20.6115C75.8761 20.416 75.5082 20.3182 75.084 20.3182C74.6167 20.3182 74.2123 20.4342 73.8709 20.6662C73.5328 20.8949 73.2727 21.1932 73.0904 21.5611C72.9081 21.929 72.8169 22.3234 72.8169 22.7443V23.4205C72.8169 23.9972 72.9164 24.486 73.1152 24.8871C73.3174 25.2848 73.5975 25.5881 73.9554 25.7969C74.3134 26.0024 74.7293 26.1051 75.2033 26.1051C75.5115 26.1051 75.79 26.062 76.0385 25.9759C76.2904 25.8864 76.5075 25.7538 76.6898 25.5781C76.8721 25.3991 77.013 25.1771 77.1124 24.9119L78.2459 25.2301C78.1266 25.6146 77.9261 25.9527 77.6444 26.2443C77.3626 26.5327 77.0146 26.758 76.6003 26.9205C76.186 27.0795 75.7203 27.1591 75.2033 27.1591ZM80.82 19.3636L82.6495 22.4858L84.479 19.3636H85.8313L83.3654 23.1818L85.8313 27H84.479L82.6495 24.0369L80.82 27H79.4677L81.8938 23.1818L79.4677 19.3636H80.82ZM87.5055 27V19.3636H88.6788V27H87.5055ZM88.1021 18.0909C87.8734 18.0909 87.6762 18.013 87.5105 17.8572C87.3481 17.7015 87.2669 17.5142 87.2669 17.2955C87.2669 17.0767 87.3481 16.8894 87.5105 16.7337C87.6762 16.5779 87.8734 16.5 88.1021 16.5C88.3308 16.5 88.5263 16.5779 88.6887 16.7337C88.8545 16.8894 88.9373 17.0767 88.9373 17.2955C88.9373 17.5142 88.8545 17.7015 88.6887 17.8572C88.5263 18.013 88.3308 18.0909 88.1021 18.0909ZM94.1488 19.3636V20.358H90.1914V19.3636H94.1488ZM91.3448 17.5341H92.5181V24.8125C92.5181 25.1439 92.5662 25.3925 92.6623 25.5582C92.7617 25.7206 92.8877 25.83 93.0401 25.8864C93.1959 25.9394 93.36 25.9659 93.5323 25.9659C93.6616 25.9659 93.7676 25.9593 93.8505 25.946C93.9334 25.9295 93.9996 25.9162 94.0494 25.9062L94.288 26.9602C94.2085 26.9901 94.0974 27.0199 93.9549 27.0497C93.8124 27.0829 93.6317 27.0994 93.413 27.0994C93.0816 27.0994 92.7567 27.0282 92.4386 26.8857C92.1237 26.7431 91.8619 26.526 91.6531 26.2344C91.4476 25.9427 91.3448 25.5748 91.3448 25.1307V17.5341ZM96.6694 29.8636C96.4705 29.8636 96.2932 29.8471 96.1374 29.8139C95.9817 29.7841 95.8739 29.7543 95.8143 29.7244L96.1126 28.6903C96.3976 28.7633 96.6495 28.7898 96.8683 28.7699C97.087 28.75 97.2809 28.6522 97.4499 28.4766C97.6223 28.3042 97.7797 28.0241 97.9222 27.6364L98.141 27.0398L95.3171 19.3636H96.5898L98.6978 25.4489H98.7773L100.885 19.3636H102.158L98.9165 28.1136C98.7707 28.508 98.5901 28.8345 98.3746 29.093C98.1592 29.3549 97.909 29.5488 97.6239 29.6747C97.3422 29.8007 97.024 29.8636 96.6694 29.8636Z" fill="#757575"/>
<path d="M148 15.333L150.06 19.5063L154.666 20.1797L151.333 23.4263L152.12 28.013L148 25.8463L143.88 28.013L144.666 23.4263L141.333 20.1797L145.94 19.5063L148 15.333Z" fill="#FFA70A" stroke="#FFA70A" stroke-linecap="round" stroke-linejoin="round"/>
<path d="M168 15.333L170.06 19.5063L174.666 20.1797L171.333 23.4263L172.12 28.013L168 25.8463L163.88 28.013L164.666 23.4263L161.333 20.1797L165.94 19.5063L168 15.333Z" stroke="#FFA70A" stroke-linecap="round" stroke-linejoin="round"/>
<path d="M188 15.333L190.06 19.5063L194.666 20.1797L191.333 23.4263L192.12 28.013L188 25.8463L183.88 28.013L184.666 23.4263L181.333 20.1797L185.94 19.5063L188 15.333Z" stroke="#FFA70A" stroke-linecap="round" stroke-linejoin="round"/>
<path d="M208 15.333L210.06 19.5063L214.666 20.1797L211.333 23.4263L212.12 28.013L208 25.8463L203.88 28.013L204.666 23.4263L201.333 20.1797L205.94 19.5063L208 15.333Z" stroke="#FFA70A" stroke-linecap="round" stroke-linejoin="round"/>
<path d="M228 15.333L230.06 19.5063L234.666 20.1797L231.333 23.4263L232.12 28.013L228 25.8463L223.88 28.013L224.666 23.4263L221.333 20.1797L225.94 19.5063L228 15.333Z" stroke="#FFA70A" stroke-linecap="round" stroke-linejoin="round"/>
</g>
<defs>
<filter id="filter0_dd_2284_51646" x="0" y="0" width="264" height="52" filterUnits="userSpaceOnUse" color-interpolation-filters="sRGB">
<feFlood flood-opacity="0" result="BackgroundImageFix"/>
<feColorMatrix in="SourceAlpha" type="matrix" values="0 0 0 0 0 0 0 0 0 0 0 0 0 0 0 0 0 0 127 0" result="hardAlpha"/>
<feOffset dy="1"/>
<feGaussianBlur stdDeviation="0.5"/>
<feComposite in2="hardAlpha" operator="out"/>
<feColorMatrix type="matrix" values="0 0 0 0 0.94902 0 0 0 0 0.94902 0 0 0 0 0.94902 0 0 0 0.5 0"/>
<feBlend mode="normal" in2="BackgroundImageFix" result="effect1_dropShadow_2284_51646"/>
<feColorMatrix in="SourceAlpha" type="matrix" values="0 0 0 0 0 0 0 0 0 0 0 0 0 0 0 0 0 0 127 0" result="hardAlpha"/>
<feMorphology radius="5" operator="erode" in="SourceAlpha" result="effect2_dropShadow_2284_51646"/>
<feOffset dy="4"/>
<feGaussianBlur stdDeviation="6.5"/>
<feComposite in2="hardAlpha" operator="out"/>
<feColorMatrix type="matrix" values="0 0 0 0 0.741176 0 0 0 0 0.741176 0 0 0 0 0.741176 0 0 0 0.5 0"/>
<feBlend mode="normal" in2="effect1_dropShadow_2284_51646" result="effect2_dropShadow_2284_51646"/>
<feBlend mode="normal" in="SourceGraphic" in2="effect2_dropShadow_2284_51646" result="shape"/>
</filter>
</defs>
</svg>
