<svg width="139" height="69" viewBox="0 0 139 69" fill="none" xmlns="http://www.w3.org/2000/svg">
<g filter="url(#filter0_dd_2291_49912)">
<rect x="6.6748" y="3.40039" width="126.005" height="55.7561" rx="10.7191" fill="white"/>
</g>
<path d="M22.8624 21.8535H21.2913V16.7624H22.932C23.4259 16.7624 23.8485 16.8643 24.1998 17.0682C24.5511 17.2704 24.8204 17.5612 25.0077 17.9407C25.195 18.3186 25.2886 18.771 25.2886 19.298C25.2886 19.8283 25.1941 20.2849 25.0052 20.6677C24.8163 21.0489 24.5412 21.3423 24.1799 21.5478C23.8186 21.7516 23.3794 21.8535 22.8624 21.8535ZM21.9078 21.3066H22.8226C23.2436 21.3066 23.5924 21.2254 23.8692 21.063C24.1459 20.9006 24.3523 20.6694 24.4882 20.3694C24.624 20.0695 24.692 19.7123 24.692 19.298C24.692 18.887 24.6249 18.5332 24.4906 18.2366C24.3564 17.9382 24.1559 17.7095 23.8891 17.5504C23.6222 17.3897 23.29 17.3093 22.8922 17.3093H21.9078V21.3066ZM27.3668 21.943C27.1249 21.943 26.9053 21.8974 26.7081 21.8063C26.5108 21.7135 26.3542 21.5801 26.2382 21.4061C26.1222 21.2304 26.0642 21.0183 26.0642 20.7697C26.0642 20.5509 26.1073 20.3736 26.1935 20.2377C26.2797 20.1001 26.3948 19.9924 26.539 19.9145C26.6832 19.8366 26.8423 19.7786 27.0163 19.7405C27.192 19.7007 27.3685 19.6693 27.5458 19.646C27.7778 19.6162 27.9659 19.5938 28.1101 19.5789C28.2559 19.5624 28.362 19.535 28.4283 19.4969C28.4962 19.4588 28.5302 19.3925 28.5302 19.298V19.2781C28.5302 19.0329 28.4631 18.8423 28.3288 18.7064C28.1963 18.5705 27.9949 18.5025 27.7248 18.5025C27.4447 18.5025 27.2251 18.5639 27.066 18.6865C26.9069 18.8091 26.7951 18.9401 26.7304 19.0793L26.1736 18.8804C26.273 18.6484 26.4056 18.4677 26.5713 18.3385C26.7387 18.2075 26.921 18.1164 27.1182 18.065C27.3171 18.012 27.5127 17.9855 27.7049 17.9855C27.8275 17.9855 27.9684 18.0004 28.1275 18.0302C28.2882 18.0584 28.4432 18.1172 28.5924 18.2067C28.7432 18.2962 28.8683 18.4313 28.9677 18.6119C29.0672 18.7926 29.1169 19.0345 29.1169 19.3378V21.8535H28.5302V21.3365H28.5004C28.4606 21.4193 28.3943 21.508 28.3015 21.6024C28.2087 21.6969 28.0852 21.7773 27.9311 21.8436C27.777 21.9099 27.5889 21.943 27.3668 21.943ZM27.4563 21.416C27.6883 21.416 27.8839 21.3704 28.043 21.2793C28.2037 21.1881 28.3247 21.0705 28.4059 20.9263C28.4888 20.7821 28.5302 20.6305 28.5302 20.4714V19.9344C28.5053 19.9642 28.4507 19.9916 28.3661 20.0164C28.2833 20.0396 28.1872 20.0604 28.0778 20.0786C27.9701 20.0952 27.8648 20.1101 27.7621 20.1233C27.661 20.1349 27.5789 20.1449 27.516 20.1532C27.3635 20.1731 27.221 20.2054 27.0884 20.2501C26.9575 20.2932 26.8514 20.3587 26.7702 20.4465C26.6907 20.5327 26.6509 20.6503 26.6509 20.7995C26.6509 21.0033 26.7263 21.1575 26.8771 21.2619C27.0296 21.3646 27.2226 21.416 27.4563 21.416ZM31.8482 18.0352V18.5324H29.8695V18.0352H31.8482ZM30.4462 17.1204H31.0329V20.7597C31.0329 20.9255 31.0569 21.0497 31.105 21.1326C31.1547 21.2138 31.2177 21.2685 31.2939 21.2967C31.3718 21.3232 31.4538 21.3365 31.54 21.3365C31.6046 21.3365 31.6577 21.3331 31.6991 21.3265C31.7405 21.3182 31.7737 21.3116 31.7985 21.3066L31.9178 21.8336C31.8781 21.8485 31.8226 21.8635 31.7513 21.8784C31.68 21.8949 31.5897 21.9032 31.4803 21.9032C31.3146 21.9032 31.1522 21.8676 30.9931 21.7963C30.8357 21.7251 30.7047 21.6165 30.6003 21.4707C30.4976 21.3249 30.4462 21.1409 30.4462 20.9188V17.1204ZM34.2906 21.9331C33.9227 21.9331 33.6054 21.8519 33.3385 21.6894C33.0734 21.5254 32.8687 21.2967 32.7245 21.0033C32.582 20.7084 32.5107 20.3653 32.5107 19.9742C32.5107 19.5831 32.582 19.2384 32.7245 18.9401C32.8687 18.6401 33.0692 18.4064 33.3261 18.239C33.5846 18.07 33.8863 17.9855 34.231 17.9855C34.4298 17.9855 34.6262 18.0186 34.8201 18.0849C35.014 18.1512 35.1905 18.2589 35.3496 18.4081C35.5087 18.5556 35.6355 18.7511 35.73 18.9947C35.8244 19.2384 35.8717 19.5383 35.8717 19.8946V20.1432H32.9284V19.6361H35.275C35.275 19.4207 35.2319 19.2284 35.1458 19.0594C35.0613 18.8903 34.9403 18.7569 34.7828 18.6592C34.6271 18.5614 34.4431 18.5125 34.231 18.5125C33.9973 18.5125 33.7951 18.5705 33.6244 18.6865C33.4554 18.8008 33.3253 18.95 33.2341 19.134C33.143 19.3179 33.0974 19.5151 33.0974 19.7256V20.0637C33.0974 20.352 33.1471 20.5965 33.2466 20.797C33.3476 20.9959 33.4877 21.1475 33.6667 21.2519C33.8457 21.3547 34.0536 21.4061 34.2906 21.4061C34.4448 21.4061 34.584 21.3845 34.7083 21.3414C34.8342 21.2967 34.9428 21.2304 35.0339 21.1426C35.1251 21.0531 35.1955 20.942 35.2452 20.8094L35.812 20.9685C35.7523 21.1608 35.6521 21.3298 35.5112 21.4757C35.3703 21.6198 35.1963 21.7325 34.9892 21.8137C34.782 21.8933 34.5492 21.9331 34.2906 21.9331Z" fill="#292929"/>
<rect x="20.8936" y="28.5723" width="97.5661" height="21.0629" rx="5.03143" fill="white"/>
<path d="M30.2402 36.5124H30.8567V40.1518C30.8567 40.4766 30.7971 40.7525 30.6778 40.9796C30.5584 41.2066 30.3902 41.379 30.1731 41.4966C29.956 41.6143 29.7 41.6731 29.405 41.6731C29.1266 41.6731 28.8788 41.6226 28.6617 41.5215C28.4446 41.4187 28.2739 41.2729 28.1496 41.084C28.0253 40.895 27.9632 40.6705 27.9632 40.4103H28.5697C28.5697 40.5545 28.6054 40.6804 28.6766 40.7881C28.7495 40.8942 28.849 40.9771 28.9749 41.0367C29.1009 41.0964 29.2442 41.1262 29.405 41.1262C29.5823 41.1262 29.7331 41.0889 29.8574 41.0144C29.9817 40.9398 30.0762 40.8304 30.1408 40.6862C30.2071 40.5404 30.2402 40.3622 30.2402 40.1518V36.5124ZM33.1363 41.693C32.8943 41.693 32.6748 41.6474 32.4775 41.5563C32.2803 41.4635 32.1237 41.3301 32.0077 41.1561C31.8917 40.9804 31.8337 40.7683 31.8337 40.5197C31.8337 40.3009 31.8768 40.1236 31.963 39.9877C32.0491 39.8501 32.1643 39.7424 32.3085 39.6645C32.4527 39.5866 32.6118 39.5286 32.7858 39.4905C32.9615 39.4507 33.138 39.4193 33.3153 39.396C33.5473 39.3662 33.7354 39.3438 33.8796 39.3289C34.0254 39.3124 34.1315 39.285 34.1978 39.2469C34.2657 39.2088 34.2997 39.1425 34.2997 39.048V39.0281C34.2997 38.7829 34.2326 38.5923 34.0983 38.4564C33.9658 38.3205 33.7644 38.2525 33.4943 38.2525C33.2142 38.2525 32.9946 38.3139 32.8355 38.4365C32.6764 38.5591 32.5645 38.6901 32.4999 38.8293L31.9431 38.6304C32.0425 38.3984 32.1751 38.2177 32.3408 38.0885C32.5082 37.9575 32.6905 37.8664 32.8877 37.815C33.0866 37.762 33.2821 37.7355 33.4744 37.7355C33.597 37.7355 33.7379 37.7504 33.897 37.7802C34.0577 37.8084 34.2127 37.8672 34.3618 37.9567C34.5126 38.0462 34.6378 38.1813 34.7372 38.3619C34.8366 38.5426 34.8864 38.7845 34.8864 39.0878V41.6035H34.2997V41.0865H34.2699C34.2301 41.1693 34.1638 41.258 34.071 41.3524C33.9782 41.4469 33.8547 41.5273 33.7006 41.5936C33.5465 41.6599 33.3584 41.693 33.1363 41.693ZM33.2258 41.166C33.4578 41.166 33.6534 41.1204 33.8125 41.0293C33.9732 40.9381 34.0942 40.8205 34.1754 40.6763C34.2583 40.5321 34.2997 40.3805 34.2997 40.2214V39.6844C34.2748 39.7142 34.2201 39.7416 34.1356 39.7664C34.0528 39.7896 33.9566 39.8104 33.8473 39.8286C33.7395 39.8452 33.6343 39.8601 33.5316 39.8733C33.4305 39.8849 33.3484 39.8949 33.2855 39.9032C33.133 39.9231 32.9905 39.9554 32.8579 40.0001C32.727 40.0432 32.6209 40.1087 32.5397 40.1965C32.4601 40.2827 32.4204 40.4003 32.4204 40.5495C32.4204 40.7533 32.4958 40.9075 32.6466 41.0119C32.799 41.1146 32.9921 41.166 33.2258 41.166ZM36.5438 39.3066V41.6035H35.9572V37.7852H36.5239V38.3818H36.5737C36.6631 38.1879 36.799 38.0321 36.9813 37.9145C37.1636 37.7951 37.399 37.7355 37.6873 37.7355C37.9459 37.7355 38.1721 37.7885 38.366 37.8946C38.5599 37.999 38.7107 38.1581 38.8184 38.3719C38.9261 38.584 38.98 38.8525 38.98 39.1773V41.6035H38.3933V39.2171C38.3933 38.9171 38.3154 38.6834 38.1597 38.516C38.0039 38.347 37.7901 38.2625 37.5183 38.2625C37.331 38.2625 37.1636 38.3031 37.0161 38.3843C36.8703 38.4655 36.7551 38.584 36.6706 38.7398C36.5861 38.8956 36.5438 39.0845 36.5438 39.3066ZM42.0109 41.6035V41.1561L43.6914 39.3165C43.8886 39.1011 44.051 38.9138 44.1786 38.7547C44.3062 38.5939 44.4007 38.4431 44.462 38.3023C44.525 38.1597 44.5565 38.0106 44.5565 37.8548C44.5565 37.6758 44.5134 37.5209 44.4272 37.3899C44.3427 37.259 44.2267 37.1579 44.0792 37.0867C43.9317 37.0154 43.7659 36.9798 43.582 36.9798C43.3864 36.9798 43.2157 37.0204 43.0699 37.1016C42.9257 37.1811 42.8139 37.293 42.7343 37.4372C42.6564 37.5814 42.6175 37.7504 42.6175 37.9443H42.0308C42.0308 37.646 42.0996 37.3841 42.2371 37.1588C42.3747 36.9334 42.562 36.7577 42.7989 36.6317C43.0376 36.5058 43.3052 36.4428 43.6019 36.4428C43.9002 36.4428 44.1645 36.5058 44.3949 36.6317C44.6252 36.7577 44.8059 36.9276 44.9368 37.1413C45.0677 37.3551 45.1332 37.593 45.1332 37.8548C45.1332 38.0421 45.0992 38.2252 45.0313 38.4042C44.965 38.5815 44.849 38.7795 44.6832 38.9983C44.5192 39.2154 44.2913 39.4806 43.9996 39.7938L42.8561 41.0168V41.0566H45.2227V41.6035H42.0109ZM46.2493 41.6035V41.1561L47.9298 39.3165C48.127 39.1011 48.2894 38.9138 48.417 38.7547C48.5447 38.5939 48.6391 38.4431 48.7004 38.3023C48.7634 38.1597 48.7949 38.0106 48.7949 37.8548C48.7949 37.6758 48.7518 37.5209 48.6656 37.3899C48.5811 37.259 48.4651 37.1579 48.3176 37.0867C48.1701 37.0154 48.0044 36.9798 47.8204 36.9798C47.6249 36.9798 47.4542 37.0204 47.3083 37.1016C47.1642 37.1811 47.0523 37.293 46.9727 37.4372C46.8949 37.5814 46.8559 37.7504 46.8559 37.9443H46.2692C46.2692 37.646 46.338 37.3841 46.4756 37.1588C46.6131 36.9334 46.8004 36.7577 47.0374 36.6317C47.276 36.5058 47.5437 36.4428 47.8403 36.4428C48.1386 36.4428 48.403 36.5058 48.6333 36.6317C48.8637 36.7577 49.0443 36.9276 49.1752 37.1413C49.3062 37.3551 49.3716 37.593 49.3716 37.8548C49.3716 38.0421 49.3376 38.2252 49.2697 38.4042C49.2034 38.5815 49.0874 38.7795 48.9217 38.9983C48.7576 39.2154 48.5297 39.4806 48.2381 39.7938L47.0946 41.0168V41.0566H49.4611V41.6035H46.2493ZM51.3728 40.9075L51.333 41.1759C51.3048 41.3649 51.2617 41.5671 51.2037 41.7825C51.1474 41.9979 51.0885 42.201 51.0272 42.3915C50.9659 42.5821 50.9154 42.7338 50.8756 42.8465H50.4281C50.4497 42.7404 50.4778 42.6004 50.5126 42.4263C50.5474 42.2523 50.5822 42.0576 50.6171 41.8422C50.6535 41.6284 50.6833 41.4096 50.7065 41.1859L50.7364 40.9075H51.3728ZM54.4186 41.6035V41.1561L56.0991 39.3165C56.2963 39.1011 56.4587 38.9138 56.5863 38.7547C56.7139 38.5939 56.8084 38.4431 56.8697 38.3023C56.9327 38.1597 56.9641 38.0106 56.9641 37.8548C56.9641 37.6758 56.9211 37.5209 56.8349 37.3899C56.7504 37.259 56.6343 37.1579 56.4869 37.0867C56.3394 37.0154 56.1736 36.9798 55.9897 36.9798C55.7941 36.9798 55.6234 37.0204 55.4776 37.1016C55.3334 37.1811 55.2215 37.293 55.142 37.4372C55.0641 37.5814 55.0252 37.7504 55.0252 37.9443H54.4385C54.4385 37.646 54.5073 37.3841 54.6448 37.1588C54.7824 36.9334 54.9696 36.7577 55.2066 36.6317C55.4453 36.5058 55.7129 36.4428 56.0096 36.4428C56.3079 36.4428 56.5722 36.5058 56.8026 36.6317C57.0329 36.7577 57.2136 36.9276 57.3445 37.1413C57.4754 37.3551 57.5409 37.593 57.5409 37.8548C57.5409 38.0421 57.5069 38.2252 57.4389 38.4042C57.3727 38.5815 57.2566 38.7795 57.0909 38.9983C56.9269 39.2154 56.699 39.4806 56.4073 39.7938L55.2638 41.0168V41.0566H57.6304V41.6035H54.4186ZM60.3176 41.6731C59.9431 41.6731 59.624 41.5712 59.3605 41.3674C59.097 41.1619 58.8957 40.8644 58.7565 40.4749C58.6173 40.0838 58.5477 39.6115 58.5477 39.058C58.5477 38.5078 58.6173 38.0379 58.7565 37.6485C58.8973 37.2574 59.0995 36.9591 59.363 36.7536C59.6282 36.5464 59.9464 36.4428 60.3176 36.4428C60.6888 36.4428 61.0062 36.5464 61.2697 36.7536C61.5349 36.9591 61.737 37.2574 61.8763 37.6485C62.0171 38.0379 62.0876 38.5078 62.0876 39.058C62.0876 39.6115 62.0179 40.0838 61.8787 40.4749C61.7395 40.8644 61.5382 41.1619 61.2747 41.3674C61.0112 41.5712 60.6921 41.6731 60.3176 41.6731ZM60.3176 41.1262C60.6888 41.1262 60.9772 40.9472 61.1827 40.5893C61.3882 40.2313 61.4909 39.7209 61.4909 39.058C61.4909 38.6171 61.4437 38.2418 61.3492 37.9319C61.2564 37.622 61.1222 37.3858 60.9465 37.2234C60.7725 37.061 60.5629 36.9798 60.3176 36.9798C59.9497 36.9798 59.6622 37.1612 59.455 37.5242C59.2478 37.8855 59.1443 38.3967 59.1443 39.058C59.1443 39.4988 59.1907 39.8733 59.2835 40.1816C59.3763 40.4898 59.5097 40.7243 59.6837 40.8851C59.8594 41.0458 60.0707 41.1262 60.3176 41.1262ZM63.0322 41.6035V41.1561L64.7127 39.3165C64.9099 39.1011 65.0723 38.9138 65.1999 38.7547C65.3275 38.5939 65.422 38.4431 65.4833 38.3023C65.5463 38.1597 65.5777 38.0106 65.5777 37.8548C65.5777 37.6758 65.5347 37.5209 65.4485 37.3899C65.364 37.259 65.2479 37.1579 65.1004 37.0867C64.953 37.0154 64.7872 36.9798 64.6033 36.9798C64.4077 36.9798 64.237 37.0204 64.0912 37.1016C63.947 37.1811 63.8351 37.293 63.7556 37.4372C63.6777 37.5814 63.6387 37.7504 63.6387 37.9443H63.0521C63.0521 37.646 63.1209 37.3841 63.2584 37.1588C63.396 36.9334 63.5832 36.7577 63.8202 36.6317C64.0589 36.5058 64.3265 36.4428 64.6232 36.4428C64.9215 36.4428 65.1858 36.5058 65.4162 36.6317C65.6465 36.7577 65.8272 36.9276 65.9581 37.1413C66.089 37.3551 66.1545 37.593 66.1545 37.8548C66.1545 38.0421 66.1205 38.2252 66.0525 38.4042C65.9863 38.5815 65.8702 38.7795 65.7045 38.9983C65.5405 39.2154 65.3126 39.4806 65.0209 39.7938L63.8774 41.0168V41.0566H66.244V41.6035H63.0322ZM68.9909 41.6731C68.6627 41.6731 68.3702 41.6168 68.1133 41.5041C67.8581 41.3914 67.6551 41.2348 67.5043 41.0342C67.3551 40.8321 67.2739 40.5976 67.2607 40.3307H67.8871C67.9004 40.4948 67.9567 40.6365 68.0562 40.7558C68.1556 40.8735 68.2857 40.9646 68.4465 41.0293C68.6072 41.0939 68.7854 41.1262 68.9809 41.1262C69.1997 41.1262 69.3936 41.0881 69.5626 41.0119C69.7317 40.9356 69.8642 40.8296 69.9604 40.6937C70.0565 40.5578 70.1045 40.4003 70.1045 40.2214C70.1045 40.0341 70.0581 39.8692 69.9653 39.7267C69.8725 39.5825 69.7366 39.4698 69.5576 39.3886C69.3787 39.3074 69.1599 39.2668 68.9014 39.2668H68.4937V38.7199H68.9014C69.1036 38.7199 69.2809 38.6834 69.4333 38.6105C69.5875 38.5376 69.7076 38.4348 69.7938 38.3023C69.8816 38.1697 69.9256 38.0139 69.9256 37.8349C69.9256 37.6626 69.8874 37.5126 69.8112 37.385C69.735 37.2574 69.6272 37.1579 69.488 37.0867C69.3505 37.0154 69.1881 36.9798 69.0008 36.9798C68.8251 36.9798 68.6594 37.0121 68.5036 37.0767C68.3495 37.1397 68.2235 37.2317 68.1258 37.3526C68.028 37.472 67.975 37.6162 67.9667 37.7852H67.3701C67.38 37.5184 67.4604 37.2847 67.6112 37.0842C67.762 36.882 67.9592 36.7245 68.2028 36.6119C68.4481 36.4992 68.7174 36.4428 69.0107 36.4428C69.3256 36.4428 69.5958 36.5066 69.8211 36.6342C70.0465 36.7602 70.2197 36.9267 70.3407 37.1339C70.4617 37.341 70.5222 37.5648 70.5222 37.8051C70.5222 38.0918 70.4468 38.3362 70.2959 38.5384C70.1468 38.7406 69.9438 38.8806 69.6869 38.9585V38.9983C70.0084 39.0513 70.2595 39.1881 70.4401 39.4085C70.6208 39.6272 70.7111 39.8982 70.7111 40.2214C70.7111 40.4981 70.6357 40.7467 70.4849 40.9671C70.3357 41.1859 70.1319 41.3582 69.8733 41.4842C69.6148 41.6101 69.3207 41.6731 68.9909 41.6731Z" fill="#757575"/>
<path d="M109.49 35.6035H103.365C102.882 35.6035 102.49 35.9953 102.49 36.4785V42.6038C102.49 43.087 102.882 43.4788 103.365 43.4788H109.49C109.974 43.4788 110.366 43.087 110.366 42.6038V36.4785C110.366 35.9953 109.974 35.6035 109.49 35.6035Z" stroke="#757575" stroke-width="0.875032" stroke-linecap="round" stroke-linejoin="round"/>
<path d="M108.178 34.7285V36.4786" stroke="#757575" stroke-width="0.875032" stroke-linecap="round" stroke-linejoin="round"/>
<path d="M104.678 34.7285V36.4786" stroke="#757575" stroke-width="0.875032" stroke-linecap="round" stroke-linejoin="round"/>
<path d="M102.49 38.2285H110.366" stroke="#757575" stroke-width="0.875032" stroke-linecap="round" stroke-linejoin="round"/>
<rect x="20.8936" y="28.5723" width="97.5661" height="21.0629" rx="5.03143" stroke="#C2C2C2" stroke-width="0.437516"/>
<defs>
<filter id="filter0_dd_2291_49912" x="0.638654" y="0.382315" width="138.077" height="67.8282" filterUnits="userSpaceOnUse" color-interpolation-filters="sRGB">
<feFlood flood-opacity="0" result="BackgroundImageFix"/>
<feColorMatrix in="SourceAlpha" type="matrix" values="0 0 0 0 0 0 0 0 0 0 0 0 0 0 0 0 0 0 127 0" result="hardAlpha"/>
<feOffset dy="0.754519"/>
<feGaussianBlur stdDeviation="0.377259"/>
<feComposite in2="hardAlpha" operator="out"/>
<feColorMatrix type="matrix" values="0 0 0 0 0.94902 0 0 0 0 0.94902 0 0 0 0 0.94902 0 0 0 0.5 0"/>
<feBlend mode="normal" in2="BackgroundImageFix" result="effect1_dropShadow_2291_49912"/>
<feColorMatrix in="SourceAlpha" type="matrix" values="0 0 0 0 0 0 0 0 0 0 0 0 0 0 0 0 0 0 127 0" result="hardAlpha"/>
<feMorphology radius="3.77259" operator="erode" in="SourceAlpha" result="effect2_dropShadow_2291_49912"/>
<feOffset dy="3.01807"/>
<feGaussianBlur stdDeviation="4.90437"/>
<feComposite in2="hardAlpha" operator="out"/>
<feColorMatrix type="matrix" values="0 0 0 0 0.741176 0 0 0 0 0.741176 0 0 0 0 0.741176 0 0 0 0.5 0"/>
<feBlend mode="normal" in2="effect1_dropShadow_2291_49912" result="effect2_dropShadow_2291_49912"/>
<feBlend mode="normal" in="SourceGraphic" in2="effect2_dropShadow_2291_49912" result="shape"/>
</filter>
</defs>
</svg>
