<svg width="199" height="71" viewBox="0 0 199 71" fill="none" xmlns="http://www.w3.org/2000/svg">
<g filter="url(#filter0_dd_2291_49915)">
<rect x="7" y="4" width="185.612" height="57.5521" rx="12.6451" fill="white"/>
</g>
<path d="M22.0875 22.5508V17.2957H25.2591V17.8602H22.7239V19.6358H25.0948V20.2004H22.7239V21.9863H25.3001V22.5508H22.0875ZM29.5468 18.6095L28.0893 22.5508H27.4735L26.016 18.6095H26.6729L27.7609 21.7502H27.8019L28.8899 18.6095H29.5468ZM31.8574 22.6329C31.4777 22.6329 31.1501 22.5491 30.8747 22.3814C30.601 22.2121 30.3897 21.976 30.2409 21.6732C30.0938 21.3687 30.0202 21.0146 30.0202 20.6109C30.0202 20.2072 30.0938 19.8514 30.2409 19.5435C30.3897 19.2338 30.5967 18.9926 30.8618 18.8199C31.1287 18.6454 31.44 18.5581 31.7959 18.5581C32.0011 18.5581 32.2038 18.5924 32.404 18.6608C32.6041 18.7292 32.7863 18.8404 32.9505 18.9944C33.1148 19.1466 33.2456 19.3485 33.3431 19.5999C33.4406 19.8514 33.4894 20.161 33.4894 20.5288V20.7854H30.4513V20.2619H32.8736C32.8736 20.0396 32.8291 19.8411 32.7401 19.6666C32.6529 19.4922 32.528 19.3544 32.3655 19.2535C32.2047 19.1526 32.0148 19.1021 31.7959 19.1021C31.5547 19.1021 31.346 19.162 31.1698 19.2817C30.9953 19.3998 30.861 19.5537 30.7669 19.7436C30.6728 19.9335 30.6258 20.1371 30.6258 20.3543V20.7033C30.6258 21.0009 30.6771 21.2533 30.7797 21.4602C30.8841 21.6655 31.0286 21.822 31.2134 21.9298C31.3981 22.0359 31.6128 22.0889 31.8574 22.0889C32.0165 22.0889 32.1602 22.0667 32.2885 22.0222C32.4185 21.976 32.5306 21.9076 32.6247 21.8169C32.7187 21.7245 32.7915 21.6099 32.8428 21.4731L33.4278 21.6373C33.3662 21.8357 33.2627 22.0102 33.1173 22.1608C32.9719 22.3096 32.7923 22.4259 32.5785 22.5097C32.3646 22.5918 32.1243 22.6329 31.8574 22.6329ZM35.0161 20.1798V22.5508H34.4106V18.6095H34.9956V19.2253H35.0469C35.1393 19.0251 35.2796 18.8643 35.4678 18.7429C35.6559 18.6197 35.8988 18.5581 36.1965 18.5581C36.4633 18.5581 36.6968 18.6129 36.897 18.7224C37.0971 18.8301 37.2528 18.9944 37.364 19.215C37.4752 19.434 37.5308 19.7111 37.5308 20.0464V22.5508H36.9252V20.0875C36.9252 19.7778 36.8448 19.5366 36.684 19.3639C36.5232 19.1894 36.3025 19.1021 36.022 19.1021C35.8287 19.1021 35.6559 19.144 35.5037 19.2279C35.3531 19.3117 35.2342 19.434 35.147 19.5948C35.0598 19.7556 35.0161 19.9506 35.0161 20.1798ZM40.3514 18.6095V19.1227H38.3089V18.6095H40.3514ZM38.9042 17.6652H39.5098V21.4218C39.5098 21.5928 39.5346 21.7211 39.5842 21.8067C39.6355 21.8905 39.7005 21.9469 39.7792 21.976C39.8596 22.0034 39.9443 22.0171 40.0332 22.0171C40.1 22.0171 40.1547 22.0136 40.1975 22.0068C40.2402 21.9982 40.2744 21.9914 40.3001 21.9863L40.4233 22.5303C40.3822 22.5456 40.3249 22.561 40.2513 22.5764C40.1778 22.5935 40.0846 22.6021 39.9717 22.6021C39.8006 22.6021 39.633 22.5653 39.4687 22.4918C39.3062 22.4182 39.1711 22.3062 39.0633 22.1556C38.9572 22.0051 38.9042 21.8152 38.9042 21.586V17.6652ZM43.9001 20.1798V22.5508H43.2946V18.6095H43.8796V19.2253H43.9309C44.0233 19.0251 44.1636 18.8643 44.3518 18.7429C44.5399 18.6197 44.7828 18.5581 45.0805 18.5581C45.3474 18.5581 45.5809 18.6129 45.781 18.7224C45.9811 18.8301 46.1368 18.9944 46.248 19.215C46.3592 19.434 46.4148 19.7111 46.4148 20.0464V22.5508H45.8092V20.0875C45.8092 19.7778 45.7288 19.5366 45.568 19.3639C45.4072 19.1894 45.1866 19.1021 44.906 19.1021C44.7127 19.1021 44.5399 19.144 44.3877 19.2279C44.2371 19.3117 44.1183 19.434 44.031 19.5948C43.9438 19.7556 43.9001 19.9506 43.9001 20.1798ZM48.6812 22.6432C48.4314 22.6432 48.2048 22.5961 48.0012 22.502C47.7976 22.4062 47.636 22.2685 47.5162 22.0889C47.3965 21.9076 47.3366 21.6886 47.3366 21.432C47.3366 21.2062 47.3811 21.0232 47.47 20.8829C47.559 20.7409 47.6779 20.6297 47.8267 20.5493C47.9755 20.4689 48.1398 20.4091 48.3194 20.3697C48.5007 20.3287 48.6829 20.2962 48.8659 20.2722C49.1054 20.2414 49.2996 20.2183 49.4484 20.2029C49.5989 20.1858 49.7084 20.1576 49.7768 20.1182C49.847 20.0789 49.8821 20.0105 49.8821 19.913V19.8924C49.8821 19.6393 49.8128 19.4425 49.6742 19.3023C49.5374 19.162 49.3295 19.0919 49.0507 19.0919C48.7616 19.0919 48.5349 19.1552 48.3707 19.2817C48.2065 19.4083 48.091 19.5435 48.0243 19.6872L47.4495 19.4819C47.5522 19.2424 47.689 19.0559 47.8601 18.9225C48.0328 18.7874 48.221 18.6933 48.4246 18.6403C48.6299 18.5855 48.8317 18.5581 49.0302 18.5581C49.1567 18.5581 49.3021 18.5735 49.4664 18.6043C49.6323 18.6334 49.7922 18.6941 49.9462 18.7865C50.1019 18.8789 50.231 19.0183 50.3337 19.2048C50.4363 19.3912 50.4876 19.641 50.4876 19.954V22.5508H49.8821V22.0171H49.8513C49.8102 22.1026 49.7418 22.1941 49.646 22.2916C49.5502 22.3891 49.4227 22.4721 49.2637 22.5405C49.1046 22.6089 48.9104 22.6432 48.6812 22.6432ZM48.7736 22.0992C49.013 22.0992 49.2149 22.0521 49.3791 21.958C49.5451 21.864 49.6699 21.7425 49.7538 21.5937C49.8393 21.4449 49.8821 21.2883 49.8821 21.1241V20.5699C49.8564 20.6006 49.7999 20.6289 49.7127 20.6545C49.6272 20.6785 49.5279 20.6999 49.415 20.7187C49.3039 20.7358 49.1952 20.7512 49.0892 20.7649C48.9848 20.7768 48.9001 20.7871 48.8351 20.7957C48.6778 20.8162 48.5306 20.8495 48.3938 20.8957C48.2587 20.9402 48.1492 21.0078 48.0653 21.0984C47.9832 21.1874 47.9422 21.3089 47.9422 21.4628C47.9422 21.6732 48.02 21.8323 48.1757 21.9401C48.3331 22.0461 48.5324 22.0992 48.7736 22.0992ZM51.5929 22.5508V18.6095H52.1779V19.2253H52.2293C52.3114 19.0149 52.444 18.8515 52.627 18.7352C52.81 18.6172 53.0299 18.5581 53.2864 18.5581C53.5465 18.5581 53.7629 18.6172 53.9356 18.7352C54.1101 18.8515 54.2461 19.0149 54.3436 19.2253H54.3847C54.4856 19.0217 54.637 18.8601 54.8389 18.7403C55.0407 18.6189 55.2828 18.5581 55.565 18.5581C55.9174 18.5581 56.2057 18.6685 56.4298 18.8892C56.6538 19.1081 56.7659 19.4494 56.7659 19.913V22.5508H56.1603V19.913C56.1603 19.6222 56.0808 19.4143 55.9217 19.2894C55.7626 19.1646 55.5753 19.1021 55.3597 19.1021C55.0826 19.1021 54.8679 19.1859 54.7157 19.3536C54.5634 19.5195 54.4873 19.7299 54.4873 19.9848V22.5508H53.8715V19.8514C53.8715 19.6273 53.7988 19.4468 53.6534 19.31C53.508 19.1714 53.3207 19.1021 53.0914 19.1021C52.9341 19.1021 52.7869 19.144 52.6501 19.2279C52.5149 19.3117 52.4055 19.428 52.3216 19.5768C52.2395 19.7239 52.1985 19.8942 52.1985 20.0875V22.5508H51.5929ZM59.5256 22.6329C59.1458 22.6329 58.8182 22.5491 58.5428 22.3814C58.2691 22.2121 58.0579 21.976 57.909 21.6732C57.7619 21.3687 57.6884 21.0146 57.6884 20.6109C57.6884 20.2072 57.7619 19.8514 57.909 19.5435C58.0579 19.2338 58.2648 18.9926 58.53 18.8199C58.7969 18.6454 59.1082 18.5581 59.464 18.5581C59.6693 18.5581 59.872 18.5924 60.0721 18.6608C60.2723 18.7292 60.4545 18.8404 60.6187 18.9944C60.7829 19.1466 60.9138 19.3485 61.0113 19.5999C61.1088 19.8514 61.1575 20.161 61.1575 20.5288V20.7854H58.1194V20.2619H60.5417C60.5417 20.0396 60.4972 19.8411 60.4083 19.6666C60.321 19.4922 60.1962 19.3544 60.0336 19.2535C59.8728 19.1526 59.683 19.1021 59.464 19.1021C59.2228 19.1021 59.0141 19.162 58.8379 19.2817C58.6634 19.3998 58.5291 19.5537 58.4351 19.7436C58.341 19.9335 58.2939 20.1371 58.2939 20.3543V20.7033C58.2939 21.0009 58.3452 21.2533 58.4479 21.4602C58.5522 21.6655 58.6968 21.822 58.8815 21.9298C59.0663 22.0359 59.281 22.0889 59.5256 22.0889C59.6847 22.0889 59.8284 22.0667 59.9567 22.0222C60.0867 21.976 60.1987 21.9076 60.2928 21.8169C60.3869 21.7245 60.4596 21.6099 60.5109 21.4731L61.096 21.6373C61.0344 21.8357 60.9309 22.0102 60.7855 22.1608C60.6401 22.3096 60.4605 22.4259 60.2466 22.5097C60.0328 22.5918 59.7924 22.6329 59.5256 22.6329Z" fill="#292929"/>
<rect x="21.677" y="29.3899" width="156.257" height="21.387" rx="5.19351" fill="white"/>
<path d="M29.3131 42.583V37.3279H32.4846V37.8924H29.9495V39.6681H32.3204V40.2326H29.9495V42.0185H32.5257V42.583H29.3131ZM34.1551 40.2121V42.583H33.5495V38.6417H34.1346V39.2575H34.1859C34.2783 39.0574 34.4185 38.8966 34.6067 38.7751C34.7949 38.652 35.0378 38.5904 35.3354 38.5904C35.6023 38.5904 35.8358 38.6451 36.0359 38.7546C36.2361 38.8624 36.3918 39.0266 36.5029 39.2473C36.6141 39.4662 36.6697 39.7433 36.6697 40.0786V42.583H36.0642V40.1197C36.0642 39.8101 35.9838 39.5689 35.823 39.3961C35.6622 39.2216 35.4415 39.1344 35.1609 39.1344C34.9676 39.1344 34.7949 39.1763 34.6426 39.2601C34.4921 39.3439 34.3732 39.4662 34.286 39.627C34.1987 39.7878 34.1551 39.9828 34.1551 40.2121ZM39.4904 38.6417V39.1549H37.4479V38.6417H39.4904ZM38.0432 37.6974H38.6487V41.454C38.6487 41.625 38.6735 41.7533 38.7231 41.8389C38.7745 41.9227 38.8395 41.9792 38.9182 42.0082C38.9986 42.0356 39.0832 42.0493 39.1722 42.0493C39.2389 42.0493 39.2936 42.0459 39.3364 42.039C39.3792 42.0305 39.4134 42.0236 39.4391 42.0185L39.5622 42.5625C39.5212 42.5779 39.4639 42.5933 39.3903 42.6087C39.3167 42.6258 39.2235 42.6343 39.1106 42.6343C38.9395 42.6343 38.7719 42.5975 38.6077 42.524C38.4452 42.4504 38.31 42.3384 38.2023 42.1878C38.0962 42.0373 38.0432 41.8474 38.0432 41.6182V37.6974ZM42.0114 42.6651C41.6317 42.6651 41.3041 42.5813 41.0287 42.4137C40.755 42.2443 40.5437 42.0082 40.3949 41.7054C40.2478 41.401 40.1742 41.0469 40.1742 40.6431C40.1742 40.2394 40.2478 39.8836 40.3949 39.5757C40.5437 39.2661 40.7507 39.0249 41.0158 38.8521C41.2827 38.6776 41.594 38.5904 41.9498 38.5904C42.1551 38.5904 42.3578 38.6246 42.558 38.693C42.7581 38.7614 42.9403 38.8726 43.1045 39.0266C43.2688 39.1788 43.3996 39.3807 43.4971 39.6321C43.5946 39.8836 43.6434 40.1932 43.6434 40.561V40.8176H40.6053V40.2942H43.0276C43.0276 40.0718 42.9831 39.8733 42.8941 39.6989C42.8069 39.5244 42.682 39.3867 42.5195 39.2857C42.3587 39.1848 42.1688 39.1344 41.9498 39.1344C41.7086 39.1344 41.4999 39.1942 41.3238 39.314C41.1493 39.432 41.015 39.586 40.9209 39.7758C40.8268 39.9657 40.7798 40.1693 40.7798 40.3865V40.7355C40.7798 41.0332 40.8311 41.2855 40.9337 41.4925C41.0381 41.6978 41.1826 41.8543 41.3674 41.962C41.5521 42.0681 41.7668 42.1211 42.0114 42.1211C42.1705 42.1211 42.3142 42.0989 42.4425 42.0544C42.5725 42.0082 42.6846 41.9398 42.7787 41.8491C42.8727 41.7568 42.9454 41.6422 42.9968 41.5053L43.5818 41.6695C43.5202 41.868 43.4167 42.0424 43.2713 42.193C43.1259 42.3418 42.9463 42.4581 42.7325 42.542C42.5186 42.6241 42.2783 42.6651 42.0114 42.6651ZM44.5646 42.583V38.6417H45.1496V39.237H45.1907C45.2625 39.042 45.3925 38.8837 45.5807 38.7623C45.7689 38.6408 45.981 38.5801 46.217 38.5801C46.2615 38.5801 46.3171 38.581 46.3838 38.5827C46.4505 38.5844 46.501 38.5869 46.5352 38.5904V39.2062C46.5147 39.2011 46.4677 39.1934 46.3941 39.1831C46.3223 39.1711 46.2461 39.1651 46.1657 39.1651C45.9741 39.1651 45.8031 39.2053 45.6525 39.2857C45.5037 39.3644 45.3857 39.4739 45.2984 39.6142C45.2129 39.7527 45.1701 39.911 45.1701 40.0889V42.583H44.5646ZM50.4451 42.6754C50.1954 42.6754 49.9687 42.6283 49.7651 42.5343C49.5616 42.4385 49.3999 42.3008 49.2802 42.1211C49.1604 41.9398 49.1005 41.7208 49.1005 41.4642C49.1005 41.2384 49.145 41.0554 49.234 40.9151C49.3229 40.7731 49.4418 40.662 49.5906 40.5816C49.7395 40.5012 49.9037 40.4413 50.0833 40.4019C50.2646 40.3609 50.4468 40.3284 50.6299 40.3044C50.8694 40.2736 51.0635 40.2505 51.2123 40.2352C51.3629 40.218 51.4724 40.1898 51.5408 40.1505C51.6109 40.1111 51.646 40.0427 51.646 39.9452V39.9247C51.646 39.6715 51.5767 39.4748 51.4381 39.3345C51.3013 39.1942 51.0934 39.1241 50.8146 39.1241C50.5255 39.1241 50.2989 39.1874 50.1346 39.314C49.9704 39.4406 49.8549 39.5757 49.7882 39.7194L49.2135 39.5141C49.3161 39.2746 49.4529 39.0882 49.624 38.9547C49.7968 38.8196 49.985 38.7255 50.1885 38.6725C50.3938 38.6177 50.5957 38.5904 50.7941 38.5904C50.9207 38.5904 51.0661 38.6058 51.2303 38.6366C51.3962 38.6656 51.5562 38.7264 51.7101 38.8187C51.8658 38.9111 51.995 39.0505 52.0976 39.237C52.2002 39.4235 52.2516 39.6732 52.2516 39.9863V42.583H51.646V42.0493H51.6152C51.5741 42.1348 51.5057 42.2263 51.4099 42.3238C51.3141 42.4214 51.1867 42.5043 51.0276 42.5727C50.8685 42.6412 50.6743 42.6754 50.4451 42.6754ZM50.5375 42.1314C50.777 42.1314 50.9788 42.0844 51.1431 41.9903C51.309 41.8962 51.4339 41.7747 51.5177 41.6259C51.6032 41.4771 51.646 41.3206 51.646 41.1563V40.6021C51.6203 40.6329 51.5639 40.6611 51.4766 40.6868C51.3911 40.7107 51.2919 40.7321 51.179 40.7509C51.0678 40.768 50.9592 40.7834 50.8531 40.7971C50.7488 40.8091 50.6641 40.8193 50.5991 40.8279C50.4417 40.8484 50.2946 40.8818 50.1577 40.928C50.0226 40.9724 49.9131 41.04 49.8293 41.1307C49.7472 41.2196 49.7061 41.3411 49.7061 41.495C49.7061 41.7054 49.784 41.8645 49.9396 41.9723C50.097 42.0784 50.2963 42.1314 50.5375 42.1314ZM55.9947 40.2121V42.583H55.3891V38.6417H55.9741V39.2575H56.0254C56.1178 39.0574 56.2581 38.8966 56.4463 38.7751C56.6344 38.652 56.8773 38.5904 57.175 38.5904C57.4419 38.5904 57.6754 38.6451 57.8755 38.7546C58.0756 38.8624 58.2313 39.0266 58.3425 39.2473C58.4537 39.4662 58.5093 39.7433 58.5093 40.0786V42.583H57.9037V40.1197C57.9037 39.8101 57.8233 39.5689 57.6625 39.3961C57.5017 39.2216 57.2811 39.1344 57.0005 39.1344C56.8072 39.1344 56.6344 39.1763 56.4822 39.2601C56.3316 39.3439 56.2128 39.4662 56.1255 39.627C56.0383 39.7878 55.9947 39.9828 55.9947 40.2121ZM60.7757 42.6754C60.5259 42.6754 60.2993 42.6283 60.0957 42.5343C59.8921 42.4385 59.7305 42.3008 59.6107 42.1211C59.491 41.9398 59.4311 41.7208 59.4311 41.4642C59.4311 41.2384 59.4756 41.0554 59.5645 40.9151C59.6535 40.7731 59.7724 40.662 59.9212 40.5816C60.07 40.5012 60.2343 40.4413 60.4139 40.4019C60.5952 40.3609 60.7774 40.3284 60.9604 40.3044C61.1999 40.2736 61.3941 40.2505 61.5429 40.2352C61.6934 40.218 61.8029 40.1898 61.8714 40.1505C61.9415 40.1111 61.9766 40.0427 61.9766 39.9452V39.9247C61.9766 39.6715 61.9073 39.4748 61.7687 39.3345C61.6319 39.1942 61.424 39.1241 61.1452 39.1241C60.8561 39.1241 60.6294 39.1874 60.4652 39.314C60.301 39.4406 60.1855 39.5757 60.1188 39.7194L59.544 39.5141C59.6467 39.2746 59.7835 39.0882 59.9546 38.9547C60.1274 38.8196 60.3155 38.7255 60.5191 38.6725C60.7244 38.6177 60.9262 38.5904 61.1247 38.5904C61.2512 38.5904 61.3966 38.6058 61.5609 38.6366C61.7268 38.6656 61.8867 38.7264 62.0407 38.8187C62.1964 38.9111 62.3255 39.0505 62.4282 39.237C62.5308 39.4235 62.5821 39.6732 62.5821 39.9863V42.583H61.9766V42.0493H61.9458C61.9047 42.1348 61.8363 42.2263 61.7405 42.3238C61.6447 42.4214 61.5172 42.5043 61.3582 42.5727C61.1991 42.6412 61.0049 42.6754 60.7757 42.6754ZM60.8681 42.1314C61.1075 42.1314 61.3094 42.0844 61.4736 41.9903C61.6396 41.8962 61.7644 41.7747 61.8483 41.6259C61.9338 41.4771 61.9766 41.3206 61.9766 41.1563V40.6021C61.9509 40.6329 61.8944 40.6611 61.8072 40.6868C61.7217 40.7107 61.6225 40.7321 61.5096 40.7509C61.3984 40.768 61.2897 40.7834 61.1837 40.7971C61.0793 40.8091 60.9946 40.8193 60.9296 40.8279C60.7723 40.8484 60.6251 40.8818 60.4883 40.928C60.3532 40.9724 60.2437 41.04 60.1599 41.1307C60.0777 41.2196 60.0367 41.3411 60.0367 41.495C60.0367 41.7054 60.1145 41.8645 60.2702 41.9723C60.4276 42.0784 60.6269 42.1314 60.8681 42.1314ZM63.6874 42.583V38.6417H64.2725V39.2575H64.3238C64.4059 39.0471 64.5385 38.8837 64.7215 38.7674C64.9045 38.6494 65.1244 38.5904 65.3809 38.5904C65.641 38.5904 65.8574 38.6494 66.0301 38.7674C66.2046 38.8837 66.3406 39.0471 66.4381 39.2575H66.4792C66.5801 39.054 66.7315 38.8923 66.9334 38.7726C67.1352 38.6511 67.3773 38.5904 67.6595 38.5904C68.0119 38.5904 68.3002 38.7007 68.5243 38.9214C68.7483 39.1403 68.8604 39.4816 68.8604 39.9452V42.583H68.2548V39.9452C68.2548 39.6544 68.1753 39.4465 68.0162 39.3217C67.8571 39.1968 67.6698 39.1344 67.4542 39.1344C67.1771 39.1344 66.9624 39.2182 66.8102 39.3858C66.6579 39.5517 66.5818 39.7622 66.5818 40.017V42.583H65.966V39.8836C65.966 39.6595 65.8933 39.479 65.7479 39.3422C65.6025 39.2036 65.4152 39.1344 65.1859 39.1344C65.0286 39.1344 64.8814 39.1763 64.7446 39.2601C64.6094 39.3439 64.5 39.4602 64.4161 39.6091C64.334 39.7562 64.293 39.9264 64.293 40.1197V42.583H63.6874ZM71.6201 42.6651C71.2403 42.6651 70.9127 42.5813 70.6373 42.4137C70.3636 42.2443 70.1524 42.0082 70.0035 41.7054C69.8564 41.401 69.7829 41.0469 69.7829 40.6431C69.7829 40.2394 69.8564 39.8836 70.0035 39.5757C70.1524 39.2661 70.3593 39.0249 70.6245 38.8521C70.8914 38.6776 71.2027 38.5904 71.5585 38.5904C71.7638 38.5904 71.9665 38.6246 72.1666 38.693C72.3668 38.7614 72.549 38.8726 72.7132 39.0266C72.8774 39.1788 73.0083 39.3807 73.1058 39.6321C73.2033 39.8836 73.252 40.1932 73.252 40.561V40.8176H70.2139V40.2942H72.6362C72.6362 40.0718 72.5917 39.8733 72.5028 39.6989C72.4155 39.5244 72.2907 39.3867 72.1282 39.2857C71.9674 39.1848 71.7775 39.1344 71.5585 39.1344C71.3173 39.1344 71.1086 39.1942 70.9324 39.314C70.7579 39.432 70.6236 39.586 70.5296 39.7758C70.4355 39.9657 70.3884 40.1693 70.3884 40.3865V40.7355C70.3884 41.0332 70.4397 41.2855 70.5424 41.4925C70.6467 41.6978 70.7913 41.8543 70.976 41.962C71.1608 42.0681 71.3755 42.1211 71.6201 42.1211C71.7792 42.1211 71.9229 42.0989 72.0512 42.0544C72.1812 42.0082 72.2932 41.9398 72.3873 41.8491C72.4814 41.7568 72.5541 41.6422 72.6054 41.5053L73.1905 41.6695C73.1289 41.868 73.0254 42.0424 72.88 42.193C72.7346 42.3418 72.555 42.4581 72.3411 42.542C72.1273 42.6241 71.887 42.6651 71.6201 42.6651ZM77.6937 42.6651C77.3653 42.6651 77.0753 42.5822 76.8239 42.4162C76.5724 42.2486 76.3757 42.0125 76.2337 41.708C76.0917 41.4018 76.0207 41.04 76.0207 40.6226C76.0207 40.2086 76.0917 39.8494 76.2337 39.5449C76.3757 39.2404 76.5733 39.0052 76.8264 38.8393C77.0796 38.6733 77.3721 38.5904 77.704 38.5904C77.9606 38.5904 78.1633 38.6331 78.3121 38.7187C78.4627 38.8025 78.5773 38.8983 78.656 39.0061C78.7364 39.1121 78.7988 39.1994 78.8433 39.2678H78.8946V37.3279H79.5002V42.583H78.9151V41.9774H78.8433C78.7988 42.0493 78.7355 42.14 78.6534 42.2494C78.5713 42.3572 78.4541 42.4539 78.3019 42.5394C78.1496 42.6232 77.9469 42.6651 77.6937 42.6651ZM77.7758 42.1211C78.0187 42.1211 78.224 42.0578 78.3917 41.9313C78.5593 41.803 78.6868 41.6259 78.774 41.4001C78.8612 41.1726 78.9049 40.91 78.9049 40.6123C78.9049 40.3181 78.8621 40.0607 78.7766 39.84C78.691 39.6176 78.5644 39.4448 78.3968 39.3217C78.2292 39.1968 78.0222 39.1344 77.7758 39.1344C77.5192 39.1344 77.3054 39.2002 77.1343 39.3319C76.965 39.4619 76.8375 39.639 76.752 39.8631C76.6682 40.0855 76.6263 40.3352 76.6263 40.6123C76.6263 40.8929 76.6691 41.1478 76.7546 41.377C76.8418 41.6045 76.9701 41.7858 77.1395 41.921C77.3105 42.0544 77.5227 42.1211 77.7758 42.1211ZM82.3458 42.6651C81.9661 42.6651 81.6385 42.5813 81.3631 42.4137C81.0894 42.2443 80.8781 42.0082 80.7293 41.7054C80.5821 41.401 80.5086 41.0469 80.5086 40.6431C80.5086 40.2394 80.5821 39.8836 80.7293 39.5757C80.8781 39.2661 81.0851 39.0249 81.3502 38.8521C81.6171 38.6776 81.9284 38.5904 82.2842 38.5904C82.4895 38.5904 82.6922 38.6246 82.8924 38.693C83.0925 38.7614 83.2747 38.8726 83.4389 39.0266C83.6031 39.1788 83.734 39.3807 83.8315 39.6321C83.929 39.8836 83.9778 40.1932 83.9778 40.561V40.8176H80.9397V40.2942H83.3619C83.3619 40.0718 83.3175 39.8733 83.2285 39.6989C83.1413 39.5244 83.0164 39.3867 82.8539 39.2857C82.6931 39.1848 82.5032 39.1344 82.2842 39.1344C82.043 39.1344 81.8343 39.1942 81.6581 39.314C81.4837 39.432 81.3494 39.586 81.2553 39.7758C81.1612 39.9657 81.1142 40.1693 81.1142 40.3865V40.7355C81.1142 41.0332 81.1655 41.2855 81.2681 41.4925C81.3725 41.6978 81.517 41.8543 81.7018 41.962C81.8865 42.0681 82.1012 42.1211 82.3458 42.1211C82.5049 42.1211 82.6486 42.0989 82.7769 42.0544C82.9069 42.0082 83.019 41.9398 83.113 41.8491C83.2071 41.7568 83.2798 41.6422 83.3312 41.5053L83.9162 41.6695C83.8546 41.868 83.7511 42.0424 83.6057 42.193C83.4603 42.3418 83.2807 42.4581 83.0669 42.542C82.853 42.6241 82.6127 42.6651 82.3458 42.6651ZM87.6907 39.5244L87.1467 39.6783C87.1125 39.5877 87.0621 39.4996 86.9953 39.414C86.9303 39.3268 86.8414 39.255 86.7285 39.1985C86.6156 39.142 86.471 39.1138 86.2948 39.1138C86.0536 39.1138 85.8526 39.1694 85.6918 39.2806C85.5327 39.3901 85.4532 39.5295 85.4532 39.6989C85.4532 39.8494 85.5079 39.9683 85.6174 40.0555C85.7269 40.1428 85.898 40.2155 86.1306 40.2736L86.7157 40.4173C87.0681 40.5029 87.3306 40.6337 87.5034 40.8099C87.6762 40.9844 87.7626 41.2094 87.7626 41.4848C87.7626 41.7106 87.6976 41.9124 87.5676 42.0903C87.4393 42.2682 87.2596 42.4085 87.0287 42.5112C86.7978 42.6138 86.5292 42.6651 86.223 42.6651C85.821 42.6651 85.4883 42.5779 85.2248 42.4034C84.9614 42.2289 84.7946 41.974 84.7245 41.6387L85.2992 41.495C85.354 41.7072 85.4575 41.8662 85.6097 41.9723C85.7637 42.0784 85.9647 42.1314 86.2127 42.1314C86.495 42.1314 86.7191 42.0715 86.885 41.9518C87.0527 41.8303 87.1365 41.6849 87.1365 41.5156C87.1365 41.3787 87.0886 41.2641 86.9928 41.1717C86.897 41.0776 86.7499 41.0075 86.5514 40.9613L85.8945 40.8074C85.5336 40.7218 85.2685 40.5893 85.0991 40.4096C84.9315 40.2283 84.8476 40.0016 84.8476 39.7297C84.8476 39.5073 84.9101 39.3105 85.035 39.1395C85.1615 38.9684 85.3335 38.8341 85.5507 38.7366C85.7697 38.6391 86.0177 38.5904 86.2948 38.5904C86.6849 38.5904 86.9911 38.6759 87.2135 38.847C87.4375 39.018 87.5966 39.2438 87.6907 39.5244ZM90.2753 42.6651C89.9058 42.6651 89.5876 42.5779 89.3208 42.4034C89.0539 42.2289 88.8486 41.9886 88.7049 41.6824C88.5612 41.3761 88.4894 41.0263 88.4894 40.6329C88.4894 40.2326 88.5629 39.8793 88.7101 39.5731C88.8589 39.2652 89.0659 39.0249 89.331 38.8521C89.5979 38.6776 89.9092 38.5904 90.265 38.5904C90.5422 38.5904 90.7919 38.6417 91.0143 38.7443C91.2367 38.847 91.4189 38.9907 91.5608 39.1754C91.7028 39.3602 91.7909 39.5757 91.8251 39.822H91.2196C91.1734 39.6424 91.0707 39.4833 90.9116 39.3448C90.7543 39.2045 90.5422 39.1344 90.2753 39.1344C90.0392 39.1344 89.8322 39.1959 89.6543 39.3191C89.4781 39.4406 89.3404 39.6125 89.2412 39.8349C89.1437 40.0555 89.0949 40.3147 89.0949 40.6123C89.0949 40.9168 89.1428 41.182 89.2386 41.4078C89.3361 41.6336 89.473 41.8089 89.6492 41.9338C89.8271 42.0587 90.0358 42.1211 90.2753 42.1211C90.4327 42.1211 90.5755 42.0938 90.7038 42.039C90.8321 41.9843 90.9407 41.9056 91.0297 41.803C91.1186 41.7003 91.1819 41.5771 91.2196 41.4335H91.8251C91.7909 41.6661 91.7062 41.8757 91.5711 42.0621C91.4377 42.2469 91.2606 42.394 91.0399 42.5035C90.821 42.6112 90.5661 42.6651 90.2753 42.6651ZM92.7104 42.583V38.6417H93.2954V39.237H93.3365C93.4083 39.042 93.5383 38.8837 93.7265 38.7623C93.9147 38.6408 94.1268 38.5801 94.3629 38.5801C94.4073 38.5801 94.4629 38.581 94.5297 38.5827C94.5964 38.5844 94.6468 38.5869 94.6811 38.5904V39.2062C94.6605 39.2011 94.6135 39.1934 94.5399 39.1831C94.4681 39.1711 94.392 39.1651 94.3116 39.1651C94.12 39.1651 93.9489 39.2053 93.7984 39.2857C93.6495 39.3644 93.5315 39.4739 93.4443 39.6142C93.3587 39.7527 93.316 39.911 93.316 40.0889V42.583H92.7104ZM95.3989 42.583V38.6417H96.0044V42.583H95.3989ZM95.7068 37.9848C95.5888 37.9848 95.487 37.9446 95.4014 37.8642C95.3176 37.7838 95.2757 37.6871 95.2757 37.5742C95.2757 37.4613 95.3176 37.3647 95.4014 37.2843C95.487 37.2039 95.5888 37.1637 95.7068 37.1637C95.8248 37.1637 95.9258 37.2039 96.0096 37.2843C96.0951 37.3647 96.1379 37.4613 96.1379 37.5742C96.1379 37.6871 96.0951 37.7838 96.0096 37.8642C95.9258 37.9446 95.8248 37.9848 95.7068 37.9848ZM97.1957 42.583V37.3279H97.8013V39.2678H97.8526C97.8971 39.1994 97.9586 39.1121 98.0373 39.0061C98.1177 38.8983 98.2323 38.8025 98.3812 38.7187C98.5317 38.6331 98.7353 38.5904 98.9919 38.5904C99.3237 38.5904 99.6163 38.6733 99.8694 38.8393C100.123 39.0052 100.32 39.2404 100.462 39.5449C100.604 39.8494 100.675 40.2086 100.675 40.6226C100.675 41.04 100.604 41.4018 100.462 41.708C100.32 42.0125 100.123 42.2486 99.872 42.4162C99.6205 42.5822 99.3306 42.6651 99.0021 42.6651C98.749 42.6651 98.5462 42.6232 98.394 42.5394C98.2418 42.4539 98.1246 42.3572 98.0425 42.2494C97.9604 42.14 97.8971 42.0493 97.8526 41.9774H97.7807V42.583H97.1957ZM97.791 40.6123C97.791 40.91 97.8346 41.1726 97.9219 41.4001C98.0091 41.6259 98.1365 41.803 98.3042 41.9313C98.4718 42.0578 98.6771 42.1211 98.92 42.1211C99.1732 42.1211 99.3845 42.0544 99.5538 41.921C99.7249 41.7858 99.8532 41.6045 99.9387 41.377C100.026 41.1478 100.07 40.8929 100.07 40.6123C100.07 40.3352 100.027 40.0855 99.9413 39.8631C99.8575 39.639 99.73 39.4619 99.5589 39.3319C99.3896 39.2002 99.1766 39.1344 98.92 39.1344C98.6737 39.1344 98.4667 39.1968 98.2991 39.3217C98.1314 39.4448 98.0048 39.6176 97.9193 39.84C97.8338 40.0607 97.791 40.3181 97.791 40.6123ZM101.601 42.583V38.6417H102.207V42.583H101.601ZM101.909 37.9848C101.791 37.9848 101.69 37.9446 101.604 37.8642C101.52 37.7838 101.478 37.6871 101.478 37.5742C101.478 37.4613 101.52 37.3647 101.604 37.2843C101.69 37.2039 101.791 37.1637 101.909 37.1637C102.027 37.1637 102.128 37.2039 102.212 37.2843C102.298 37.3647 102.34 37.4613 102.34 37.5742C102.34 37.6871 102.298 37.7838 102.212 37.8642C102.128 37.9446 102.027 37.9848 101.909 37.9848ZM103.922 40.2121V42.583H103.316V38.6417H103.901V39.2575H103.953C104.045 39.0574 104.185 38.8966 104.373 38.7751C104.562 38.652 104.804 38.5904 105.102 38.5904C105.369 38.5904 105.602 38.6451 105.803 38.7546C106.003 38.8624 106.158 39.0266 106.27 39.2473C106.381 39.4662 106.436 39.7433 106.436 40.0786V42.583H105.831V40.1197C105.831 39.8101 105.75 39.5689 105.59 39.3961C105.429 39.2216 105.208 39.1344 104.928 39.1344C104.734 39.1344 104.562 39.1763 104.409 39.2601C104.259 39.3439 104.14 39.4662 104.053 39.627C103.965 39.7878 103.922 39.9828 103.922 40.2121ZM109.134 44.1431C108.841 44.1431 108.59 44.1055 108.379 44.0302C108.169 43.9567 107.994 43.8591 107.853 43.7377C107.715 43.6179 107.605 43.4896 107.522 43.3528L108.005 43.0141C108.06 43.0859 108.129 43.168 108.213 43.2604C108.296 43.3545 108.411 43.4358 108.556 43.5042C108.704 43.5743 108.896 43.6094 109.134 43.6094C109.452 43.6094 109.715 43.5324 109.922 43.3785C110.129 43.2245 110.232 42.9833 110.232 42.6549V41.8543H110.181C110.136 41.9261 110.073 42.0151 109.991 42.1211C109.91 42.2255 109.794 42.3187 109.642 42.4008C109.491 42.4812 109.288 42.5214 109.031 42.5214C108.713 42.5214 108.427 42.4462 108.174 42.2956C107.923 42.1451 107.723 41.9261 107.576 41.6387C107.431 41.3513 107.358 41.0024 107.358 40.5918C107.358 40.1881 107.429 39.8366 107.571 39.5372C107.713 39.2361 107.911 39.0035 108.164 38.8393C108.417 38.6733 108.71 38.5904 109.041 38.5904C109.298 38.5904 109.502 38.6331 109.652 38.7187C109.804 38.8025 109.921 38.8983 110.001 39.0061C110.083 39.1121 110.147 39.1994 110.191 39.2678H110.253V38.6417H110.838V42.6959C110.838 43.0346 110.761 43.31 110.607 43.5222C110.454 43.736 110.249 43.8925 109.991 43.9917C109.734 44.0927 109.449 44.1431 109.134 44.1431ZM109.113 41.9774C109.356 41.9774 109.561 41.9218 109.729 41.8107C109.897 41.6995 110.024 41.5395 110.111 41.3308C110.199 41.1221 110.242 40.8724 110.242 40.5816C110.242 40.2976 110.2 40.047 110.114 39.8297C110.029 39.6125 109.902 39.4423 109.734 39.3191C109.567 39.1959 109.36 39.1344 109.113 39.1344C108.857 39.1344 108.643 39.1994 108.472 39.3294C108.302 39.4594 108.175 39.6339 108.089 39.8528C108.006 40.0718 107.964 40.3147 107.964 40.5816C107.964 40.8553 108.007 41.0973 108.092 41.3077C108.179 41.5164 108.308 41.6806 108.477 41.8004C108.648 41.9184 108.86 41.9774 109.113 41.9774ZM115.692 38.6417V39.1549H113.65V38.6417H115.692ZM114.245 37.6974H114.851V41.454C114.851 41.625 114.876 41.7533 114.925 41.8389C114.977 41.9227 115.042 41.9792 115.12 42.0082C115.201 42.0356 115.285 42.0493 115.374 42.0493C115.441 42.0493 115.496 42.0459 115.538 42.039C115.581 42.0305 115.615 42.0236 115.641 42.0185L115.764 42.5625C115.723 42.5779 115.666 42.5933 115.592 42.6087C115.519 42.6258 115.426 42.6343 115.313 42.6343C115.142 42.6343 114.974 42.5975 114.81 42.524C114.647 42.4504 114.512 42.3384 114.404 42.1878C114.298 42.0373 114.245 41.8474 114.245 41.6182V37.6974ZM117.294 40.2121V42.583H116.688V37.3279H117.294V39.2575H117.345C117.437 39.054 117.576 38.8923 117.761 38.7726C117.947 38.6511 118.195 38.5904 118.505 38.5904C118.773 38.5904 119.009 38.6443 119.21 38.752C119.412 38.8581 119.569 39.0214 119.68 39.2421C119.793 39.4611 119.849 39.7399 119.849 40.0786V42.583H119.244V40.1197C119.244 39.8066 119.162 39.5646 119 39.3935C118.839 39.2207 118.616 39.1344 118.33 39.1344C118.132 39.1344 117.954 39.1763 117.797 39.2601C117.641 39.3439 117.518 39.4662 117.427 39.627C117.338 39.7878 117.294 39.9828 117.294 40.2121ZM122.61 42.6651C122.23 42.6651 121.902 42.5813 121.627 42.4137C121.353 42.2443 121.142 42.0082 120.993 41.7054C120.846 41.401 120.772 41.0469 120.772 40.6431C120.772 40.2394 120.846 39.8836 120.993 39.5757C121.142 39.2661 121.349 39.0249 121.614 38.8521C121.881 38.6776 122.192 38.5904 122.548 38.5904C122.753 38.5904 122.956 38.6246 123.156 38.693C123.356 38.7614 123.539 38.8726 123.703 39.0266C123.867 39.1788 123.998 39.3807 124.095 39.6321C124.193 39.8836 124.242 40.1932 124.242 40.561V40.8176H121.203V40.2942H123.626C123.626 40.0718 123.581 39.8733 123.492 39.6989C123.405 39.5244 123.28 39.3867 123.118 39.2857C122.957 39.1848 122.767 39.1344 122.548 39.1344C122.307 39.1344 122.098 39.1942 121.922 39.314C121.747 39.432 121.613 39.586 121.519 39.7758C121.425 39.9657 121.378 40.1693 121.378 40.3865V40.7355C121.378 41.0332 121.429 41.2855 121.532 41.4925C121.636 41.6978 121.781 41.8543 121.966 41.962C122.15 42.0681 122.365 42.1211 122.61 42.1211C122.769 42.1211 122.912 42.0989 123.041 42.0544C123.171 42.0082 123.283 41.9398 123.377 41.8491C123.471 41.7568 123.544 41.6422 123.595 41.5053L124.18 41.6695C124.118 41.868 124.015 42.0424 123.87 42.193C123.724 42.3418 123.545 42.4581 123.331 42.542C123.117 42.6241 122.877 42.6651 122.61 42.6651ZM128.848 42.6651C128.468 42.6651 128.14 42.5813 127.865 42.4137C127.591 42.2443 127.38 42.0082 127.231 41.7054C127.084 41.401 127.01 41.0469 127.01 40.6431C127.01 40.2394 127.084 39.8836 127.231 39.5757C127.38 39.2661 127.587 39.0249 127.852 38.8521C128.119 38.6776 128.43 38.5904 128.786 38.5904C128.991 38.5904 129.194 38.6246 129.394 38.693C129.594 38.7614 129.776 38.8726 129.941 39.0266C130.105 39.1788 130.236 39.3807 130.333 39.6321C130.431 39.8836 130.479 40.1932 130.479 40.561V40.8176H127.441V40.2942H129.864C129.864 40.0718 129.819 39.8733 129.73 39.6989C129.643 39.5244 129.518 39.3867 129.356 39.2857C129.195 39.1848 129.005 39.1344 128.786 39.1344C128.545 39.1344 128.336 39.1942 128.16 39.314C127.985 39.432 127.851 39.586 127.757 39.7758C127.663 39.9657 127.616 40.1693 127.616 40.3865V40.7355C127.616 41.0332 127.667 41.2855 127.77 41.4925C127.874 41.6978 128.019 41.8543 128.203 41.962C128.388 42.0681 128.603 42.1211 128.848 42.1211C129.007 42.1211 129.15 42.0989 129.279 42.0544C129.409 42.0082 129.521 41.9398 129.615 41.8491C129.709 41.7568 129.782 41.6422 129.833 41.5053L130.418 41.6695C130.356 41.868 130.253 42.0424 130.107 42.193C129.962 42.3418 129.782 42.4581 129.569 42.542C129.355 42.6241 129.114 42.6651 128.848 42.6651ZM134.504 38.6417L133.046 42.583H132.43L130.973 38.6417H131.63L132.718 41.7824H132.759L133.847 38.6417H134.504ZM136.814 42.6651C136.434 42.6651 136.107 42.5813 135.831 42.4137C135.558 42.2443 135.346 42.0082 135.198 41.7054C135.051 41.401 134.977 41.0469 134.977 40.6431C134.977 40.2394 135.051 39.8836 135.198 39.5757C135.346 39.2661 135.553 39.0249 135.819 38.8521C136.085 38.6776 136.397 38.5904 136.753 38.5904C136.958 38.5904 137.161 38.6246 137.361 38.693C137.561 38.7614 137.743 38.8726 137.907 39.0266C138.072 39.1788 138.202 39.3807 138.3 39.6321C138.397 39.8836 138.446 40.1932 138.446 40.561V40.8176H135.408V40.2942H137.83C137.83 40.0718 137.786 39.8733 137.697 39.6989C137.61 39.5244 137.485 39.3867 137.322 39.2857C137.161 39.1848 136.972 39.1344 136.753 39.1344C136.511 39.1344 136.303 39.1942 136.127 39.314C135.952 39.432 135.818 39.586 135.724 39.7758C135.63 39.9657 135.583 40.1693 135.583 40.3865V40.7355C135.583 41.0332 135.634 41.2855 135.736 41.4925C135.841 41.6978 135.985 41.8543 136.17 41.962C136.355 42.0681 136.57 42.1211 136.814 42.1211C136.973 42.1211 137.117 42.0989 137.245 42.0544C137.375 42.0082 137.487 41.9398 137.581 41.8491C137.675 41.7568 137.748 41.6422 137.8 41.5053L138.385 41.6695C138.323 41.868 138.219 42.0424 138.074 42.193C137.929 42.3418 137.749 42.4581 137.535 42.542C137.321 42.6241 137.081 42.6651 136.814 42.6651ZM139.973 40.2121V42.583H139.367V38.6417H139.952V39.2575H140.004C140.096 39.0574 140.236 38.8966 140.424 38.7751C140.613 38.652 140.856 38.5904 141.153 38.5904C141.42 38.5904 141.654 38.6451 141.854 38.7546C142.054 38.8624 142.21 39.0266 142.321 39.2473C142.432 39.4662 142.488 39.7433 142.488 40.0786V42.583H141.882V40.1197C141.882 39.8101 141.802 39.5689 141.641 39.3961C141.48 39.2216 141.259 39.1344 140.979 39.1344C140.785 39.1344 140.613 39.1763 140.46 39.2601C140.31 39.3439 140.191 39.4662 140.104 39.627C140.017 39.7878 139.973 39.9828 139.973 40.2121ZM145.308 38.6417V39.1549H143.266V38.6417H145.308ZM143.861 37.6974H144.467V41.454C144.467 41.625 144.491 41.7533 144.541 41.8389C144.592 41.9227 144.657 41.9792 144.736 42.0082C144.816 42.0356 144.901 42.0493 144.99 42.0493C145.057 42.0493 145.111 42.0459 145.154 42.039C145.197 42.0305 145.231 42.0236 145.257 42.0185L145.38 42.5625C145.339 42.5779 145.282 42.5933 145.208 42.6087C145.135 42.6258 145.041 42.6343 144.928 42.6343C144.757 42.6343 144.59 42.5975 144.425 42.524C144.263 42.4504 144.128 42.3384 144.02 42.1878C143.914 42.0373 143.861 41.8474 143.861 41.6182V37.6974ZM149.965 38.6417V39.1549H147.923V38.6417H149.965ZM148.518 37.6974H149.124V41.454C149.124 41.625 149.149 41.7533 149.198 41.8389C149.249 41.9227 149.314 41.9792 149.393 42.0082C149.474 42.0356 149.558 42.0493 149.647 42.0493C149.714 42.0493 149.769 42.0459 149.811 42.039C149.854 42.0305 149.888 42.0236 149.914 42.0185L150.037 42.5625C149.996 42.5779 149.939 42.5933 149.865 42.6087C149.792 42.6258 149.699 42.6343 149.586 42.6343C149.415 42.6343 149.247 42.5975 149.083 42.524C148.92 42.4504 148.785 42.3384 148.677 42.1878C148.571 42.0373 148.518 41.8474 148.518 41.6182V37.6974ZM151.567 40.2121V42.583H150.961V37.3279H151.567V39.2575H151.618C151.71 39.054 151.849 38.8923 152.034 38.7726C152.22 38.6511 152.468 38.5904 152.778 38.5904C153.046 38.5904 153.281 38.6443 153.483 38.752C153.685 38.8581 153.842 39.0214 153.953 39.2421C154.066 39.4611 154.122 39.7399 154.122 40.0786V42.583H153.517V40.1197C153.517 39.8066 153.435 39.5646 153.273 39.3935C153.112 39.2207 152.889 39.1344 152.603 39.1344C152.405 39.1344 152.227 39.1763 152.069 39.2601C151.914 39.3439 151.791 39.4662 151.7 39.627C151.611 39.7878 151.567 39.9828 151.567 40.2121ZM156.883 42.6651C156.503 42.6651 156.175 42.5813 155.9 42.4137C155.626 42.2443 155.415 42.0082 155.266 41.7054C155.119 41.401 155.045 41.0469 155.045 40.6431C155.045 40.2394 155.119 39.8836 155.266 39.5757C155.415 39.2661 155.622 39.0249 155.887 38.8521C156.154 38.6776 156.465 38.5904 156.821 38.5904C157.026 38.5904 157.229 38.6246 157.429 38.693C157.629 38.7614 157.811 38.8726 157.976 39.0266C158.14 39.1788 158.271 39.3807 158.368 39.6321C158.466 39.8836 158.515 40.1932 158.515 40.561V40.8176H155.476V40.2942H157.899C157.899 40.0718 157.854 39.8733 157.765 39.6989C157.678 39.5244 157.553 39.3867 157.391 39.2857C157.23 39.1848 157.04 39.1344 156.821 39.1344C156.58 39.1344 156.371 39.1942 156.195 39.314C156.02 39.432 155.886 39.586 155.792 39.7758C155.698 39.9657 155.651 40.1693 155.651 40.3865V40.7355C155.651 41.0332 155.702 41.2855 155.805 41.4925C155.909 41.6978 156.054 41.8543 156.239 41.962C156.423 42.0681 156.638 42.1211 156.883 42.1211C157.042 42.1211 157.185 42.0989 157.314 42.0544C157.444 42.0082 157.556 41.9398 157.65 41.8491C157.744 41.7568 157.817 41.6422 157.868 41.5053L158.453 41.6695C158.391 41.868 158.288 42.0424 158.142 42.193C157.997 42.3418 157.817 42.4581 157.604 42.542C157.39 42.6241 157.149 42.6651 156.883 42.6651ZM159.436 42.583V38.6417H160.021V39.2575H160.072C160.154 39.0471 160.287 38.8837 160.47 38.7674C160.653 38.6494 160.873 38.5904 161.129 38.5904C161.389 38.5904 161.606 38.6494 161.778 38.7674C161.953 38.8837 162.089 39.0471 162.186 39.2575H162.227C162.328 39.054 162.48 38.8923 162.682 38.7726C162.884 38.6511 163.126 38.5904 163.408 38.5904C163.76 38.5904 164.048 38.7007 164.273 38.9214C164.497 39.1403 164.609 39.4816 164.609 39.9452V42.583H164.003V39.9452C164.003 39.6544 163.924 39.4465 163.764 39.3217C163.605 39.1968 163.418 39.1344 163.203 39.1344C162.925 39.1344 162.711 39.2182 162.558 39.3858C162.406 39.5517 162.33 39.7622 162.33 40.017V42.583H161.714V39.8836C161.714 39.6595 161.642 39.479 161.496 39.3422C161.351 39.2036 161.163 39.1344 160.934 39.1344C160.777 39.1344 160.63 39.1763 160.493 39.2601C160.358 39.3439 160.248 39.4602 160.164 39.6091C160.082 39.7562 160.041 39.9264 160.041 40.1197V42.583H159.436ZM167.368 42.6651C166.989 42.6651 166.661 42.5813 166.386 42.4137C166.112 42.2443 165.901 42.0082 165.752 41.7054C165.605 41.401 165.531 41.0469 165.531 40.6431C165.531 40.2394 165.605 39.8836 165.752 39.5757C165.901 39.2661 166.108 39.0249 166.373 38.8521C166.64 38.6776 166.951 38.5904 167.307 38.5904C167.512 38.5904 167.715 38.6246 167.915 38.693C168.115 38.7614 168.297 38.8726 168.461 39.0266C168.626 39.1788 168.757 39.3807 168.854 39.6321C168.952 39.8836 169 40.1932 169 40.561V40.8176H165.962V40.2942H168.385C168.385 40.0718 168.34 39.8733 168.251 39.6989C168.164 39.5244 168.039 39.3867 167.876 39.2857C167.716 39.1848 167.526 39.1344 167.307 39.1344C167.066 39.1344 166.857 39.1942 166.681 39.314C166.506 39.432 166.372 39.586 166.278 39.7758C166.184 39.9657 166.137 40.1693 166.137 40.3865V40.7355C166.137 41.0332 166.188 41.2855 166.291 41.4925C166.395 41.6978 166.54 41.8543 166.724 41.962C166.909 42.0681 167.124 42.1211 167.368 42.1211C167.527 42.1211 167.671 42.0989 167.799 42.0544C167.929 42.0082 168.042 41.9398 168.136 41.8491C168.23 41.7568 168.302 41.6422 168.354 41.5053L168.939 41.6695C168.877 41.868 168.774 42.0424 168.628 42.193C168.483 42.3418 168.303 42.4581 168.089 42.542C167.876 42.6241 167.635 42.6651 167.368 42.6651Z" fill="#8F8F8F"/>
<rect x="21.677" y="29.3899" width="156.257" height="21.387" rx="5.19351" stroke="#C2C2C2" stroke-width="0.45161"/>
<defs>
<filter id="filter0_dd_2291_49915" x="0.963849" y="0.981924" width="197.684" height="69.6241" filterUnits="userSpaceOnUse" color-interpolation-filters="sRGB">
<feFlood flood-opacity="0" result="BackgroundImageFix"/>
<feColorMatrix in="SourceAlpha" type="matrix" values="0 0 0 0 0 0 0 0 0 0 0 0 0 0 0 0 0 0 127 0" result="hardAlpha"/>
<feOffset dy="0.754519"/>
<feGaussianBlur stdDeviation="0.377259"/>
<feComposite in2="hardAlpha" operator="out"/>
<feColorMatrix type="matrix" values="0 0 0 0 0.94902 0 0 0 0 0.94902 0 0 0 0 0.94902 0 0 0 0.5 0"/>
<feBlend mode="normal" in2="BackgroundImageFix" result="effect1_dropShadow_2291_49915"/>
<feColorMatrix in="SourceAlpha" type="matrix" values="0 0 0 0 0 0 0 0 0 0 0 0 0 0 0 0 0 0 127 0" result="hardAlpha"/>
<feMorphology radius="3.77259" operator="erode" in="SourceAlpha" result="effect2_dropShadow_2291_49915"/>
<feOffset dy="3.01807"/>
<feGaussianBlur stdDeviation="4.90437"/>
<feComposite in2="hardAlpha" operator="out"/>
<feColorMatrix type="matrix" values="0 0 0 0 0.741176 0 0 0 0 0.741176 0 0 0 0 0.741176 0 0 0 0.5 0"/>
<feBlend mode="normal" in2="effect1_dropShadow_2291_49915" result="effect2_dropShadow_2291_49915"/>
<feBlend mode="normal" in="SourceGraphic" in2="effect2_dropShadow_2291_49915" result="shape"/>
</filter>
</defs>
</svg>
