<svg width="42" height="86" viewBox="0 0 42 86" fill="none" xmlns="http://www.w3.org/2000/svg">
<path fill-rule="evenodd" clip-rule="evenodd" d="M-4.48481e-07 74.6032C-8.61453e-07 79.3271 1.33691e-07 81.689 1.56216 83.591C2.12784 84.2798 3.22552 85.1161 4.03447 85.4747C6.26845 86.465 8.0474 85.9357 11.6053 84.8769C29.1567 79.6542 42 62.8827 42 43C42 23.1173 29.1567 6.3458 11.6053 1.12306C8.04741 0.0643323 6.26845 -0.465036 4.03448 0.525282C3.22553 0.883888 2.12784 1.72023 1.56217 2.40897C6.69802e-06 4.31098 5.49018e-06 6.6729 5.07721e-06 11.3967L-4.48481e-07 74.6032Z" fill="#00AF9E"/>
</svg>
