<svg width="214" height="217" viewBox="0 0 214 217" fill="none" xmlns="http://www.w3.org/2000/svg">
<path fill-rule="evenodd" clip-rule="evenodd" d="M56.7077 0.91687C34.2363 0.91687 23.0006 0.91687 14.9295 6.30984C11.4354 8.64452 8.43536 11.6445 6.10069 15.1386C0.707718 23.2098 0.707718 34.4455 0.707718 56.9169L0.707718 162.759C0.707718 184.833 0.707718 195.87 8.04724 204.746C10.721 207.979 15.8501 211.875 19.6825 213.582C30.2023 218.27 38.7667 215.884 55.8955 211.111C129.359 190.642 188.875 130.406 208.961 56.1448C213.638 38.8507 215.977 30.2036 211.26 19.753C209.534 15.9287 205.657 10.863 202.415 8.19841C193.559 0.91687 182.503 0.91687 160.392 0.91687L56.7077 0.91687Z" fill="#1AB7A8"/>
</svg>
