<svg width="91" height="91" viewBox="0 0 91 91" fill="none" xmlns="http://www.w3.org/2000/svg">
<path fill-rule="evenodd" clip-rule="evenodd" d="M65.4172 91C75.6829 91 80.8158 91 84.5029 88.5363C86.0991 87.4698 87.4697 86.0992 88.5362 84.503C90.9999 80.8159 90.9999 75.683 90.9999 65.4173L90.9999 24.9072C90.9999 14.8637 90.9999 9.84191 87.5793 5.76582C86.3472 4.29757 83.9303 2.49854 82.1702 1.7395C77.2841 -0.367698 73.4673 0.775544 65.8337 3.06203C36.1756 11.9455 12.1549 36.0628 3.32636 65.8269C1.05408 73.4874 -0.0820514 77.3177 2.03001 82.1928C2.79198 83.9515 4.58838 86.3581 6.05787 87.5888C10.131 91 15.1561 91 25.2062 91L65.4172 91Z" fill="#FF8F1A"/>
</svg>
