<svg width="80" height="80" viewBox="0 0 80 80" fill="none" xmlns="http://www.w3.org/2000/svg">
<circle cx="40" cy="40" r="40" fill="#3E7AFC"/>
<path d="M26.6677 48.7726C26.7908 47.9854 27.1201 47.2835 27.426 46.7005C27.9419 45.717 28.6873 44.8792 29.4083 44.0692C29.5261 43.9367 29.6436 43.804 29.7609 43.6712C31.1607 42.0777 32.6083 40.4313 34.2587 38.9519C35.4524 37.8821 36.8318 37.4724 38.4745 37.6993C38.587 37.7149 38.6997 37.7291 38.8127 37.7432C39.4583 37.8243 40.0683 37.9009 40.6244 38.2199C40.7554 38.2894 40.8967 38.3375 41.0432 38.3625C41.1305 38.3783 41.2203 38.3762 41.3069 38.3566C41.3935 38.3369 41.4752 38.3001 41.5471 38.2482C41.6321 38.19 41.7046 38.1154 41.7601 38.0289C41.8157 37.9423 41.8531 37.8455 41.8703 37.7444C41.9031 37.5473 41.8835 37.3451 41.8136 37.1577C41.7438 36.9705 41.6258 36.8044 41.4716 36.6761C40.9858 36.2408 40.389 35.9461 39.746 35.8238C39.0415 35.677 38.3289 35.5713 37.612 35.5071C36.0255 35.3617 34.6457 35.7712 33.5107 36.7249C32.4087 37.6332 31.3538 38.5962 30.3499 39.6102C29.2926 40.6998 28.2838 41.8682 27.3084 42.9981L26.8774 43.497C26.0287 44.4879 25.3268 45.5938 24.7929 46.7812C24.36 47.7311 24.1246 48.7577 24.1006 49.7998V49.8029C24.0967 51.9781 24.9283 53.6224 26.5726 54.6902C27.8511 55.5204 29.1757 55.9364 30.5319 55.9364C31.3633 55.9315 32.1874 55.7835 32.9679 55.4994C33.4745 55.3196 33.9262 55.1468 34.3486 54.971C35.8368 54.3521 37.153 53.3515 38.6161 51.7274C39.4703 50.7796 40.3107 49.7922 41.1239 48.8371C41.5369 48.3519 41.9509 47.8676 42.3661 47.3844C42.5047 47.2239 42.6515 47.0643 42.7936 46.9096C43.0383 46.6437 43.2912 46.3687 43.5151 46.0755C43.7459 45.7856 43.9109 45.4497 43.999 45.0909C44.0263 44.955 44.0165 44.8143 43.9707 44.6834C43.9247 44.5526 43.8444 44.4364 43.7378 44.3466C43.6226 44.2444 43.4823 44.174 43.3311 44.1427C43.1797 44.1113 43.0227 44.12 42.8759 44.1679C42.6059 44.2573 42.3567 44.3993 42.143 44.5857C41.8847 44.8279 41.6427 45.0866 41.4187 45.3601L41.317 45.4786C40.7928 46.0874 40.2697 46.6971 39.7477 47.3077C38.8685 48.3347 37.9591 49.3965 37.056 50.4332C35.6323 52.0668 33.8577 53.0712 31.7793 53.4184C31.0482 53.5538 30.296 53.5272 29.5765 53.3407C27.4458 52.7507 26.5818 51.6127 26.5942 49.413C26.6006 49.2278 26.6207 49.0433 26.6546 48.8612L26.6677 48.7726Z" fill="white"/>
<path d="M52.2448 24.2278C51.2877 24.0032 50.313 24.0076 49.3699 24.0135L49.1455 24.0146C48.0658 24.0187 47.0574 24.3442 46.0631 25.0093C44.4494 26.0666 42.9621 27.3025 41.63 28.6932C40.7354 29.6411 39.7996 30.6813 38.7696 31.873C38.2654 32.456 37.8004 33.2058 38.1756 34.3423C38.1812 34.3591 38.1902 34.3746 38.2019 34.388C38.2137 34.4013 38.2281 34.4122 38.2441 34.42C38.2603 34.4277 38.278 34.4322 38.2958 34.4332C38.3137 34.4342 38.3318 34.4316 38.3486 34.4257C39.2498 34.1045 39.8958 33.7278 40.4421 33.2039L40.4716 33.1755C41.1585 32.5165 41.8691 31.8349 42.5303 31.1278C44.1411 29.4055 45.5911 28.1177 47.0931 27.0745C47.835 26.543 48.7265 26.2564 49.6416 26.2552C50.348 26.2422 51.0539 26.3011 51.7481 26.4309C52.7755 26.6362 53.8902 27.3851 53.935 28.8705C53.9722 30.0876 53.7244 31.0241 53.1551 31.8183C52.9232 32.1415 52.6944 32.4676 52.4654 32.7938C51.7368 33.8323 50.9833 34.9056 50.1398 35.8688C49.0781 37.0807 47.6149 38.6009 45.7056 39.6106C44.1409 40.4388 42.3636 40.7882 40.5987 40.6149C39.8632 40.5671 39.1677 40.2659 38.6323 39.7634C38.4026 39.5435 38.156 39.3418 37.8947 39.1598C37.5387 38.9171 37.1231 38.9284 36.8605 39.1884C36.7205 39.311 36.6259 39.4765 36.592 39.6587C36.5581 39.8409 36.5868 40.029 36.6734 40.1931C36.8071 40.4811 36.9672 40.7564 37.1516 41.0155C37.7516 41.816 38.6144 42.351 39.7899 42.6505C40.3274 42.7855 40.88 42.8526 41.4343 42.8502C42.288 42.8343 43.1367 42.7174 43.9625 42.5019C45.6474 42.0977 47.2052 41.2044 48.7251 39.7709C51.2908 37.3509 53.3357 34.53 54.8306 32.3429C55.5018 31.3599 55.8722 30.2055 55.8972 29.0186C55.926 28.0772 55.85 26.8753 54.9991 25.9313C54.184 25.0288 53.2839 24.4716 52.2448 24.2278Z" fill="white"/>
</svg>
