<svg width="80" height="80" viewBox="0 0 80 80" fill="none" xmlns="http://www.w3.org/2000/svg">
<circle cx="40" cy="40" r="40" fill="#1AB7A8"/>
<g clip-path="url(#clip0_2284_51578)">
<path d="M23.124 51.9555C22.6989 53.9297 23.4755 55.2318 25.3704 55.7231C25.7766 55.8266 26.1945 55.8776 26.6137 55.8752C27.0305 55.8727 27.4462 55.8325 27.8558 55.7552C28.6706 55.6069 29.3187 55.1646 29.8489 54.734C31.8821 56.2824 34.0057 55.7476 35.6484 55.0824C36.4492 55.5943 37.382 55.8607 38.3323 55.8493C39.2751 55.8331 40.1226 55.4722 40.9208 54.7466C42.5724 55.6746 44.2265 55.7068 45.8397 54.8414C47.499 55.6664 48.8968 55.6801 50.2267 54.8859C51.0972 55.3862 51.8688 55.5348 52.6493 55.3526C54.2923 54.9699 55.4364 53.092 55.0977 51.3337C54.9293 50.4836 54.5418 49.6922 53.9736 49.0379C55.0686 48.4057 55.5902 47.5435 55.5676 46.408C55.546 45.3241 55.1128 44.4057 54.2442 43.604L54.2874 43.5588C54.3705 43.472 54.4415 43.3978 54.5113 43.3227C55.5753 42.1786 55.6026 40.6822 54.5809 39.5102C54.5164 39.4355 54.4493 39.362 54.3798 39.2854L54.3615 39.2653C54.9126 38.7026 55.4075 38.0477 55.443 37.1184C55.4775 36.2152 55.1275 35.5106 54.3742 34.967C55.0368 34.2033 55.3302 33.4843 55.322 32.6527C55.3257 32.231 55.2394 31.8134 55.0688 31.4278C54.8981 31.0422 54.647 30.6976 54.3323 30.4169C55.6235 28.787 55.5621 26.9991 54.1537 25.3704C52.704 23.6938 50.3204 23.5891 48.3304 25.1026C46.8668 24.1962 45.3982 24.2048 43.9627 25.1284C43.3603 24.6502 42.6577 24.5451 42.0451 24.5065C41.0736 24.4451 40.2386 24.7179 39.563 25.3172C37.8122 24.0991 36.4126 24.0853 34.6253 25.2672C33.1376 24.052 31.4531 24.0275 29.9732 25.1974C29.1927 24.3672 28.3041 24.0189 27.261 24.1353C26.0303 24.2715 25.0901 24.6818 24.3865 25.39C23.735 26.0457 23.3678 26.9485 23.3244 28.001C23.2786 29.115 23.3145 30.1799 24.2131 30.9621C23.5232 31.6592 23.1175 32.5881 23.075 33.5679C23.0151 34.6164 23.5751 35.3562 24.2743 36.1311C23.7167 36.8753 23.3784 37.7607 23.2977 38.6871C23.2049 39.7726 23.7734 40.5226 24.4254 41.1645C23.4 42.6317 23.3795 44.0937 24.3643 45.512C23.2556 47.0862 23.2235 48.277 24.2498 49.8378C23.6827 50.3512 23.3239 51.028 23.124 51.9555ZM25.3776 30.2055C24.5401 29.1897 24.8395 28.1221 25.2872 27.1195C25.6378 26.335 26.3365 25.9822 27.5527 25.9756H27.5578C27.8472 25.9995 28.1299 26.0756 28.3923 26.2001C28.473 26.2321 28.5532 26.2639 28.6328 26.293C28.7259 26.3321 28.8144 26.3812 28.8968 26.4396C28.9943 26.5083 29.0992 26.5659 29.2094 26.6114C30.0547 26.9272 30.1296 26.9396 30.5834 26.4565C30.6238 26.4136 30.6683 26.3662 30.7181 26.3146C31.4733 25.5316 32.7074 25.5218 33.5888 26.2914C33.7894 26.4666 33.9961 26.6328 34.2149 26.8087C34.3189 26.8924 34.4254 26.9781 34.5355 27.068C34.5617 27.0893 34.5951 27.0998 34.6288 27.0974C34.6625 27.095 34.694 27.0799 34.7169 27.0551C36.4656 25.1583 38.1968 25.8654 39.8073 26.9124C39.8225 26.9224 39.8398 26.9292 39.8578 26.9322C39.8759 26.9352 39.8944 26.9344 39.912 26.93C39.9298 26.9255 39.9464 26.9173 39.9608 26.9061C39.9753 26.8949 39.9871 26.8808 39.9959 26.8647C40.3914 26.1368 41.0444 25.8434 42.1132 25.9182C42.3298 25.9383 42.5448 25.9728 42.7569 26.0214C42.8629 26.0431 42.9688 26.0647 43.0751 26.0831C43.1834 26.0886 43.2879 26.1251 43.3762 26.1881C43.4644 26.2511 43.5328 26.3381 43.5732 26.4387C43.7142 26.7476 43.89 26.8279 44.0128 26.8409C44.1314 26.8524 44.3127 26.8151 44.5012 26.5616C44.8697 26.0657 45.3962 25.8438 46.2083 25.842H46.2163C46.57 25.851 46.9226 25.8855 47.2714 25.9452C47.3981 25.9636 47.5252 25.9821 47.6527 25.9985C47.6544 26.0345 47.6557 26.0689 47.6569 26.1017C47.6573 26.2311 47.6698 26.3602 47.694 26.4874C47.7064 26.5734 47.7399 26.6551 47.7918 26.7249C47.8435 26.7947 47.9119 26.8506 47.9907 26.8874C48.075 26.9145 48.1648 26.9204 48.252 26.9044C48.3391 26.8885 48.4209 26.8511 48.4902 26.7958C48.5757 26.7341 48.6553 26.6647 48.728 26.5884C48.7668 26.5497 48.8055 26.511 48.8465 26.4759C49.3473 26.0386 49.9581 25.7466 50.6129 25.6314C50.9244 25.5729 51.2446 25.5791 51.5537 25.6494C51.8628 25.7198 52.154 25.8528 52.4096 26.0403C52.6844 26.2437 52.9153 26.5005 53.0882 26.7955C53.2612 27.0904 53.3727 27.4173 53.416 27.7564C53.5416 28.7043 53.0502 29.4016 52.5007 30.0137C52.2346 30.3105 52.1344 30.5514 52.1848 30.7731C52.2336 30.9877 52.4249 31.1611 52.7696 31.3034C53.2964 31.5212 53.6447 31.8689 53.7502 32.2828C53.8568 32.7014 53.7141 33.1807 53.3483 33.6328C53.2069 33.8161 53.0427 33.9806 52.8597 34.1222C52.3413 34.5049 52.2313 34.9609 52.5231 35.5169C52.5387 35.5473 52.5656 35.5704 52.598 35.5814C52.6683 35.6052 52.7416 35.6275 52.8163 35.6502C52.9794 35.6955 53.1389 35.7527 53.2937 35.8212C53.67 35.9995 53.9178 36.2572 54.0105 36.5662C54.1047 36.8803 54.0371 37.2393 53.815 37.6049C53.5159 38.1294 53.0495 38.5384 52.4902 38.7662C52.4674 38.7753 52.4477 38.7906 52.4331 38.8103C52.4185 38.83 52.4096 38.8534 52.4075 38.8779L52.3353 39.7198C52.3331 39.7444 52.3378 39.769 52.3488 39.7909C52.3599 39.8129 52.3768 39.8313 52.3978 39.8442C52.4289 39.8632 52.4564 39.8829 52.4822 39.9011C52.5411 39.9486 52.6083 39.9845 52.6804 40.0071C52.9091 40.0551 53.1224 40.1586 53.3015 40.3084C53.4807 40.4583 53.6202 40.65 53.7078 40.8667C53.7802 41.0826 53.7984 41.3131 53.7607 41.5378C53.723 41.7624 53.6305 41.9744 53.4915 42.1548C53.4307 42.2406 53.3687 42.3254 53.3064 42.4102C52.9874 42.8451 52.6573 43.2948 52.4946 43.9115C52.4879 43.9367 52.4888 43.9635 52.4973 43.9881C52.5057 44.0129 52.5212 44.0346 52.542 44.0504C52.5869 44.085 52.6323 44.122 52.6799 44.1598C52.7906 44.2487 52.9049 44.3405 53.0307 44.4235C53.6781 44.8502 54.0328 45.4935 54.0039 46.1889C53.975 46.8842 53.5686 47.4944 52.8888 47.8655C52.7656 47.9327 52.6398 47.9953 52.514 48.0579C52.366 48.1316 52.2129 48.2076 52.0651 48.2909C51.81 48.4351 51.6693 48.6302 51.6692 48.8404C51.6692 49.0458 51.8046 49.2357 52.0506 49.3749C52.8159 49.808 53.2278 50.5269 53.3466 51.6378C53.3815 51.8918 53.3567 52.1504 53.2742 52.3933C53.1918 52.636 53.0538 52.8561 52.8714 53.0364C52.6741 53.218 52.4377 53.3521 52.1804 53.428C51.9231 53.504 51.6519 53.5198 51.3875 53.4744C51.1058 53.4335 50.8198 53.4073 50.5418 53.3823C50.3835 53.3678 50.2253 53.3535 50.0674 53.3364C49.59 53.2847 49.5353 53.6507 49.4997 53.8926V53.8939C48.742 54.1382 47.9314 54.1669 47.1584 53.9771C46.7884 53.8841 46.4691 53.8037 46.2966 53.4424C46.2658 53.37 46.2182 53.3062 46.1576 53.2562C46.0969 53.2062 46.0251 53.1716 45.9482 53.1552C45.8617 53.1432 45.7736 53.152 45.6911 53.1806C45.6087 53.2093 45.5341 53.257 45.4737 53.32C44.9705 53.7965 44.3158 53.8969 43.8015 53.9308C43.2822 53.9509 42.7622 53.9245 42.2478 53.8516C42.0798 53.8389 41.9175 53.7854 41.7749 53.6956C41.6324 53.6058 41.514 53.4824 41.4301 53.3364C41.3384 53.2044 41.2206 53.0926 41.0838 53.0081C41.0332 52.9718 40.9829 52.936 40.9373 52.8977C40.9117 52.876 40.8787 52.8649 40.8452 52.8666C40.8117 52.8682 40.7799 52.8827 40.7567 52.9068C39.5395 54.1658 38.319 54.5076 36.9157 53.9816C36.6438 53.8735 36.3907 53.7226 36.1665 53.5346C35.8226 53.2564 35.5873 53.1647 35.3794 53.229C35.1715 53.2933 35.0263 53.5028 34.8977 53.9289C34.89 53.9468 34.8808 53.9641 34.8701 53.9804L34.8591 53.9989C33.9596 54.2441 32.9994 54.462 31.9993 54.2766C31.2292 54.1347 30.5204 53.9339 30.3089 53.0609C30.2771 52.9744 30.2129 52.9037 30.1298 52.8637C30.0984 52.8438 30.068 52.8223 30.0389 52.7992C30.0152 52.78 29.9856 52.7694 29.9551 52.7694C29.934 52.7694 29.9131 52.7746 29.8943 52.7842C29.7562 52.8556 29.6177 52.9264 29.479 52.9969C29.1737 53.1526 28.8581 53.3135 28.5507 53.4789C27.6427 53.9835 26.5751 54.1186 25.5701 53.8561C24.8769 53.6823 24.6436 53.3786 24.6461 52.6547C24.6552 52.3744 24.687 52.0952 24.741 51.82L24.7621 51.6937C24.8738 51.0138 25.2482 50.5921 25.9066 50.4044C25.9696 50.3842 26.0304 50.3579 26.0881 50.3259L26.1076 50.316C26.1407 50.2971 26.1687 50.2706 26.189 50.2384C26.1994 50.2246 26.2132 50.2063 26.2336 50.1814C26.2522 50.1584 26.2627 50.1299 26.2633 50.1004C26.264 50.0708 26.2547 50.0418 26.237 50.018C26.1641 49.9205 26.0862 49.8236 26.0076 49.7259C25.8259 49.5137 25.6639 49.2851 25.5239 49.0432C25.3432 48.7051 25.1546 48.3077 25.1311 47.9224C25.1175 47.5037 25.1994 47.0873 25.3707 46.705C25.4918 46.4607 25.6468 46.2348 25.8312 46.034C25.9123 45.9362 25.9961 45.8351 26.073 45.7313C26.0895 45.7093 26.0986 45.6827 26.0992 45.6552C26.0998 45.6277 26.0918 45.6007 26.0764 45.5779C24.883 43.8179 24.9358 42.236 26.2214 41.2369C26.2464 41.2174 26.2636 41.1898 26.2699 41.1588C26.2762 41.1278 26.2713 41.0956 26.256 41.0678C26.2365 41.0326 26.2173 40.996 26.1985 40.9588C26.1531 40.8663 26.1016 40.7767 26.0443 40.6911C25.9431 40.5463 25.8378 40.4044 25.732 40.2623C25.5524 40.0204 25.3667 39.77 25.2087 39.5122C24.808 38.8583 24.9538 37.398 25.4732 36.8639C25.5817 36.7729 25.7059 36.7025 25.8396 36.656C25.9225 36.62 26.0163 36.5794 26.1125 36.5296C26.1293 36.5209 26.1441 36.5088 26.1558 36.494C26.1675 36.4791 26.1759 36.462 26.1804 36.4437C26.185 36.4254 26.1856 36.4062 26.1821 36.3877C26.1787 36.3691 26.1713 36.3515 26.1605 36.336C26.0494 36.1755 25.9423 36.0177 25.837 35.8624C25.6094 35.5269 25.3945 35.2101 25.1621 34.8995C24.2577 33.6906 24.3078 32.6114 25.3196 31.5027C25.4921 31.3343 25.5941 31.1067 25.6048 30.8659C25.6156 30.6251 25.5343 30.3892 25.3776 30.2061V30.2055Z" fill="white"/>
<path d="M28.2805 49.669C28.4001 50.0975 28.7268 50.3364 29.2007 50.3418C29.4089 50.3442 29.617 50.3475 29.825 50.3511C30.1962 50.3574 30.5762 50.364 30.9561 50.364C31.1221 50.364 31.2879 50.3626 31.4535 50.3598C33.2212 50.3282 35.017 50.2889 36.7541 50.2508L38.8044 50.2063C38.8277 50.2058 38.8502 50.1993 38.8701 50.1873C38.8898 50.1755 38.9062 50.1586 38.9175 50.1383C39.3562 50.1383 39.7953 50.1393 40.2348 50.1414C41.307 50.145 42.4154 50.1485 43.5058 50.1336C45.4127 50.1078 46.9708 50.0632 48.4091 49.9938C48.5871 49.9853 49.1977 49.9307 49.5807 49.5896C49.8842 49.3253 50.1243 48.9961 50.2837 48.6266C50.4429 48.257 50.5171 47.8562 50.5007 47.4542C50.4848 46.3522 50.4917 45.2309 50.4984 44.1464C50.5039 43.2347 50.5097 42.2918 50.502 41.3641C50.4922 40.1899 50.4496 38.9321 50.3714 37.52C50.324 36.6634 50.315 35.7889 50.3069 34.9435C50.2906 33.3564 50.2737 31.715 50.0035 30.1068C49.8795 29.3693 49.7464 29.1793 48.9815 29.1467C48.8826 29.1426 48.7843 29.1447 48.6893 29.1467C48.6305 29.1481 48.5715 29.1502 48.5127 29.1493C47.8469 29.1471 47.1812 29.1444 46.5155 29.1413C45.1509 29.1352 43.7404 29.1284 42.3514 29.1302C38.3861 29.1331 34.2482 29.1416 29.7005 29.156C29.0295 29.1582 28.6114 29.5 28.4567 30.172C28.3916 30.4595 28.3531 30.7524 28.3416 31.047C28.3244 31.4519 28.3072 31.8568 28.29 32.2618C28.2296 33.6425 28.1673 35.0699 28.1398 36.4756C28.0921 38.9223 28.0815 41.4099 28.0712 43.8286C28.0647 45.3571 28.0751 46.9171 28.1031 48.5976C28.1159 48.9609 28.1756 49.321 28.2805 49.669ZM48.5946 39.6704C48.6092 42.4729 48.6243 45.3695 48.4643 48.2316L30.0105 48.9038L29.868 30.5566L48.6963 30.8178C48.6993 30.8317 48.7021 30.8452 48.7049 30.8584C48.7212 30.9187 48.7298 30.9809 48.7308 31.0433C48.5647 33.9164 48.5799 36.8416 48.5946 39.6704Z" fill="white"/>
</g>
<defs>
<clipPath id="clip0_2284_51578">
<rect width="32.6452" height="32" fill="white" transform="translate(23 24)"/>
</clipPath>
</defs>
</svg>
