<svg width="293" height="139" viewBox="0 0 293 139" fill="none" xmlns="http://www.w3.org/2000/svg">
<g filter="url(#filter0_dd_2291_49898)">
<rect x="7" y="3.82227" width="279.926" height="125.177" rx="14.5301" fill="white"/>
</g>
<g clip-path="url(#clip0_2291_49898)">
<rect x="26.5129" y="69.2199" width="240.9" height="46.041" rx="16.5962" fill="white" stroke="#DBDBDB" stroke-width="1.07072" stroke-dasharray="4.28 4.28"/>
<path d="M112.577 95.7471H110.812L113.501 87.96H115.622L118.307 95.7471H116.542L114.592 89.7395H114.531L112.577 95.7471ZM112.466 92.6862H116.634V93.9714H112.466V92.6862ZM121.094 95.8421C120.65 95.8421 120.248 95.7281 119.888 95.4999C119.531 95.2693 119.247 94.9308 119.037 94.4847C118.829 94.036 118.725 93.486 118.725 92.8345C118.725 92.1653 118.833 91.6089 119.048 91.1653C119.264 90.7192 119.55 90.3859 119.907 90.1653C120.267 89.9423 120.662 89.8307 121.09 89.8307C121.417 89.8307 121.689 89.8865 121.907 89.998C122.128 90.107 122.305 90.2439 122.44 90.4087C122.577 90.5709 122.681 90.7306 122.752 90.8878H122.801V87.96H124.417V95.7471H122.82V94.8117H122.752C122.675 94.9739 122.568 95.1349 122.428 95.2946C122.291 95.4518 122.113 95.5823 121.892 95.6862C121.674 95.7902 121.408 95.8421 121.094 95.8421ZM121.607 94.5532C121.868 94.5532 122.089 94.4822 122.269 94.3402C122.451 94.1957 122.591 93.9942 122.687 93.7357C122.786 93.4771 122.835 93.1742 122.835 92.8269C122.835 92.4796 122.787 92.178 122.691 91.922C122.594 91.666 122.455 91.4682 122.272 91.3288C122.09 91.1894 121.868 91.1197 121.607 91.1197C121.341 91.1197 121.117 91.1919 120.934 91.3364C120.752 91.4809 120.613 91.6812 120.52 91.9372C120.426 92.1932 120.379 92.4898 120.379 92.8269C120.379 93.1666 120.426 93.467 120.52 93.7281C120.616 93.9866 120.754 94.1894 120.934 94.3364C121.117 94.4809 121.341 94.5532 121.607 94.5532ZM127.901 95.8421C127.457 95.8421 127.055 95.7281 126.695 95.4999C126.338 95.2693 126.054 94.9308 125.844 94.4847C125.636 94.036 125.532 93.486 125.532 92.8345C125.532 92.1653 125.64 91.6089 125.855 91.1653C126.071 90.7192 126.357 90.3859 126.714 90.1653C127.074 89.9423 127.469 89.8307 127.897 89.8307C128.224 89.8307 128.496 89.8865 128.714 89.998C128.935 90.107 129.112 90.2439 129.247 90.4087C129.384 90.5709 129.488 90.7306 129.559 90.8878H129.608V87.96H131.224V95.7471H129.627V94.8117H129.559C129.483 94.9739 129.375 95.1349 129.235 95.2946C129.098 95.4518 128.92 95.5823 128.699 95.6862C128.481 95.7902 128.215 95.8421 127.901 95.8421ZM128.414 94.5532C128.675 94.5532 128.896 94.4822 129.076 94.3402C129.258 94.1957 129.398 93.9942 129.494 93.7357C129.593 93.4771 129.642 93.1742 129.642 92.8269C129.642 92.4796 129.594 92.178 129.498 91.922C129.401 91.666 129.262 91.4682 129.079 91.3288C128.897 91.1894 128.675 91.1197 128.414 91.1197C128.148 91.1197 127.924 91.1919 127.741 91.3364C127.559 91.4809 127.42 91.6812 127.327 91.9372C127.233 92.1932 127.186 92.4898 127.186 92.8269C127.186 93.1666 127.233 93.467 127.327 93.7281C127.423 93.9866 127.561 94.1894 127.741 94.3364C127.924 94.4809 128.148 94.5532 128.414 94.5532ZM136.654 92.3706V95.7471H135.034V89.9068H136.578V90.9372H136.646C136.775 90.5975 136.992 90.3288 137.296 90.1311C137.6 89.9309 137.969 89.8307 138.403 89.8307C138.808 89.8307 139.162 89.9194 139.463 90.0969C139.765 90.2743 140 90.5278 140.167 90.8573C140.334 91.1843 140.418 91.5747 140.418 92.0284V95.7471H138.798V92.3174C138.801 91.96 138.709 91.6812 138.524 91.4809C138.339 91.2781 138.085 91.1767 137.76 91.1767C137.542 91.1767 137.349 91.2236 137.182 91.3174C137.017 91.4112 136.888 91.5481 136.794 91.7281C136.703 91.9055 136.656 92.1197 136.654 92.3706ZM144.356 95.8611C143.755 95.8611 143.238 95.7395 142.805 95.4961C142.374 95.2502 142.042 94.903 141.809 94.4543C141.575 94.0031 141.459 93.4695 141.459 92.8535C141.459 92.2528 141.575 91.7255 141.809 91.2718C142.042 90.818 142.37 90.4644 142.793 90.211C143.219 89.9575 143.719 89.8307 144.291 89.8307C144.677 89.8307 145.035 89.8928 145.367 90.017C145.702 90.1387 145.994 90.3225 146.242 90.5684C146.493 90.8142 146.688 91.1235 146.828 91.4961C146.967 91.8662 147.037 92.2997 147.037 92.7965V93.2414H142.105V92.2376H145.512C145.512 92.0044 145.461 91.7978 145.36 91.6178C145.258 91.4378 145.118 91.2971 144.938 91.1957C144.76 91.0918 144.554 91.0398 144.318 91.0398C144.072 91.0398 143.854 91.0969 143.664 91.211C143.476 91.3225 143.329 91.4733 143.223 91.6634C143.117 91.851 143.062 92.0601 143.059 92.2908V93.2452C143.059 93.5341 143.113 93.7838 143.219 93.9942C143.328 94.2046 143.482 94.3668 143.679 94.4809C143.877 94.595 144.111 94.652 144.383 94.652C144.563 94.652 144.727 94.6267 144.877 94.576C145.027 94.5253 145.155 94.4492 145.261 94.3478C145.367 94.2464 145.449 94.1222 145.504 93.9752L147.002 94.0741C146.926 94.434 146.771 94.7483 146.535 95.017C146.302 95.2832 146 95.4911 145.63 95.6406C145.262 95.7876 144.838 95.8611 144.356 95.8611ZM149.204 95.7471L147.615 89.9068H149.253L150.158 93.8307H150.212L151.155 89.9068H152.763L153.721 93.8079H153.771L154.66 89.9068H156.295L154.71 95.7471H152.995L151.991 92.0741H151.919L150.915 95.7471H149.204ZM164.497 91.5722L163.014 91.6634C162.989 91.5367 162.934 91.4226 162.85 91.3212C162.767 91.2173 162.656 91.1349 162.52 91.0741C162.385 91.0107 162.224 90.979 162.037 90.979C161.786 90.979 161.574 91.0322 161.402 91.1387C161.229 91.2426 161.143 91.3821 161.143 91.557C161.143 91.6964 161.199 91.8142 161.31 91.9106C161.422 92.0069 161.613 92.0842 161.885 92.1425L162.942 92.3554C163.509 92.472 163.933 92.6596 164.212 92.9182C164.49 93.1767 164.63 93.5164 164.63 93.9372C164.63 94.3199 164.517 94.6558 164.291 94.9448C164.068 95.2338 163.762 95.4594 163.371 95.6216C162.983 95.7813 162.536 95.8611 162.029 95.8611C161.256 95.8611 160.64 95.7002 160.181 95.3782C159.725 95.0538 159.457 94.6127 159.379 94.0551L160.972 93.9714C161.02 94.2071 161.137 94.3871 161.322 94.5113C161.507 94.633 161.744 94.6938 162.033 94.6938C162.317 94.6938 162.545 94.6393 162.717 94.5303C162.892 94.4188 162.981 94.2756 162.983 94.1007C162.981 93.9537 162.919 93.8333 162.797 93.7395C162.675 93.6431 162.488 93.5696 162.234 93.5189L161.223 93.3174C160.653 93.2033 160.228 93.0056 159.949 92.7243C159.673 92.4429 159.535 92.0842 159.535 91.6482C159.535 91.2731 159.636 90.9499 159.839 90.6786C160.044 90.4074 160.332 90.1983 160.702 90.0513C161.075 89.9042 161.511 89.8307 162.01 89.8307C162.748 89.8307 163.328 89.9866 163.752 90.2984C164.177 90.6102 164.426 91.0348 164.497 91.5722ZM168.311 95.8611C167.711 95.8611 167.194 95.7395 166.76 95.4961C166.329 95.2502 165.997 94.903 165.764 94.4543C165.531 94.0031 165.414 93.4695 165.414 92.8535C165.414 92.2528 165.531 91.7255 165.764 91.2718C165.997 90.818 166.325 90.4644 166.749 90.211C167.175 89.9575 167.674 89.8307 168.247 89.8307C168.632 89.8307 168.991 89.8928 169.323 90.017C169.657 90.1387 169.949 90.3225 170.197 90.5684C170.448 90.8142 170.643 91.1235 170.783 91.4961C170.922 91.8662 170.992 92.2997 170.992 92.7965V93.2414H166.06V92.2376H169.467C169.467 92.0044 169.417 91.7978 169.315 91.6178C169.214 91.4378 169.073 91.2971 168.893 91.1957C168.716 91.0918 168.509 91.0398 168.273 91.0398C168.027 91.0398 167.809 91.0969 167.619 91.211C167.432 91.3225 167.285 91.4733 167.178 91.6634C167.072 91.851 167.017 92.0601 167.015 92.2908V93.2452C167.015 93.5341 167.068 93.7838 167.175 93.9942C167.283 94.2046 167.437 94.3668 167.635 94.4809C167.832 94.595 168.067 94.652 168.338 94.652C168.518 94.652 168.683 94.6267 168.832 94.576C168.982 94.5253 169.11 94.4492 169.216 94.3478C169.323 94.2464 169.404 94.1222 169.46 93.9752L170.958 94.0741C170.882 94.434 170.726 94.7483 170.49 95.017C170.257 95.2832 169.955 95.4911 169.585 95.6406C169.218 95.7876 168.793 95.8611 168.311 95.8611ZM176.908 91.5722L175.425 91.6634C175.4 91.5367 175.346 91.4226 175.262 91.3212C175.178 91.2173 175.068 91.1349 174.931 91.0741C174.797 91.0107 174.636 90.979 174.448 90.979C174.197 90.979 173.986 91.0322 173.813 91.1387C173.641 91.2426 173.555 91.3821 173.555 91.557C173.555 91.6964 173.61 91.8142 173.722 91.9106C173.834 92.0069 174.025 92.0842 174.296 92.1425L175.353 92.3554C175.921 92.472 176.344 92.6596 176.623 92.9182C176.902 93.1767 177.041 93.5164 177.041 93.9372C177.041 94.3199 176.929 94.6558 176.703 94.9448C176.48 95.2338 176.173 95.4594 175.783 95.6216C175.395 95.7813 174.948 95.8611 174.441 95.8611C173.668 95.8611 173.052 95.7002 172.593 95.3782C172.136 95.0538 171.869 94.6127 171.79 94.0551L173.384 93.9714C173.432 94.2071 173.548 94.3871 173.733 94.5113C173.918 94.633 174.155 94.6938 174.444 94.6938C174.728 94.6938 174.956 94.6393 175.129 94.5303C175.304 94.4188 175.392 94.2756 175.395 94.1007C175.392 93.9537 175.33 93.8333 175.209 93.7395C175.087 93.6431 174.899 93.5696 174.646 93.5189L173.635 93.3174C173.064 93.2033 172.64 93.0056 172.361 92.7243C172.085 92.4429 171.946 92.0842 171.946 91.6482C171.946 91.2731 172.048 90.9499 172.251 90.6786C172.456 90.4074 172.744 90.1983 173.114 90.0513C173.486 89.9042 173.922 89.8307 174.422 89.8307C175.159 89.8307 175.74 89.9866 176.163 90.2984C176.589 90.6102 176.837 91.0348 176.908 91.5722ZM182.921 91.5722L181.438 91.6634C181.412 91.5367 181.358 91.4226 181.274 91.3212C181.191 91.2173 181.08 91.1349 180.944 91.0741C180.809 91.0107 180.648 90.979 180.461 90.979C180.21 90.979 179.998 91.0322 179.826 91.1387C179.653 91.2426 179.567 91.3821 179.567 91.557C179.567 91.6964 179.623 91.8142 179.734 91.9106C179.846 92.0069 180.037 92.0842 180.309 92.1425L181.366 92.3554C181.933 92.472 182.357 92.6596 182.636 92.9182C182.914 93.1767 183.054 93.5164 183.054 93.9372C183.054 94.3199 182.941 94.6558 182.715 94.9448C182.492 95.2338 182.186 95.4594 181.795 95.6216C181.407 95.7813 180.96 95.8611 180.453 95.8611C179.68 95.8611 179.064 95.7002 178.605 95.3782C178.149 95.0538 177.881 94.6127 177.803 94.0551L179.396 93.9714C179.444 94.2071 179.561 94.3871 179.746 94.5113C179.931 94.633 180.168 94.6938 180.457 94.6938C180.741 94.6938 180.969 94.6393 181.141 94.5303C181.316 94.4188 181.405 94.2756 181.407 94.1007C181.405 93.9537 181.343 93.8333 181.221 93.7395C181.099 93.6431 180.912 93.5696 180.658 93.5189L179.647 93.3174C179.077 93.2033 178.652 93.0056 178.373 92.7243C178.097 92.4429 177.959 92.0842 177.959 91.6482C177.959 91.2731 178.06 90.9499 178.263 90.6786C178.468 90.4074 178.756 90.1983 179.126 90.0513C179.499 89.9042 179.935 89.8307 180.434 89.8307C181.172 89.8307 181.752 89.9866 182.175 90.2984C182.601 90.6102 182.85 91.0348 182.921 91.5722ZM184.074 95.7471V89.9068H185.693V95.7471H184.074ZM184.887 89.1539C184.647 89.1539 184.44 89.0741 184.268 88.9144C184.098 88.7521 184.013 88.5582 184.013 88.3326C184.013 88.1096 184.098 87.9182 184.268 87.7585C184.44 87.5963 184.647 87.5151 184.887 87.5151C185.128 87.5151 185.334 87.5963 185.503 87.7585C185.676 87.9182 185.762 88.1096 185.762 88.3326C185.762 88.5582 185.676 88.7521 185.503 88.9144C185.334 89.0741 185.128 89.1539 184.887 89.1539ZM189.63 95.8611C189.039 95.8611 188.528 95.7357 188.097 95.4847C187.669 95.2312 187.338 94.8789 187.105 94.4277C186.872 93.9739 186.755 93.448 186.755 92.8497C186.755 92.2464 186.872 91.7192 187.105 91.268C187.338 90.8142 187.669 90.4619 188.097 90.211C188.528 89.9575 189.039 89.8307 189.63 89.8307C190.22 89.8307 190.73 89.9575 191.158 90.211C191.589 90.4619 191.921 90.8142 192.155 91.268C192.388 91.7192 192.504 92.2464 192.504 92.8497C192.504 93.448 192.388 93.9739 192.155 94.4277C191.921 94.8789 191.589 95.2312 191.158 95.4847C190.73 95.7357 190.22 95.8611 189.63 95.8611ZM189.637 94.6064C189.906 94.6064 190.13 94.5303 190.31 94.3782C190.49 94.2236 190.626 94.0132 190.717 93.7471C190.811 93.4809 190.858 93.178 190.858 92.8383C190.858 92.4987 190.811 92.1957 190.717 91.9296C190.626 91.6634 190.49 91.453 190.31 91.2984C190.13 91.1438 189.906 91.0665 189.637 91.0665C189.366 91.0665 189.138 91.1438 188.953 91.2984C188.77 91.453 188.632 91.6634 188.539 91.9296C188.447 92.1957 188.402 92.4987 188.402 92.8383C188.402 93.178 188.447 93.4809 188.539 93.7471C188.632 94.0132 188.77 94.2236 188.953 94.3782C189.138 94.5303 189.366 94.6064 189.637 94.6064ZM195.177 92.3706V95.7471H193.558V89.9068H195.101V90.9372H195.17C195.299 90.5975 195.516 90.3288 195.82 90.1311C196.124 89.9309 196.493 89.8307 196.926 89.8307C197.332 89.8307 197.686 89.9194 197.987 90.0969C198.289 90.2743 198.523 90.5278 198.691 90.8573C198.858 91.1843 198.942 91.5747 198.942 92.0284V95.7471H197.322V92.3174C197.324 91.96 197.233 91.6812 197.048 91.4809C196.863 91.2781 196.608 91.1767 196.284 91.1767C196.066 91.1767 195.873 91.2236 195.706 91.3174C195.541 91.4112 195.412 91.5481 195.318 91.7281C195.227 91.9055 195.18 92.1197 195.177 92.3706Z" fill="#94368D"/>
<path d="M99.8506 88.4961V95.9911" stroke="#94368D" stroke-width="1.07072" stroke-linecap="round" stroke-linejoin="round"/>
<path d="M96.1025 92.2441H103.598" stroke="#94368D" stroke-width="1.07072" stroke-linecap="round" stroke-linejoin="round"/>
</g>
<g clip-path="url(#clip1_2291_49898)">
<rect x="26.4511" y="18.4706" width="241.023" height="46.4053" rx="14.6792" fill="white" stroke="#F5F5F5" stroke-width="0.947046"/>
<path d="M97.3448 32.3001C97.3045 31.9593 97.1408 31.6948 96.8538 31.5064C96.5669 31.3181 96.2148 31.2239 95.7978 31.2239C95.4929 31.2239 95.2261 31.2733 94.9974 31.3719C94.771 31.4706 94.5938 31.6062 94.466 31.7788C94.3405 31.9515 94.2777 32.1477 94.2777 32.3674C94.2777 32.5512 94.3214 32.7093 94.4089 32.8416C94.4986 32.9716 94.6129 33.0804 94.7519 33.1678C94.8909 33.253 95.0366 33.3236 95.1891 33.3797C95.3416 33.4335 95.4817 33.4772 95.6095 33.5108L96.309 33.6992C96.4884 33.7462 96.6879 33.8113 96.9076 33.8942C97.1296 33.9772 97.3415 34.0904 97.5433 34.2339C97.7473 34.3751 97.9155 34.5567 98.0477 34.7787C98.18 35.0007 98.2462 35.2731 98.2462 35.5959C98.2462 35.9681 98.1486 36.3044 97.9536 36.6049C97.7608 36.9053 97.4783 37.1441 97.1061 37.3212C96.7361 37.4983 96.2866 37.5869 95.7575 37.5869C95.2642 37.5869 94.8371 37.5073 94.4761 37.3481C94.1174 37.1889 93.8349 36.967 93.6286 36.6822C93.4246 36.3975 93.3091 36.0668 93.2822 35.6901H94.1432C94.1656 35.9502 94.253 36.1654 94.4055 36.3358C94.5602 36.504 94.7553 36.6295 94.9907 36.7125C95.2283 36.7932 95.4839 36.8336 95.7575 36.8336C96.0758 36.8336 96.3617 36.782 96.6151 36.6789C96.8684 36.5735 97.0691 36.4277 97.2171 36.2417C97.365 36.0533 97.439 35.8336 97.439 35.5825C97.439 35.3538 97.3751 35.1677 97.2473 35.0242C97.1195 34.8807 96.9514 34.7641 96.7429 34.6745C96.5343 34.5848 96.309 34.5063 96.0669 34.439L95.2194 34.1969C94.6813 34.0422 94.2553 33.8214 93.9414 33.5344C93.6275 33.2474 93.4706 32.8718 93.4706 32.4077C93.4706 32.0221 93.5748 31.6858 93.7833 31.3988C93.9941 31.1096 94.2766 30.8854 94.6308 30.7262C94.9873 30.5648 95.3853 30.484 95.8247 30.484C96.2687 30.484 96.6633 30.5636 97.0085 30.7228C97.3538 30.8798 97.6273 31.095 97.8291 31.3685C98.0332 31.6421 98.1408 31.9526 98.152 32.3001H97.3448ZM101.676 37.5734C101.178 37.5734 100.749 37.4636 100.388 37.2439C100.029 37.0219 99.752 36.7125 99.5569 36.3156C99.3641 35.9166 99.2677 35.4525 99.2677 34.9233C99.2677 34.3942 99.3641 33.9278 99.5569 33.5243C99.752 33.1185 100.023 32.8023 100.371 32.5759C100.721 32.3472 101.129 32.2329 101.595 32.2329C101.864 32.2329 102.13 32.2777 102.392 32.3674C102.654 32.4571 102.893 32.6028 103.108 32.8046C103.324 33.0041 103.495 33.2687 103.623 33.5983C103.751 33.9278 103.815 34.3337 103.815 34.8157V35.152H99.8327V34.4659H103.007C103.007 34.1745 102.949 33.9144 102.833 33.6857C102.718 33.457 102.555 33.2765 102.342 33.1442C102.131 33.012 101.882 32.9458 101.595 32.9458C101.279 32.9458 101.005 33.0243 100.774 33.1812C100.546 33.3359 100.37 33.5377 100.246 33.7866C100.123 34.0355 100.061 34.3023 100.061 34.587V35.0444C100.061 35.4345 100.129 35.7652 100.263 36.0365C100.4 36.3056 100.589 36.5107 100.832 36.652C101.074 36.791 101.355 36.8605 101.676 36.8605C101.884 36.8605 102.073 36.8313 102.241 36.773C102.411 36.7125 102.558 36.6228 102.681 36.504C102.805 36.3829 102.9 36.2327 102.967 36.0533L103.734 36.2686C103.653 36.5286 103.518 36.7573 103.327 36.9546C103.136 37.1497 102.901 37.3021 102.621 37.412C102.34 37.5196 102.025 37.5734 101.676 37.5734ZM108.681 33.457L107.968 33.6588C107.923 33.54 107.857 33.4245 107.77 33.3124C107.684 33.1981 107.568 33.1039 107.42 33.0299C107.272 32.9559 107.082 32.9189 106.851 32.9189C106.535 32.9189 106.272 32.9918 106.061 33.1375C105.853 33.281 105.748 33.4637 105.748 33.6857C105.748 33.883 105.82 34.0388 105.964 34.1532C106.107 34.2675 106.331 34.3628 106.636 34.439L107.403 34.6274C107.865 34.7395 108.209 34.911 108.435 35.1419C108.662 35.3706 108.775 35.6654 108.775 36.0264C108.775 36.3224 108.69 36.5869 108.52 36.8201C108.351 37.0533 108.116 37.2371 107.813 37.3717C107.511 37.5062 107.159 37.5734 106.757 37.5734C106.23 37.5734 105.794 37.4591 105.449 37.2304C105.104 37.0017 104.885 36.6676 104.793 36.2282L105.547 36.0399C105.618 36.3179 105.754 36.5264 105.954 36.6654C106.155 36.8044 106.419 36.8739 106.744 36.8739C107.114 36.8739 107.407 36.7954 107.625 36.6385C107.845 36.4793 107.955 36.2887 107.955 36.0668C107.955 35.8874 107.892 35.7372 107.766 35.6161C107.641 35.4928 107.448 35.4009 107.188 35.3403L106.327 35.1386C105.854 35.0265 105.506 34.8527 105.284 34.6173C105.065 34.3796 104.955 34.0826 104.955 33.7261C104.955 33.4346 105.037 33.1768 105.2 32.9526C105.366 32.7283 105.591 32.5523 105.876 32.4245C106.163 32.2968 106.488 32.2329 106.851 32.2329C107.363 32.2329 107.764 32.345 108.055 32.5692C108.349 32.7934 108.558 33.0893 108.681 33.457ZM113.629 33.457L112.916 33.6588C112.871 33.54 112.805 33.4245 112.718 33.3124C112.632 33.1981 112.516 33.1039 112.368 33.0299C112.22 32.9559 112.03 32.9189 111.799 32.9189C111.483 32.9189 111.22 32.9918 111.009 33.1375C110.801 33.281 110.696 33.4637 110.696 33.6857C110.696 33.883 110.768 34.0388 110.912 34.1532C111.055 34.2675 111.279 34.3628 111.584 34.439L112.351 34.6274C112.813 34.7395 113.157 34.911 113.383 35.1419C113.61 35.3706 113.723 35.6654 113.723 36.0264C113.723 36.3224 113.638 36.5869 113.468 36.8201C113.299 37.0533 113.064 37.2371 112.761 37.3717C112.459 37.5062 112.107 37.5734 111.705 37.5734C111.178 37.5734 110.742 37.4591 110.397 37.2304C110.052 37.0017 109.833 36.6676 109.741 36.2282L110.495 36.0399C110.566 36.3179 110.702 36.5264 110.901 36.6654C111.103 36.8044 111.367 36.8739 111.692 36.8739C112.062 36.8739 112.355 36.7954 112.573 36.6385C112.793 36.4793 112.903 36.2887 112.903 36.0668C112.903 35.8874 112.84 35.7372 112.714 35.6161C112.589 35.4928 112.396 35.4009 112.136 35.3403L111.275 35.1386C110.802 35.0265 110.454 34.8527 110.232 34.6173C110.012 34.3796 109.903 34.0826 109.903 33.7261C109.903 33.4346 109.984 33.1768 110.148 32.9526C110.314 32.7283 110.539 32.5523 110.824 32.4245C111.111 32.2968 111.436 32.2329 111.799 32.2329C112.311 32.2329 112.712 32.345 113.003 32.5692C113.297 32.7934 113.506 33.0893 113.629 33.457ZM114.918 37.4658V32.3001H115.712V37.4658H114.918ZM115.321 31.4392C115.167 31.4392 115.033 31.3865 114.921 31.2811C114.811 31.1757 114.756 31.049 114.756 30.9011C114.756 30.7531 114.811 30.6264 114.921 30.521C115.033 30.4157 115.167 30.363 115.321 30.363C115.476 30.363 115.608 30.4157 115.718 30.521C115.83 30.6264 115.886 30.7531 115.886 30.9011C115.886 31.049 115.83 31.1757 115.718 31.2811C115.608 31.3865 115.476 31.4392 115.321 31.4392ZM119.264 37.5734C118.797 37.5734 118.388 37.4625 118.036 37.2405C117.686 37.0185 117.413 36.708 117.216 36.3089C117.021 35.9098 116.923 35.4435 116.923 34.9099C116.923 34.3718 117.021 33.9021 117.216 33.5007C117.413 33.0994 117.686 32.7878 118.036 32.5658C118.388 32.3438 118.797 32.2329 119.264 32.2329C119.73 32.2329 120.138 32.3438 120.488 32.5658C120.84 32.7878 121.113 33.0994 121.309 33.5007C121.506 33.9021 121.604 34.3718 121.604 34.9099C121.604 35.4435 121.506 35.9098 121.309 36.3089C121.113 36.708 120.84 37.0185 120.488 37.2405C120.138 37.4625 119.73 37.5734 119.264 37.5734ZM119.264 36.8605C119.618 36.8605 119.91 36.7697 120.138 36.5881C120.367 36.4064 120.536 36.1677 120.646 35.8717C120.756 35.5758 120.811 35.2551 120.811 34.9099C120.811 34.5646 120.756 34.2429 120.646 33.9447C120.536 33.6465 120.367 33.4054 120.138 33.2216C119.91 33.0378 119.618 32.9458 119.264 32.9458C118.91 32.9458 118.618 33.0378 118.389 33.2216C118.161 33.4054 117.991 33.6465 117.882 33.9447C117.772 34.2429 117.717 34.5646 117.717 34.9099C117.717 35.2551 117.772 35.5758 117.882 35.8717C117.991 36.1677 118.161 36.4064 118.389 36.5881C118.618 36.7697 118.91 36.8605 119.264 36.8605ZM123.61 34.3583V37.4658H122.816V32.3001H123.583V33.1073H123.65C123.771 32.8449 123.955 32.6342 124.202 32.475C124.448 32.3136 124.767 32.2329 125.157 32.2329C125.507 32.2329 125.813 32.3046 126.075 32.4481C126.337 32.5893 126.541 32.8046 126.687 33.0938C126.833 33.3808 126.906 33.744 126.906 34.1834V37.4658H126.112V34.2373C126.112 33.8314 126.007 33.5153 125.796 33.2889C125.585 33.0602 125.296 32.9458 124.928 32.9458C124.675 32.9458 124.448 33.0008 124.249 33.1106C124.051 33.2205 123.896 33.3808 123.781 33.5915C123.667 33.8023 123.61 34.0579 123.61 34.3583ZM133.427 30.5782V37.4658H132.593V31.4526H132.553L130.871 32.5692V31.7217L132.593 30.5782H133.427Z" fill="#292929"/>
<path d="M93.4114 52.5146V47.0046H95.2732C95.7055 47.0046 96.0588 47.0826 96.3332 47.2386C96.6095 47.3929 96.8139 47.6018 96.9467 47.8655C97.0794 48.1292 97.1458 48.4233 97.1458 48.748C97.1458 49.0726 97.0794 49.3677 96.9467 49.6332C96.8157 49.8986 96.613 50.1103 96.3386 50.2681C96.0642 50.4242 95.7126 50.5022 95.2839 50.5022H93.9495V49.9103H95.2624C95.5584 49.9103 95.796 49.8592 95.9754 49.7569C96.1548 49.6547 96.2848 49.5166 96.3655 49.3426C96.448 49.1668 96.4893 48.9686 96.4893 48.748C96.4893 48.5274 96.448 48.3301 96.3655 48.1561C96.2848 47.9821 96.1539 47.8458 95.9727 47.7471C95.7915 47.6467 95.5512 47.5965 95.2517 47.5965H94.0786V52.5146H93.4114ZM98.7695 47.0046V52.5146H98.1345V47.0046H98.7695ZM101.149 52.6115C100.887 52.6115 100.649 52.5622 100.436 52.4635C100.222 52.3631 100.053 52.2187 99.927 52.0304C99.8015 51.8402 99.7387 51.6106 99.7387 51.3416C99.7387 51.1048 99.7853 50.9129 99.8786 50.7658C99.9719 50.617 100.097 50.5004 100.253 50.4161C100.409 50.3318 100.581 50.269 100.769 50.2277C100.959 50.1847 101.15 50.1506 101.342 50.1255C101.593 50.0932 101.797 50.069 101.953 50.0529C102.111 50.0349 102.226 50.0053 102.297 49.9641C102.371 49.9228 102.408 49.8511 102.408 49.7488V49.7273C102.408 49.4619 102.335 49.2556 102.19 49.1085C102.046 48.9614 101.828 48.8879 101.536 48.8879C101.233 48.8879 100.995 48.9543 100.823 49.087C100.651 49.2197 100.53 49.3614 100.46 49.5121L99.8571 49.2968C99.9647 49.0457 100.108 48.8502 100.288 48.7103C100.469 48.5686 100.666 48.47 100.879 48.4144C101.095 48.357 101.306 48.3283 101.514 48.3283C101.647 48.3283 101.8 48.3444 101.972 48.3767C102.146 48.4072 102.313 48.4709 102.475 48.5677C102.638 48.6646 102.774 48.8108 102.881 49.0063C102.989 49.2018 103.043 49.4637 103.043 49.7919V52.5146H102.408V51.955H102.375C102.332 52.0447 102.261 52.1407 102.16 52.2429C102.06 52.3451 101.926 52.4321 101.759 52.5039C101.592 52.5756 101.389 52.6115 101.149 52.6115ZM101.245 52.0411C101.496 52.0411 101.708 51.9918 101.88 51.8931C102.054 51.7945 102.185 51.6671 102.273 51.5111C102.363 51.3551 102.408 51.1909 102.408 51.0187V50.4376C102.381 50.4699 102.322 50.4995 102.23 50.5264C102.14 50.5515 102.036 50.5739 101.918 50.5937C101.801 50.6116 101.687 50.6277 101.576 50.6421C101.467 50.6546 101.378 50.6654 101.31 50.6744C101.145 50.6959 100.991 50.7309 100.847 50.7793C100.705 50.8259 100.591 50.8968 100.503 50.9918C100.417 51.0851 100.374 51.2125 100.374 51.3739C100.374 51.5945 100.455 51.7613 100.618 51.8743C100.783 51.9855 100.992 52.0411 101.245 52.0411ZM105.999 48.3821V48.9202H103.857V48.3821H105.999ZM104.481 47.392H105.116V51.3308C105.116 51.5102 105.142 51.6447 105.194 51.7344C105.248 51.8223 105.316 51.8815 105.399 51.912C105.483 51.9407 105.572 51.955 105.665 51.955C105.735 51.955 105.792 51.9514 105.837 51.9443C105.882 51.9353 105.918 51.9281 105.945 51.9227L106.074 52.4931C106.031 52.5093 105.971 52.5254 105.894 52.5416C105.817 52.5595 105.719 52.5685 105.601 52.5685C105.421 52.5685 105.245 52.5299 105.073 52.4528C104.903 52.3756 104.761 52.2582 104.648 52.1003C104.537 51.9425 104.481 51.7434 104.481 51.503V47.392ZM108.794 48.3821V48.9202H106.566V48.3821H108.794ZM107.234 52.5146V47.8117C107.234 47.5749 107.289 47.3776 107.4 47.2198C107.512 47.062 107.656 46.9436 107.834 46.8647C108.011 46.7857 108.199 46.7463 108.396 46.7463C108.552 46.7463 108.679 46.7588 108.778 46.7839C108.877 46.8091 108.95 46.8324 108.999 46.8539L108.816 47.4028C108.783 47.392 108.739 47.3785 108.681 47.3624C108.626 47.3463 108.552 47.3382 108.461 47.3382C108.251 47.3382 108.099 47.3911 108.006 47.4969C107.914 47.6027 107.869 47.7579 107.869 47.9624V52.5146H107.234ZM111.193 52.6007C110.82 52.6007 110.492 52.512 110.211 52.3344C109.931 52.1568 109.712 51.9084 109.554 51.5891C109.398 51.2699 109.32 50.8968 109.32 50.4699C109.32 50.0394 109.398 49.6636 109.554 49.3426C109.712 49.0215 109.931 48.7722 110.211 48.5946C110.492 48.4171 110.82 48.3283 111.193 48.3283C111.566 48.3283 111.892 48.4171 112.172 48.5946C112.454 48.7722 112.672 49.0215 112.829 49.3426C112.986 49.6636 113.065 50.0394 113.065 50.4699C113.065 50.8968 112.986 51.2699 112.829 51.5891C112.672 51.9084 112.454 52.1568 112.172 52.3344C111.892 52.512 111.566 52.6007 111.193 52.6007ZM111.193 52.0304C111.476 52.0304 111.709 51.9577 111.892 51.8124C112.075 51.6671 112.211 51.4761 112.298 51.2394C112.386 51.0026 112.43 50.7461 112.43 50.4699C112.43 50.1937 112.386 49.9363 112.298 49.6977C112.211 49.4592 112.075 49.2664 111.892 49.1193C111.709 48.9722 111.476 48.8987 111.193 48.8987C110.909 48.8987 110.676 48.9722 110.493 49.1193C110.31 49.2664 110.175 49.4592 110.087 49.6977C109.999 49.9363 109.955 50.1937 109.955 50.4699C109.955 50.7461 109.999 51.0026 110.087 51.2394C110.175 51.4761 110.31 51.6671 110.493 51.8124C110.676 51.9577 110.909 52.0304 111.193 52.0304ZM114.035 52.5146V48.3821H114.648V49.0063H114.691C114.766 48.8018 114.903 48.6359 115.1 48.5085C115.297 48.3812 115.52 48.3175 115.767 48.3175C115.814 48.3175 115.872 48.3184 115.942 48.3202C116.012 48.322 116.065 48.3247 116.101 48.3283V48.974C116.079 48.9686 116.03 48.9605 115.953 48.9498C115.877 48.9372 115.798 48.9309 115.713 48.9309C115.512 48.9309 115.333 48.9731 115.175 49.0574C115.019 49.1399 114.895 49.2547 114.804 49.4018C114.714 49.5471 114.669 49.713 114.669 49.8995V52.5146H114.035ZM116.853 52.5146V48.3821H117.467V49.0278H117.521C117.607 48.8072 117.746 48.6359 117.938 48.5139C118.13 48.3902 118.36 48.3283 118.629 48.3283C118.902 48.3283 119.129 48.3902 119.31 48.5139C119.493 48.6359 119.635 48.8072 119.738 49.0278H119.781C119.887 48.8144 120.045 48.6449 120.257 48.5193C120.469 48.3919 120.722 48.3283 121.018 48.3283C121.388 48.3283 121.69 48.444 121.925 48.6753C122.16 48.9049 122.277 49.2628 122.277 49.7488V52.5146H121.642V49.7488C121.642 49.4439 121.559 49.226 121.392 49.0951C121.225 48.9641 121.029 48.8987 120.803 48.8987C120.512 48.8987 120.287 48.9865 120.128 49.1623C119.968 49.3363 119.888 49.5569 119.888 49.8242V52.5146H119.243V49.6843C119.243 49.4493 119.166 49.2601 119.014 49.1166C118.861 48.9713 118.665 48.8987 118.425 48.8987C118.26 48.8987 118.105 48.9426 117.962 49.0305C117.82 49.1184 117.705 49.2403 117.618 49.3964C117.531 49.5506 117.488 49.7291 117.488 49.9318V52.5146H116.853ZM127.41 48.3821V48.9202H125.182V48.3821H127.41ZM125.849 52.5146V47.8117C125.849 47.5749 125.905 47.3776 126.016 47.2198C126.127 47.062 126.271 46.9436 126.449 46.8647C126.627 46.7857 126.814 46.7463 127.011 46.7463C127.167 46.7463 127.295 46.7588 127.393 46.7839C127.492 46.8091 127.566 46.8324 127.614 46.8539L127.431 47.4028C127.399 47.392 127.354 47.3785 127.297 47.3624C127.241 47.3463 127.167 47.3382 127.076 47.3382C126.866 47.3382 126.714 47.3911 126.621 47.4969C126.53 47.6027 126.484 47.7579 126.484 47.9624V52.5146H125.849ZM129.862 52.6007C129.464 52.6007 129.12 52.5129 128.831 52.3371C128.544 52.1595 128.323 51.912 128.167 51.5945C128.013 51.2752 127.936 50.904 127.936 50.4807C127.936 50.0574 128.013 49.6843 128.167 49.3614C128.323 49.0368 128.54 48.7839 128.818 48.6027C129.098 48.4198 129.424 48.3283 129.797 48.3283C130.013 48.3283 130.225 48.3641 130.435 48.4359C130.645 48.5076 130.836 48.6242 131.008 48.7857C131.18 48.9453 131.317 49.1569 131.42 49.4206C131.522 49.6843 131.573 50.0089 131.573 50.3946V50.6636H128.388V50.1147H130.927C130.927 49.8816 130.881 49.6735 130.787 49.4906C130.696 49.3076 130.565 49.1632 130.395 49.0574C130.226 48.9516 130.027 48.8987 129.797 48.8987C129.544 48.8987 129.326 48.9614 129.141 49.087C128.958 49.2107 128.817 49.3722 128.718 49.5713C128.62 49.7704 128.57 49.9838 128.57 50.2116V50.5775C128.57 50.8896 128.624 51.1542 128.732 51.3712C128.841 51.5864 128.993 51.7506 129.187 51.8636C129.38 51.9748 129.605 52.0304 129.862 52.0304C130.029 52.0304 130.179 52.007 130.314 51.9604C130.45 51.912 130.568 51.8402 130.666 51.7452C130.765 51.6483 130.841 51.5281 130.895 51.3847L131.508 51.5568C131.444 51.7649 131.335 51.9479 131.183 52.1057C131.03 52.2617 130.842 52.3837 130.618 52.4716C130.394 52.5577 130.142 52.6007 129.862 52.6007ZM133.755 52.6115C133.493 52.6115 133.255 52.5622 133.042 52.4635C132.829 52.3631 132.659 52.2187 132.534 52.0304C132.408 51.8402 132.345 51.6106 132.345 51.3416C132.345 51.1048 132.392 50.9129 132.485 50.7658C132.578 50.617 132.703 50.5004 132.859 50.4161C133.015 50.3318 133.187 50.269 133.376 50.2277C133.566 50.1847 133.757 50.1506 133.949 50.1255C134.2 50.0932 134.403 50.069 134.559 50.0529C134.717 50.0349 134.832 50.0053 134.904 49.9641C134.977 49.9228 135.014 49.8511 135.014 49.7488V49.7273C135.014 49.4619 134.942 49.2556 134.796 49.1085C134.653 48.9614 134.435 48.8879 134.142 48.8879C133.839 48.8879 133.602 48.9543 133.429 49.087C133.257 49.2197 133.136 49.3614 133.066 49.5121L132.464 49.2968C132.571 49.0457 132.715 48.8502 132.894 48.7103C133.075 48.5686 133.273 48.47 133.486 48.4144C133.701 48.357 133.913 48.3283 134.121 48.3283C134.254 48.3283 134.406 48.3444 134.578 48.3767C134.752 48.4072 134.92 48.4709 135.081 48.5677C135.245 48.6646 135.38 48.8108 135.488 49.0063C135.595 49.2018 135.649 49.4637 135.649 49.7919V52.5146H135.014V51.955H134.982C134.939 52.0447 134.867 52.1407 134.767 52.2429C134.666 52.3451 134.533 52.4321 134.366 52.5039C134.199 52.5756 133.995 52.6115 133.755 52.6115ZM133.852 52.0411C134.103 52.0411 134.315 51.9918 134.487 51.8931C134.661 51.7945 134.792 51.6671 134.88 51.5111C134.969 51.3551 135.014 51.1909 135.014 51.0187V50.4376C134.987 50.4699 134.928 50.4995 134.837 50.5264C134.747 50.5515 134.643 50.5739 134.524 50.5937C134.408 50.6116 134.294 50.6277 134.183 50.6421C134.073 50.6546 133.985 50.6654 133.916 50.6744C133.751 50.6959 133.597 50.7309 133.454 50.7793C133.312 50.8259 133.197 50.8968 133.109 50.9918C133.023 51.0851 132.98 51.2125 132.98 51.3739C132.98 51.5945 133.062 51.7613 133.225 51.8743C133.39 51.9855 133.599 52.0411 133.852 52.0411ZM138.605 48.3821V48.9202H136.464V48.3821H138.605ZM137.088 47.392H137.723V51.3308C137.723 51.5102 137.749 51.6447 137.801 51.7344C137.855 51.8223 137.923 51.8815 138.005 51.912C138.09 51.9407 138.178 51.955 138.272 51.955C138.342 51.955 138.399 51.9514 138.444 51.9443C138.489 51.9353 138.525 51.9281 138.551 51.9227L138.681 52.4931C138.638 52.5093 138.577 52.5254 138.5 52.5416C138.423 52.5595 138.325 52.5685 138.207 52.5685C138.028 52.5685 137.852 52.5299 137.68 52.4528C137.509 52.3756 137.368 52.2582 137.255 52.1003C137.143 51.9425 137.088 51.7434 137.088 51.503V47.392ZM142.165 50.825V48.3821H142.8V52.5146H142.165V51.8151H142.122C142.025 52.025 141.874 52.2035 141.67 52.3505C141.465 52.4958 141.207 52.5685 140.895 52.5685C140.637 52.5685 140.407 52.512 140.206 52.399C140.005 52.2842 139.847 52.112 139.733 51.8824C139.618 51.651 139.56 51.3595 139.56 51.008V48.3821H140.195V50.9649C140.195 51.2663 140.28 51.5066 140.448 51.686C140.619 51.8653 140.836 51.955 141.099 51.955C141.257 51.955 141.418 51.9147 141.581 51.834C141.746 51.7532 141.884 51.6295 141.995 51.4627C142.108 51.2959 142.165 51.0833 142.165 50.825ZM143.963 52.5146V48.3821H144.576V49.0063H144.619C144.694 48.8018 144.831 48.6359 145.028 48.5085C145.225 48.3812 145.448 48.3175 145.695 48.3175C145.742 48.3175 145.8 48.3184 145.87 48.3202C145.94 48.322 145.993 48.3247 146.029 48.3283V48.974C146.007 48.9686 145.958 48.9605 145.881 48.9498C145.806 48.9372 145.726 48.9309 145.642 48.9309C145.441 48.9309 145.261 48.9731 145.103 49.0574C144.947 49.1399 144.824 49.2547 144.732 49.4018C144.642 49.5471 144.598 49.713 144.598 49.8995V52.5146H143.963ZM148.388 52.6007C147.99 52.6007 147.647 52.5129 147.358 52.3371C147.071 52.1595 146.85 51.912 146.693 51.5945C146.539 51.2752 146.462 50.904 146.462 50.4807C146.462 50.0574 146.539 49.6843 146.693 49.3614C146.85 49.0368 147.067 48.7839 147.345 48.6027C147.624 48.4198 147.951 48.3283 148.324 48.3283C148.539 48.3283 148.752 48.3641 148.962 48.4359C149.171 48.5076 149.362 48.6242 149.535 48.7857C149.707 48.9453 149.844 49.1569 149.946 49.4206C150.048 49.6843 150.1 50.0089 150.1 50.3946V50.6636H146.914V50.1147H149.454C149.454 49.8816 149.407 49.6735 149.314 49.4906C149.223 49.3076 149.092 49.1632 148.921 49.0574C148.753 48.9516 148.553 48.8987 148.324 48.8987C148.071 48.8987 147.852 48.9614 147.667 49.087C147.484 49.2107 147.344 49.3722 147.245 49.5713C147.146 49.7704 147.097 49.9838 147.097 50.2116V50.5775C147.097 50.8896 147.151 51.1542 147.258 51.3712C147.368 51.5864 147.519 51.7506 147.713 51.8636C147.907 51.9748 148.132 52.0304 148.388 52.0304C148.555 52.0304 148.706 52.007 148.84 51.9604C148.977 51.912 149.094 51.8402 149.193 51.7452C149.292 51.6483 149.368 51.5281 149.422 51.3847L150.035 51.5568C149.97 51.7649 149.862 51.9479 149.71 52.1057C149.557 52.2617 149.369 52.3837 149.145 52.4716C148.92 52.5577 148.668 52.6007 148.388 52.6007ZM153.993 49.3076L153.422 49.469C153.386 49.374 153.334 49.2816 153.264 49.1919C153.195 49.1004 153.102 49.0251 152.984 48.9659C152.865 48.9067 152.714 48.8771 152.529 48.8771C152.276 48.8771 152.065 48.9354 151.897 49.052C151.73 49.1668 151.647 49.313 151.647 49.4906C151.647 49.6484 151.704 49.7731 151.819 49.8645C151.934 49.956 152.113 50.0322 152.357 50.0932L152.97 50.2439C153.34 50.3336 153.615 50.4708 153.796 50.6555C153.977 50.8385 154.068 51.0743 154.068 51.3631C154.068 51.5999 154 51.8115 153.864 51.9981C153.729 52.1846 153.541 52.3317 153.299 52.4393C153.056 52.5469 152.775 52.6007 152.454 52.6007C152.032 52.6007 151.683 52.5093 151.407 52.3263C151.131 52.1434 150.956 51.8761 150.883 51.5246L151.485 51.3739C151.543 51.5963 151.651 51.7631 151.811 51.8743C151.972 51.9855 152.183 52.0411 152.443 52.0411C152.739 52.0411 152.974 51.9783 153.148 51.8528C153.324 51.7254 153.412 51.573 153.412 51.3954C153.412 51.2519 153.361 51.1317 153.261 51.0349C153.16 50.9362 153.006 50.8627 152.798 50.8143L152.109 50.6528C151.731 50.5632 151.453 50.4242 151.275 50.2358C151.1 50.0457 151.012 49.808 151.012 49.5228C151.012 49.2897 151.077 49.0834 151.208 48.904C151.341 48.7247 151.521 48.5839 151.749 48.4816C151.978 48.3794 152.239 48.3283 152.529 48.3283C152.938 48.3283 153.259 48.418 153.492 48.5973C153.727 48.7767 153.894 49.0134 153.993 49.3076ZM158.371 52.6115C158.109 52.6115 157.871 52.5622 157.658 52.4635C157.444 52.3631 157.275 52.2187 157.149 52.0304C157.024 51.8402 156.961 51.6106 156.961 51.3416C156.961 51.1048 157.008 50.9129 157.101 50.7658C157.194 50.617 157.319 50.5004 157.475 50.4161C157.631 50.3318 157.803 50.269 157.991 50.2277C158.182 50.1847 158.373 50.1506 158.565 50.1255C158.816 50.0932 159.019 50.069 159.175 50.0529C159.333 50.0349 159.448 50.0053 159.52 49.9641C159.593 49.9228 159.63 49.8511 159.63 49.7488V49.7273C159.63 49.4619 159.557 49.2556 159.412 49.1085C159.269 48.9614 159.051 48.8879 158.758 48.8879C158.455 48.8879 158.217 48.9543 158.045 49.087C157.873 49.2197 157.752 49.3614 157.682 49.5121L157.079 49.2968C157.187 49.0457 157.33 48.8502 157.51 48.7103C157.691 48.5686 157.888 48.47 158.102 48.4144C158.317 48.357 158.529 48.3283 158.737 48.3283C158.869 48.3283 159.022 48.3444 159.194 48.3767C159.368 48.4072 159.536 48.4709 159.697 48.5677C159.86 48.6646 159.996 48.8108 160.103 49.0063C160.211 49.2018 160.265 49.4637 160.265 49.7919V52.5146H159.63V51.955H159.598C159.555 52.0447 159.483 52.1407 159.382 52.2429C159.282 52.3451 159.148 52.4321 158.982 52.5039C158.815 52.5756 158.611 52.6115 158.371 52.6115ZM158.468 52.0411C158.719 52.0411 158.93 51.9918 159.103 51.8931C159.277 51.7945 159.408 51.6671 159.495 51.5111C159.585 51.3551 159.63 51.1909 159.63 51.0187V50.4376C159.603 50.4699 159.544 50.4995 159.452 50.5264C159.363 50.5515 159.259 50.5739 159.14 50.5937C159.024 50.6116 158.91 50.6277 158.799 50.6421C158.689 50.6546 158.6 50.6654 158.532 50.6744C158.367 50.6959 158.213 50.7309 158.069 50.7793C157.928 50.8259 157.813 50.8968 157.725 50.9918C157.639 51.0851 157.596 51.2125 157.596 51.3739C157.596 51.5945 157.678 51.7613 157.841 51.8743C158.006 51.9855 158.215 52.0411 158.468 52.0411ZM162.059 50.0287V52.5146H161.424V48.3821H162.037V49.0278H162.091C162.188 48.8179 162.335 48.6493 162.532 48.522C162.73 48.3928 162.984 48.3283 163.296 48.3283C163.576 48.3283 163.821 48.3857 164.031 48.5005C164.241 48.6135 164.404 48.7857 164.521 49.017C164.637 49.2466 164.695 49.5372 164.695 49.8887V52.5146H164.06V49.9318C164.06 49.6071 163.976 49.3542 163.808 49.1731C163.639 48.9901 163.408 48.8987 163.113 48.8987C162.911 48.8987 162.73 48.9426 162.57 49.0305C162.412 49.1184 162.287 49.2466 162.196 49.4152C162.105 49.5838 162.059 49.7883 162.059 50.0287ZM167.416 52.6007C167.072 52.6007 166.768 52.5138 166.504 52.3398C166.24 52.164 166.034 51.9165 165.885 51.5972C165.736 51.2761 165.662 50.8968 165.662 50.4591C165.662 50.0251 165.736 49.6484 165.885 49.3291C166.034 49.0099 166.241 48.7632 166.507 48.5892C166.772 48.4153 167.079 48.3283 167.427 48.3283C167.696 48.3283 167.909 48.3731 168.065 48.4628C168.222 48.5507 168.343 48.6511 168.425 48.7641C168.509 48.8753 168.575 48.9668 168.621 49.0386H168.675V47.0046H169.31V52.5146H168.697V51.8797H168.621C168.575 51.955 168.508 52.0501 168.422 52.1649C168.336 52.2779 168.213 52.3792 168.054 52.4689C167.894 52.5568 167.682 52.6007 167.416 52.6007ZM167.502 52.0304C167.757 52.0304 167.972 51.964 168.148 51.8313C168.324 51.6967 168.457 51.5111 168.549 51.2743C168.64 51.0358 168.686 50.7605 168.686 50.4484C168.686 50.1399 168.641 49.8699 168.552 49.6385C168.462 49.4054 168.329 49.2242 168.153 49.0951C167.978 48.9641 167.761 48.8987 167.502 48.8987C167.233 48.8987 167.009 48.9677 166.83 49.1058C166.652 49.2421 166.518 49.4278 166.429 49.6627C166.341 49.8959 166.297 50.1578 166.297 50.4484C166.297 50.7425 166.342 51.0098 166.431 51.2501C166.523 51.4887 166.657 51.6788 166.835 51.8205C167.014 51.9604 167.237 52.0304 167.502 52.0304ZM174.371 52.6007C173.984 52.6007 173.65 52.5093 173.37 52.3263C173.09 52.1434 172.875 51.8914 172.724 51.5703C172.574 51.2492 172.498 50.8824 172.498 50.4699C172.498 50.0502 172.576 49.6798 172.73 49.3587C172.886 49.0359 173.103 48.7839 173.381 48.6027C173.661 48.4198 173.987 48.3283 174.36 48.3283C174.651 48.3283 174.913 48.3821 175.146 48.4897C175.379 48.5973 175.57 48.748 175.719 48.9417C175.868 49.1354 175.96 49.3614 175.996 49.6197H175.361C175.313 49.4314 175.205 49.2646 175.038 49.1193C174.873 48.9722 174.651 48.8987 174.371 48.8987C174.124 48.8987 173.906 48.9632 173.72 49.0924C173.535 49.2197 173.391 49.4 173.287 49.6332C173.185 49.8645 173.133 50.1363 173.133 50.4484C173.133 50.7676 173.184 51.0457 173.284 51.2824C173.386 51.5192 173.53 51.703 173.715 51.834C173.901 51.9649 174.12 52.0304 174.371 52.0304C174.536 52.0304 174.686 52.0017 174.82 51.9443C174.955 51.8869 175.069 51.8044 175.162 51.6967C175.255 51.5891 175.322 51.46 175.361 51.3093H175.996C175.96 51.5533 175.871 51.773 175.73 51.9685C175.59 52.1622 175.404 52.3165 175.173 52.4312C174.943 52.5442 174.676 52.6007 174.371 52.6007ZM178.14 52.6115C177.879 52.6115 177.641 52.5622 177.427 52.4635C177.214 52.3631 177.044 52.2187 176.919 52.0304C176.793 51.8402 176.731 51.6106 176.731 51.3416C176.731 51.1048 176.777 50.9129 176.87 50.7658C176.964 50.617 177.088 50.5004 177.244 50.4161C177.401 50.3318 177.573 50.269 177.761 50.2277C177.951 50.1847 178.142 50.1506 178.334 50.1255C178.585 50.0932 178.789 50.069 178.945 50.0529C179.103 50.0349 179.217 50.0053 179.289 49.9641C179.363 49.9228 179.4 49.8511 179.4 49.7488V49.7273C179.4 49.4619 179.327 49.2556 179.182 49.1085C179.038 48.9614 178.82 48.8879 178.528 48.8879C178.225 48.8879 177.987 48.9543 177.815 49.087C177.643 49.2197 177.522 49.3614 177.452 49.5121L176.849 49.2968C176.957 49.0457 177.1 48.8502 177.279 48.7103C177.461 48.5686 177.658 48.47 177.871 48.4144C178.087 48.357 178.298 48.3283 178.506 48.3283C178.639 48.3283 178.791 48.3444 178.964 48.3767C179.138 48.4072 179.305 48.4709 179.467 48.5677C179.63 48.6646 179.765 48.8108 179.873 49.0063C179.981 49.2018 180.034 49.4637 180.034 49.7919V52.5146H179.4V51.955H179.367C179.324 52.0447 179.252 52.1407 179.152 52.2429C179.052 52.3451 178.918 52.4321 178.751 52.5039C178.584 52.5756 178.381 52.6115 178.14 52.6115ZM178.237 52.0411C178.488 52.0411 178.7 51.9918 178.872 51.8931C179.046 51.7945 179.177 51.6671 179.265 51.5111C179.355 51.3551 179.4 51.1909 179.4 51.0187V50.4376C179.373 50.4699 179.313 50.4995 179.222 50.5264C179.132 50.5515 179.028 50.5739 178.91 50.5937C178.793 50.6116 178.679 50.6277 178.568 50.6421C178.459 50.6546 178.37 50.6654 178.302 50.6744C178.137 50.6959 177.983 50.7309 177.839 50.7793C177.697 50.8259 177.583 50.8968 177.495 50.9918C177.409 51.0851 177.366 51.2125 177.366 51.3739C177.366 51.5945 177.447 51.7613 177.61 51.8743C177.775 51.9855 177.984 52.0411 178.237 52.0411ZM181.193 54.0644V48.3821H181.807V49.0386H181.882C181.929 48.9668 181.993 48.8753 182.076 48.7641C182.16 48.6511 182.28 48.5507 182.436 48.4628C182.594 48.3731 182.808 48.3283 183.077 48.3283C183.425 48.3283 183.731 48.4153 183.997 48.5892C184.262 48.7632 184.469 49.0099 184.618 49.3291C184.767 49.6484 184.842 50.0251 184.842 50.4591C184.842 50.8968 184.767 51.2761 184.618 51.5972C184.469 51.9165 184.263 52.164 184 52.3398C183.736 52.5138 183.432 52.6007 183.087 52.6007C182.822 52.6007 182.609 52.5568 182.45 52.4689C182.29 52.3792 182.167 52.2779 182.081 52.1649C181.995 52.0501 181.929 51.955 181.882 51.8797H181.828V54.0644H181.193ZM181.818 50.4484C181.818 50.7605 181.863 51.0358 181.955 51.2743C182.046 51.5111 182.18 51.6967 182.356 51.8313C182.531 51.964 182.747 52.0304 183.001 52.0304C183.267 52.0304 183.488 51.9604 183.666 51.8205C183.845 51.6788 183.98 51.4887 184.07 51.2501C184.161 51.0098 184.207 50.7425 184.207 50.4484C184.207 50.1578 184.162 49.8959 184.072 49.6627C183.984 49.4278 183.851 49.2421 183.671 49.1058C183.494 48.9677 183.27 48.8987 183.001 48.8987C182.743 48.8987 182.526 48.9641 182.35 49.0951C182.175 49.2242 182.042 49.4054 181.952 49.6385C181.862 49.8699 181.818 50.1399 181.818 50.4484ZM187.026 52.6115C186.764 52.6115 186.527 52.5622 186.313 52.4635C186.1 52.3631 185.93 52.2187 185.805 52.0304C185.679 51.8402 185.617 51.6106 185.617 51.3416C185.617 51.1048 185.663 50.9129 185.756 50.7658C185.85 50.617 185.974 50.5004 186.13 50.4161C186.286 50.3318 186.459 50.269 186.647 50.2277C186.837 50.1847 187.028 50.1506 187.22 50.1255C187.471 50.0932 187.675 50.069 187.831 50.0529C187.989 50.0349 188.103 50.0053 188.175 49.9641C188.249 49.9228 188.285 49.8511 188.285 49.7488V49.7273C188.285 49.4619 188.213 49.2556 188.068 49.1085C187.924 48.9614 187.706 48.8879 187.414 48.8879C187.111 48.8879 186.873 48.9543 186.701 49.087C186.529 49.2197 186.408 49.3614 186.338 49.5121L185.735 49.2968C185.843 49.0457 185.986 48.8502 186.165 48.7103C186.347 48.5686 186.544 48.47 186.757 48.4144C186.973 48.357 187.184 48.3283 187.392 48.3283C187.525 48.3283 187.677 48.3444 187.85 48.3767C188.024 48.4072 188.191 48.4709 188.353 48.5677C188.516 48.6646 188.651 48.8108 188.759 49.0063C188.867 49.2018 188.92 49.4637 188.92 49.7919V52.5146H188.285V51.955H188.253C188.21 52.0447 188.138 52.1407 188.038 52.2429C187.938 52.3451 187.804 52.4321 187.637 52.5039C187.47 52.5756 187.267 52.6115 187.026 52.6115ZM187.123 52.0411C187.374 52.0411 187.586 51.9918 187.758 51.8931C187.932 51.7945 188.063 51.6671 188.151 51.5111C188.241 51.3551 188.285 51.1909 188.285 51.0187V50.4376C188.259 50.4699 188.199 50.4995 188.108 50.5264C188.018 50.5515 187.914 50.5739 187.796 50.5937C187.679 50.6116 187.565 50.6277 187.454 50.6421C187.345 50.6546 187.256 50.6654 187.188 50.6744C187.023 50.6959 186.869 50.7309 186.725 50.7793C186.583 50.8259 186.469 50.8968 186.381 50.9918C186.295 51.0851 186.251 51.2125 186.251 51.3739C186.251 51.5945 186.333 51.7613 186.496 51.8743C186.661 51.9855 186.87 52.0411 187.123 52.0411ZM190.165 52.5146V47.0046H190.8V49.0386H190.854C190.901 48.9668 190.965 48.8753 191.048 48.7641C191.132 48.6511 191.252 48.5507 191.408 48.4628C191.566 48.3731 191.78 48.3283 192.049 48.3283C192.397 48.3283 192.703 48.4153 192.969 48.5892C193.234 48.7632 193.442 49.0099 193.59 49.3291C193.739 49.6484 193.814 50.0251 193.814 50.4591C193.814 50.8968 193.739 51.2761 193.59 51.5972C193.442 51.9165 193.235 52.164 192.972 52.3398C192.708 52.5138 192.404 52.6007 192.06 52.6007C191.794 52.6007 191.582 52.5568 191.422 52.4689C191.262 52.3792 191.139 52.2779 191.053 52.1649C190.967 52.0501 190.901 51.955 190.854 51.8797H190.779V52.5146H190.165ZM190.79 50.4484C190.79 50.7605 190.835 51.0358 190.927 51.2743C191.018 51.5111 191.152 51.6967 191.328 51.8313C191.504 51.964 191.719 52.0304 191.973 52.0304C192.239 52.0304 192.46 51.9604 192.638 51.8205C192.817 51.6788 192.952 51.4887 193.042 51.2501C193.133 51.0098 193.179 50.7425 193.179 50.4484C193.179 50.1578 193.134 49.8959 193.044 49.6627C192.956 49.4278 192.823 49.2421 192.643 49.1058C192.466 48.9677 192.242 48.8987 191.973 48.8987C191.715 48.8987 191.498 48.9641 191.322 49.0951C191.147 49.2242 191.014 49.4054 190.924 49.6385C190.834 49.8699 190.79 50.1399 190.79 50.4484ZM194.785 52.5146V48.3821H195.42V52.5146H194.785ZM195.108 47.6933C194.984 47.6933 194.877 47.6512 194.788 47.5669C194.7 47.4826 194.656 47.3812 194.656 47.2628C194.656 47.1445 194.7 47.0431 194.788 46.9588C194.877 46.8745 194.984 46.8324 195.108 46.8324C195.232 46.8324 195.337 46.8745 195.425 46.9588C195.515 47.0431 195.56 47.1445 195.56 47.2628C195.56 47.3812 195.515 47.4826 195.425 47.5669C195.337 47.6512 195.232 47.6933 195.108 47.6933ZM197.218 47.0046V52.5146H196.583V47.0046H197.218ZM198.381 52.5146V48.3821H199.016V52.5146H198.381ZM198.704 47.6933C198.58 47.6933 198.473 47.6512 198.383 47.5669C198.296 47.4826 198.252 47.3812 198.252 47.2628C198.252 47.1445 198.296 47.0431 198.383 46.9588C198.473 46.8745 198.58 46.8324 198.704 46.8324C198.827 46.8324 198.933 46.8745 199.021 46.9588C199.111 47.0431 199.156 47.1445 199.156 47.2628C199.156 47.3812 199.111 47.4826 199.021 47.5669C198.933 47.6512 198.827 47.6933 198.704 47.6933ZM201.976 48.3821V48.9202H199.834V48.3821H201.976ZM200.459 47.392H201.093V51.3308C201.093 51.5102 201.119 51.6447 201.172 51.7344C201.225 51.8223 201.293 51.8815 201.376 51.912C201.46 51.9407 201.549 51.955 201.642 51.955C201.712 51.955 201.77 51.9514 201.815 51.9443C201.859 51.9353 201.895 51.9281 201.922 51.9227L202.051 52.4931C202.008 52.5093 201.948 52.5254 201.871 52.5416C201.794 52.5595 201.696 52.5685 201.578 52.5685C201.398 52.5685 201.223 52.5299 201.05 52.4528C200.88 52.3756 200.738 52.2582 200.625 52.1003C200.514 51.9425 200.459 51.7434 200.459 51.503V47.392ZM202.931 52.5146V48.3821H203.566V52.5146H202.931ZM203.254 47.6933C203.13 47.6933 203.023 47.6512 202.934 47.5669C202.846 47.4826 202.802 47.3812 202.802 47.2628C202.802 47.1445 202.846 47.0431 202.934 46.9588C203.023 46.8745 203.13 46.8324 203.254 46.8324C203.378 46.8324 203.484 46.8745 203.571 46.9588C203.661 47.0431 203.706 47.1445 203.706 47.2628C203.706 47.3812 203.661 47.4826 203.571 47.5669C203.484 47.6512 203.378 47.6933 203.254 47.6933ZM206.462 52.6007C206.063 52.6007 205.72 52.5129 205.431 52.3371C205.144 52.1595 204.923 51.912 204.767 51.5945C204.612 51.2752 204.535 50.904 204.535 50.4807C204.535 50.0574 204.612 49.6843 204.767 49.3614C204.923 49.0368 205.14 48.7839 205.418 48.6027C205.698 48.4198 206.024 48.3283 206.397 48.3283C206.612 48.3283 206.825 48.3641 207.035 48.4359C207.245 48.5076 207.436 48.6242 207.608 48.7857C207.78 48.9453 207.917 49.1569 208.019 49.4206C208.122 49.6843 208.173 50.0089 208.173 50.3946V50.6636H204.987V50.1147H207.527C207.527 49.8816 207.48 49.6735 207.387 49.4906C207.296 49.3076 207.165 49.1632 206.994 49.0574C206.826 48.9516 206.627 48.8987 206.397 48.8987C206.144 48.8987 205.925 48.9614 205.741 49.087C205.558 49.2107 205.417 49.3722 205.318 49.5713C205.22 49.7704 205.17 49.9838 205.17 50.2116V50.5775C205.17 50.8896 205.224 51.1542 205.332 51.3712C205.441 51.5864 205.593 51.7506 205.786 51.8636C205.98 51.9748 206.205 52.0304 206.462 52.0304C206.628 52.0304 206.779 52.007 206.914 51.9604C207.05 51.912 207.167 51.8402 207.266 51.7452C207.365 51.6483 207.441 51.5281 207.495 51.3847L208.108 51.5568C208.044 51.7649 207.935 51.9479 207.783 52.1057C207.63 52.2617 207.442 52.3837 207.218 52.4716C206.993 52.5577 206.741 52.6007 206.462 52.6007ZM212.066 49.3076L211.496 49.469C211.46 49.374 211.407 49.2816 211.337 49.1919C211.269 49.1004 211.175 49.0251 211.057 48.9659C210.939 48.9067 210.787 48.8771 210.602 48.8771C210.349 48.8771 210.139 48.9354 209.97 49.052C209.803 49.1668 209.72 49.313 209.72 49.4906C209.72 49.6484 209.777 49.7731 209.892 49.8645C210.007 49.956 210.186 50.0322 210.43 50.0932L211.044 50.2439C211.413 50.3336 211.688 50.4708 211.869 50.6555C212.051 50.8385 212.141 51.0743 212.141 51.3631C212.141 51.5999 212.073 51.8115 211.937 51.9981C211.802 52.1846 211.614 52.3317 211.372 52.4393C211.13 52.5469 210.848 52.6007 210.527 52.6007C210.105 52.6007 209.757 52.5093 209.48 52.3263C209.204 52.1434 209.029 51.8761 208.956 51.5246L209.558 51.3739C209.616 51.5963 209.724 51.7631 209.884 51.8743C210.045 51.9855 210.256 52.0411 210.516 52.0411C210.812 52.0411 211.047 51.9783 211.221 51.8528C211.397 51.7254 211.485 51.573 211.485 51.3954C211.485 51.2519 211.435 51.1317 211.334 51.0349C211.234 50.9362 211.079 50.8627 210.871 50.8143L210.183 50.6528C209.804 50.5632 209.526 50.4242 209.349 50.2358C209.173 50.0457 209.085 49.808 209.085 49.5228C209.085 49.2897 209.15 49.0834 209.281 48.904C209.414 48.7247 209.594 48.5839 209.822 48.4816C210.052 48.3794 210.312 48.3283 210.602 48.3283C211.011 48.3283 211.332 48.418 211.565 48.5973C211.8 48.7767 211.967 49.0134 212.066 49.3076Z" fill="#5C5C5C"/>
<path d="M47.112 34.3798V39.2012H46.5282V34.9919H46.5L45.3229 35.7735V35.1803L46.5282 34.3798H47.112ZM48.4987 39.2012V38.7774L50.0901 37.0353C50.2768 36.8313 50.4306 36.654 50.5515 36.5033C50.6723 36.3511 50.7618 36.2082 50.8199 36.0748C50.8795 35.9399 50.9093 35.7986 50.9093 35.6511C50.9093 35.4816 50.8685 35.3349 50.7869 35.2109C50.7069 35.0869 50.597 34.9911 50.4573 34.9237C50.3176 34.8562 50.1607 34.8224 49.9865 34.8224C49.8013 34.8224 49.6396 34.8609 49.5015 34.9378C49.365 35.0131 49.259 35.1191 49.1837 35.2556C49.1099 35.3921 49.0731 35.5522 49.0731 35.7358H48.5175C48.5175 35.4533 48.5826 35.2054 48.7129 34.9919C48.8431 34.7785 49.0205 34.6121 49.2449 34.4928C49.4709 34.3736 49.7244 34.3139 50.0053 34.3139C50.2878 34.3139 50.5381 34.3736 50.7563 34.4928C50.9744 34.6121 51.1455 34.773 51.2695 34.9754C51.3935 35.1779 51.4555 35.4031 51.4555 35.6511C51.4555 35.8284 51.4233 36.0019 51.359 36.1714C51.2962 36.3393 51.1863 36.5268 51.0294 36.734C50.874 36.9396 50.6582 37.1907 50.382 37.4873L49.2991 38.6456V38.6833H51.5402V39.2012H48.4987ZM52.9268 38.5844C52.8107 38.5844 52.711 38.5428 52.6279 38.4596C52.5447 38.3764 52.5031 38.2768 52.5031 38.1606C52.5031 38.0445 52.5447 37.9448 52.6279 37.8617C52.711 37.7785 52.8107 37.7369 52.9268 37.7369C53.043 37.7369 53.1426 37.7785 53.2258 37.8617C53.309 37.9448 53.3506 38.0445 53.3506 38.1606C53.3506 38.2375 53.331 38.3082 53.2917 38.3725C53.2541 38.4369 53.2031 38.4886 53.1387 38.5279C53.0759 38.5655 53.0053 38.5844 52.9268 38.5844ZM52.9268 36.1455C52.8107 36.1455 52.711 36.1039 52.6279 36.0207C52.5447 35.9375 52.5031 35.8379 52.5031 35.7217C52.5031 35.6056 52.5447 35.5059 52.6279 35.4227C52.711 35.3396 52.8107 35.298 52.9268 35.298C53.043 35.298 53.1426 35.3396 53.2258 35.4227C53.309 35.5059 53.3506 35.6056 53.3506 35.7217C53.3506 35.7986 53.331 35.8692 53.2917 35.9336C53.2541 35.9979 53.2031 36.0497 53.1387 36.089C53.0759 36.1266 53.0053 36.1455 52.9268 36.1455ZM55.9107 39.2671C55.556 39.2671 55.2539 39.1706 55.0044 38.9775C54.7548 38.7829 54.5642 38.5012 54.4323 38.1324C54.3005 37.762 54.2346 37.3147 54.2346 36.7905C54.2346 36.2695 54.3005 35.8245 54.4323 35.4557C54.5657 35.0853 54.7572 34.8028 55.0067 34.6082C55.2578 34.412 55.5592 34.3139 55.9107 34.3139C56.2623 34.3139 56.5628 34.412 56.8124 34.6082C57.0635 34.8028 57.255 35.0853 57.3868 35.4557C57.5202 35.8245 57.5869 36.2695 57.5869 36.7905C57.5869 37.3147 57.521 37.762 57.3891 38.1324C57.2573 38.5012 57.0666 38.7829 56.8171 38.9775C56.5675 39.1706 56.2654 39.2671 55.9107 39.2671ZM55.9107 38.7492C56.2623 38.7492 56.5354 38.5797 56.73 38.2407C56.9246 37.9017 57.0219 37.4183 57.0219 36.7905C57.0219 36.373 56.9772 36.0176 56.8877 35.7241C56.7998 35.4306 56.6727 35.2069 56.5063 35.0531C56.3415 34.8993 56.143 34.8224 55.9107 34.8224C55.5623 34.8224 55.29 34.9943 55.0938 35.338C54.8977 35.6801 54.7996 36.1643 54.7996 36.7905C54.7996 37.208 54.8435 37.5627 54.9314 37.8546C55.0193 38.1465 55.1456 38.3686 55.3104 38.5208C55.4768 38.6731 55.6769 38.7492 55.9107 38.7492ZM60.0541 39.2671C59.6994 39.2671 59.3973 39.1706 59.1477 38.9775C58.8982 38.7829 58.7075 38.5012 58.5756 38.1324C58.4438 37.762 58.3779 37.3147 58.3779 36.7905C58.3779 36.2695 58.4438 35.8245 58.5756 35.4557C58.709 35.0853 58.9005 34.8028 59.1501 34.6082C59.4012 34.412 59.7025 34.3139 60.0541 34.3139C60.4056 34.3139 60.7062 34.412 60.9557 34.6082C61.2068 34.8028 61.3983 35.0853 61.5301 35.4557C61.6635 35.8245 61.7302 36.2695 61.7302 36.7905C61.7302 37.3147 61.6643 37.762 61.5325 38.1324C61.4006 38.5012 61.21 38.7829 60.9604 38.9775C60.7109 39.1706 60.4088 39.2671 60.0541 39.2671ZM60.0541 38.7492C60.4056 38.7492 60.6787 38.5797 60.8733 38.2407C61.0679 37.9017 61.1652 37.4183 61.1652 36.7905C61.1652 36.373 61.1205 36.0176 61.031 35.7241C60.9432 35.4306 60.816 35.2069 60.6497 35.0531C60.4849 34.8993 60.2863 34.8224 60.0541 34.8224C59.7056 34.8224 59.4333 34.9943 59.2372 35.338C59.041 35.6801 58.9429 36.1643 58.9429 36.7905C58.9429 37.208 58.9868 37.5627 59.0747 37.8546C59.1626 38.1465 59.289 38.3686 59.4538 38.5208C59.6201 38.6731 59.8202 38.7492 60.0541 38.7492ZM64.4987 40.5572V35.5852H65.0355V36.1596H65.1014C65.1422 36.0968 65.1987 36.0168 65.2709 35.9195C65.3447 35.8206 65.4498 35.7327 65.5863 35.6558C65.7245 35.5773 65.9112 35.5381 66.1466 35.5381C66.4511 35.5381 66.7195 35.6142 66.9518 35.7664C67.184 35.9187 67.3653 36.1345 67.4956 36.4138C67.6258 36.6932 67.691 37.0228 67.691 37.4026C67.691 37.7855 67.6258 38.1175 67.4956 38.3984C67.3653 38.6778 67.1848 38.8943 66.9541 39.0482C66.7234 39.2004 66.4574 39.2765 66.1561 39.2765C65.9238 39.2765 65.7378 39.2381 65.5981 39.1612C65.4584 39.0827 65.3509 38.994 65.2756 38.8951C65.2003 38.7947 65.1422 38.7115 65.1014 38.6456H65.0543V40.5572H64.4987ZM65.0449 37.3932C65.0449 37.6663 65.0849 37.9072 65.165 38.1159C65.245 38.3231 65.3619 38.4855 65.5157 38.6032C65.6695 38.7194 65.8579 38.7774 66.0807 38.7774C66.313 38.7774 66.5068 38.7162 66.6622 38.5938C66.8191 38.4698 66.9369 38.3035 67.0153 38.0947C67.0954 37.8844 67.1354 37.6506 67.1354 37.3932C67.1354 37.1389 67.0961 36.9098 67.0177 36.7058C66.9408 36.5002 66.8239 36.3377 66.6669 36.2184C66.5115 36.0976 66.3161 36.0372 66.0807 36.0372C65.8547 36.0372 65.6648 36.0945 65.511 36.209C65.3572 36.322 65.2411 36.4805 65.1626 36.6846C65.0841 36.887 65.0449 37.1232 65.0449 37.3932ZM68.9434 39.2388C68.8272 39.2388 68.7276 39.1972 68.6444 39.1141C68.5612 39.0309 68.5196 38.9312 68.5196 38.8151C68.5196 38.699 68.5612 38.5993 68.6444 38.5161C68.7276 38.4329 68.8272 38.3913 68.9434 38.3913C69.0595 38.3913 69.1592 38.4329 69.2424 38.5161C69.3255 38.5993 69.3671 38.699 69.3671 38.8151C69.3671 38.892 69.3475 38.9626 69.3083 39.027C69.2706 39.0913 69.2196 39.1431 69.1553 39.1823C69.0925 39.22 69.0219 39.2388 68.9434 39.2388ZM70.3641 39.2012V35.5852H70.9009V36.1502H70.948C71.0233 35.9571 71.1449 35.8073 71.3128 35.7005C71.4808 35.5922 71.6825 35.5381 71.9179 35.5381C72.1564 35.5381 72.355 35.5922 72.5135 35.7005C72.6736 35.8073 72.7983 35.9571 72.8878 36.1502H72.9255C73.018 35.9634 73.1569 35.8151 73.3421 35.7052C73.5273 35.5938 73.7494 35.5381 74.0084 35.5381C74.3317 35.5381 74.5961 35.6393 74.8017 35.8418C75.0073 36.0427 75.1101 36.3558 75.1101 36.7811V39.2012H74.5545V36.7811C74.5545 36.5143 74.4816 36.3236 74.3356 36.209C74.1896 36.0945 74.0178 36.0372 73.82 36.0372C73.5658 36.0372 73.3688 36.1141 73.2291 36.2679C73.0895 36.4201 73.0196 36.6132 73.0196 36.847V39.2012H72.4546V36.7246C72.4546 36.519 72.3879 36.3534 72.2545 36.2279C72.1211 36.1007 71.9493 36.0372 71.739 36.0372C71.5946 36.0372 71.4596 36.0756 71.334 36.1525C71.2101 36.2294 71.1096 36.3362 71.0327 36.4727C70.9574 36.6077 70.9197 36.7638 70.9197 36.9412V39.2012H70.3641ZM76.5309 39.2388C76.4147 39.2388 76.3151 39.1972 76.2319 39.1141C76.1487 39.0309 76.1071 38.9312 76.1071 38.8151C76.1071 38.699 76.1487 38.5993 76.2319 38.5161C76.3151 38.4329 76.4147 38.3913 76.5309 38.3913C76.647 38.3913 76.7466 38.4329 76.8298 38.5161C76.913 38.5993 76.9546 38.699 76.9546 38.8151C76.9546 38.892 76.935 38.9626 76.8957 39.027C76.8581 39.0913 76.8071 39.1431 76.7427 39.1823C76.6799 39.22 76.6093 39.2388 76.5309 39.2388ZM80.7578 36.8753V37.3932H77.4431V36.8753H80.7578ZM48.9765 44.3798V49.2012H48.3927V44.9919H48.3645L47.1874 45.7735V45.1803L48.3927 44.3798H48.9765ZM50.7775 48.5844C50.6613 48.5844 50.5617 48.5428 50.4785 48.4596C50.3953 48.3764 50.3537 48.2768 50.3537 48.1606C50.3537 48.0445 50.3953 47.9448 50.4785 47.8617C50.5617 47.7785 50.6613 47.7369 50.7775 47.7369C50.8936 47.7369 50.9933 47.7785 51.0765 47.8617C51.1596 47.9448 51.2012 48.0445 51.2012 48.1606C51.2012 48.2375 51.1816 48.3082 51.1424 48.3725C51.1047 48.4369 51.0537 48.4886 50.9894 48.5279C50.9266 48.5655 50.856 48.5844 50.7775 48.5844ZM50.7775 46.1455C50.6613 46.1455 50.5617 46.1039 50.4785 46.0207C50.3953 45.9375 50.3537 45.8379 50.3537 45.7217C50.3537 45.6056 50.3953 45.5059 50.4785 45.4227C50.5617 45.3396 50.6613 45.298 50.7775 45.298C50.8936 45.298 50.9933 45.3396 51.0765 45.4227C51.1596 45.5059 51.2012 45.6056 51.2012 45.7217C51.2012 45.7986 51.1816 45.8692 51.1424 45.9336C51.1047 45.9979 51.0537 46.0497 50.9894 46.089C50.9266 46.1266 50.856 46.1455 50.7775 46.1455ZM53.7614 49.2671C53.4067 49.2671 53.1046 49.1706 52.855 48.9775C52.6055 48.7829 52.4148 48.5012 52.283 48.1324C52.1511 47.762 52.0852 47.3147 52.0852 46.7905C52.0852 46.2695 52.1511 45.8245 52.283 45.4557C52.4164 45.0853 52.6078 44.8028 52.8574 44.6082C53.1085 44.412 53.4098 44.3139 53.7614 44.3139C54.1129 44.3139 54.4135 44.412 54.663 44.6082C54.9141 44.8028 55.1056 45.0853 55.2374 45.4557C55.3708 45.8245 55.4375 46.2695 55.4375 46.7905C55.4375 47.3147 55.3716 47.762 55.2398 48.1324C55.108 48.5012 54.9173 48.7829 54.6677 48.9775C54.4182 49.1706 54.1161 49.2671 53.7614 49.2671ZM53.7614 48.7492C54.1129 48.7492 54.386 48.5797 54.5806 48.2407C54.7752 47.9017 54.8725 47.4183 54.8725 46.7905C54.8725 46.373 54.8278 46.0176 54.7384 45.7241C54.6505 45.4306 54.5233 45.2069 54.357 45.0531C54.1922 44.8993 53.9937 44.8224 53.7614 44.8224C53.413 44.8224 53.1407 44.9943 52.9445 45.338C52.7483 45.6801 52.6502 46.1643 52.6502 46.7905C52.6502 47.208 52.6942 47.5627 52.7821 47.8546C52.8699 48.1465 52.9963 48.3686 53.1611 48.5208C53.3274 48.6731 53.5275 48.7492 53.7614 48.7492ZM57.9047 49.2671C57.55 49.2671 57.2479 49.1706 56.9984 48.9775C56.7488 48.7829 56.5581 48.5012 56.4263 48.1324C56.2945 47.762 56.2285 47.3147 56.2285 46.7905C56.2285 46.2695 56.2945 45.8245 56.4263 45.4557C56.5597 45.0853 56.7512 44.8028 57.0007 44.6082C57.2518 44.412 57.5532 44.3139 57.9047 44.3139C58.2563 44.3139 58.5568 44.412 58.8064 44.6082C59.0575 44.8028 59.2489 45.0853 59.3808 45.4557C59.5142 45.8245 59.5809 46.2695 59.5809 46.7905C59.5809 47.3147 59.515 47.762 59.3831 48.1324C59.2513 48.5012 59.0606 48.7829 58.8111 48.9775C58.5615 49.1706 58.2594 49.2671 57.9047 49.2671ZM57.9047 48.7492C58.2563 48.7492 58.5293 48.5797 58.724 48.2407C58.9186 47.9017 59.0159 47.4183 59.0159 46.7905C59.0159 46.373 58.9711 46.0176 58.8817 45.7241C58.7938 45.4306 58.6667 45.2069 58.5003 45.0531C58.3355 44.8993 58.137 44.8224 57.9047 44.8224C57.5563 44.8224 57.284 44.9943 57.0878 45.338C56.8916 45.6801 56.7935 46.1643 56.7935 46.7905C56.7935 47.208 56.8375 47.5627 56.9254 47.8546C57.0133 48.1465 57.1396 48.3686 57.3044 48.5208C57.4708 48.6731 57.6709 48.7492 57.9047 48.7492ZM62.3494 50.5572V45.5852H62.8861V46.1596H62.952C62.9928 46.0968 63.0493 46.0168 63.1215 45.9195C63.1953 45.8206 63.3005 45.7327 63.437 45.6558C63.5751 45.5773 63.7619 45.5381 63.9973 45.5381C64.3018 45.5381 64.5701 45.6142 64.8024 45.7664C65.0347 45.9187 65.216 46.1345 65.3462 46.4138C65.4765 46.6932 65.5416 47.0228 65.5416 47.4026C65.5416 47.7855 65.4765 48.1175 65.3462 48.3984C65.216 48.6778 65.0355 48.8943 64.8048 49.0482C64.5741 49.2004 64.308 49.2765 64.0067 49.2765C63.7744 49.2765 63.5884 49.2381 63.4488 49.1612C63.3091 49.0827 63.2016 48.994 63.1262 48.8951C63.0509 48.7947 62.9928 48.7115 62.952 48.6456H62.905V50.5572H62.3494ZM62.8955 47.3932C62.8955 47.6663 62.9356 47.9072 63.0156 48.1159C63.0956 48.3231 63.2126 48.4855 63.3664 48.6032C63.5202 48.7194 63.7085 48.7774 63.9314 48.7774C64.1636 48.7774 64.3575 48.7162 64.5128 48.5938C64.6698 48.4698 64.7875 48.3035 64.866 48.0947C64.946 47.8844 64.986 47.6506 64.986 47.3932C64.986 47.1389 64.9468 46.9098 64.8683 46.7058C64.7914 46.5002 64.6745 46.3377 64.5176 46.2184C64.3622 46.0976 64.1668 46.0372 63.9314 46.0372C63.7054 46.0372 63.5155 46.0945 63.3617 46.209C63.2079 46.322 63.0917 46.4805 63.0132 46.6846C62.9348 46.887 62.8955 47.1232 62.8955 47.3932ZM66.794 49.2388C66.6779 49.2388 66.5782 49.1972 66.4951 49.1141C66.4119 49.0309 66.3703 48.9312 66.3703 48.8151C66.3703 48.699 66.4119 48.5993 66.4951 48.5161C66.5782 48.4329 66.6779 48.3913 66.794 48.3913C66.9102 48.3913 67.0098 48.4329 67.093 48.5161C67.1762 48.5993 67.2178 48.699 67.2178 48.8151C67.2178 48.892 67.1982 48.9626 67.1589 49.027C67.1213 49.0913 67.0703 49.1431 67.0059 49.1823C66.9431 49.22 66.8725 49.2388 66.794 49.2388ZM68.2148 49.2012V45.5852H68.7515V46.1502H68.7986C68.8739 45.9571 68.9956 45.8073 69.1635 45.7005C69.3314 45.5922 69.5331 45.5381 69.7685 45.5381C70.0071 45.5381 70.2056 45.5922 70.3641 45.7005C70.5242 45.8073 70.649 45.9571 70.7384 46.1502H70.7761C70.8687 45.9634 71.0076 45.8151 71.1928 45.7052C71.378 45.5938 71.6001 45.5381 71.859 45.5381C72.1823 45.5381 72.4468 45.6393 72.6524 45.8418C72.858 46.0427 72.9608 46.3558 72.9608 46.7811V49.2012H72.4052V46.7811C72.4052 46.5143 72.3322 46.3236 72.1862 46.209C72.0403 46.0945 71.8684 46.0372 71.6707 46.0372C71.4164 46.0372 71.2195 46.1141 71.0798 46.2679C70.9401 46.4201 70.8703 46.6132 70.8703 46.847V49.2012H70.3053V46.7246C70.3053 46.519 70.2386 46.3534 70.1052 46.2279C69.9718 46.1007 69.7999 46.0372 69.5896 46.0372C69.4452 46.0372 69.3102 46.0756 69.1847 46.1525C69.0607 46.2294 68.9603 46.3362 68.8834 46.4727C68.808 46.6077 68.7704 46.7638 68.7704 46.9412V49.2012H68.2148ZM74.3815 49.2388C74.2654 49.2388 74.1657 49.1972 74.0825 49.1141C73.9993 49.0309 73.9578 48.9312 73.9578 48.8151C73.9578 48.699 73.9993 48.5993 74.0825 48.5161C74.1657 48.4329 74.2654 48.3913 74.3815 48.3913C74.4976 48.3913 74.5973 48.4329 74.6805 48.5161C74.7637 48.5993 74.8052 48.699 74.8052 48.8151C74.8052 48.892 74.7856 48.9626 74.7464 49.027C74.7087 49.0913 74.6577 49.1431 74.5934 49.1823C74.5306 49.22 74.46 49.2388 74.3815 49.2388Z" fill="#5C5C5C"/>
<path d="M240.738 40.2734L243.579 43.1146L246.421 40.2734" stroke="#94368D" stroke-width="0.947046" stroke-linecap="round" stroke-linejoin="round"/>
</g>
<defs>
<filter id="filter0_dd_2291_49898" x="0.963849" y="0.80419" width="291.999" height="137.25" filterUnits="userSpaceOnUse" color-interpolation-filters="sRGB">
<feFlood flood-opacity="0" result="BackgroundImageFix"/>
<feColorMatrix in="SourceAlpha" type="matrix" values="0 0 0 0 0 0 0 0 0 0 0 0 0 0 0 0 0 0 127 0" result="hardAlpha"/>
<feOffset dy="0.754519"/>
<feGaussianBlur stdDeviation="0.377259"/>
<feComposite in2="hardAlpha" operator="out"/>
<feColorMatrix type="matrix" values="0 0 0 0 0.94902 0 0 0 0 0.94902 0 0 0 0 0.94902 0 0 0 0.5 0"/>
<feBlend mode="normal" in2="BackgroundImageFix" result="effect1_dropShadow_2291_49898"/>
<feColorMatrix in="SourceAlpha" type="matrix" values="0 0 0 0 0 0 0 0 0 0 0 0 0 0 0 0 0 0 127 0" result="hardAlpha"/>
<feMorphology radius="3.77259" operator="erode" in="SourceAlpha" result="effect2_dropShadow_2291_49898"/>
<feOffset dy="3.01807"/>
<feGaussianBlur stdDeviation="4.90437"/>
<feComposite in2="hardAlpha" operator="out"/>
<feColorMatrix type="matrix" values="0 0 0 0 0.741176 0 0 0 0 0.741176 0 0 0 0 0.741176 0 0 0 0.5 0"/>
<feBlend mode="normal" in2="effect1_dropShadow_2291_49898" result="effect2_dropShadow_2291_49898"/>
<feBlend mode="normal" in="SourceGraphic" in2="effect2_dropShadow_2291_49898" result="shape"/>
</filter>
<clipPath id="clip0_2291_49898">
<rect width="241.97" height="46.6463" fill="white" transform="translate(25.9775 68.6836)"/>
</clipPath>
<clipPath id="clip1_2291_49898">
<rect width="241.97" height="47.1443" fill="white" transform="translate(25.9775 17.9961)"/>
</clipPath>
</defs>
</svg>
