<svg width="318" height="189" viewBox="0 0 318 189" fill="none" xmlns="http://www.w3.org/2000/svg">
<g clip-path="url(#clip0_7503_65908)">
<path d="M199 126C195 126 191 122 191 118V72C191 68 195 64 199 64L245 64C249 64 253 68 253 72V118C253 122 249 126 245 126L199 126Z" fill="#F5F5F5"/>
<path fill-rule="evenodd" clip-rule="evenodd" d="M82 65.0002C75 65.0002 71 65.0002 69 67.0002L66 70.0002C64 72.0002 64 76.0002 64 82.0002V109C64 116 64 120 67 122L70 125C74 126 76 126 81 124C101 118 117 102 123 82.0002C125 77.0002 126 74.0002 124 71.0002L121 68.0002C119 65.0002 115 65.0002 109 65.0002H82ZM61 82.0002C61 75.0002 61 72.0002 59 69.0002L56 66.0002C52 65.0002 50 66.0002 44 67.0002C19 75.0002 0 99.0002 0 127C0 156 19 180 44 187C50 189 52 190 56 188L59 186C61 183 61 179 61 173L61 82.0002ZM128 173C128 179 128 183 130 186L134 188C137 190 140 189 145 187C170 180 189 156 189 127C189 99.0002 170 75.0002 145 67.0002C140 66.0002 137 65.0002 134 66.0002L130 69.0002C128 72.0002 128 75.0002 128 82.0002L128 173Z" fill="#F5F5F5"/>
<path d="M125 158C125.197 164.212 123.523 170.34 120.194 175.588C116.865 180.837 112.036 184.963 106.332 187.433C100.629 189.902 94.3145 190.6 88.2094 189.436C82.1043 188.272 76.49 185.299 72.0953 180.905C67.7006 176.51 64.7283 170.896 63.5642 164.791C62.4001 158.685 63.098 152.371 65.5673 146.668C68.0366 140.964 72.1633 136.135 77.4117 132.806C82.6602 129.477 88.788 127.803 95 128L118 128C122 128 125 131 125 135V158ZM221 0.999985C227.212 0.802632 233.34 2.47704 238.588 5.80591C243.837 9.13477 247.963 13.9644 250.433 19.6679C252.902 25.3714 253.6 31.6854 252.436 37.7906C251.272 43.8957 248.299 49.5099 243.905 53.9047C239.51 58.2994 233.896 61.2717 227.791 62.4358C221.685 63.5998 215.371 62.9019 209.668 60.4326C203.964 57.9633 199.135 53.8367 195.806 48.5882C192.477 43.3398 190.803 37.2119 191 31V7.99998C191 3.99998 194 0.999985 198 0.999985H221ZM287 65C293.212 64.8026 299.34 66.4771 304.588 69.8059C309.837 73.1348 313.963 77.9644 316.433 83.6679C318.902 89.3714 319.6 95.6855 318.436 101.791C317.272 107.896 314.299 113.51 309.905 117.905C305.51 122.299 299.896 125.272 293.791 126.436C287.685 127.6 281.371 126.902 275.668 124.433C269.964 121.963 265.135 117.837 261.806 112.588C258.477 107.34 256.803 101.212 257 95V72C257 68 260 65 264 65L287 65ZM95 1.99998C101.131 1.99998 107.125 3.8181 112.223 7.22443C117.321 10.6307 121.294 15.4723 123.64 21.1368C125.987 26.8013 126.6 33.0344 125.404 39.0478C124.208 45.0612 121.256 50.5849 116.92 54.9203C112.585 59.2557 107.061 62.2082 101.048 63.4043C95.0344 64.6005 88.8013 63.9866 83.1368 61.6403C77.4723 59.2939 72.6307 55.3206 69.2244 50.2227C65.8181 45.1247 64 39.1312 64 33V8.99998C64 4.99998 67 1.99998 71 1.99998L95 1.99998ZM31 64C24.8301 64.1991 18.7412 62.5516 13.5135 59.2686C8.28571 55.9856 4.15719 51.2166 1.6568 45.5725C-0.84359 39.9284 -1.60196 33.6663 -0.521149 27.5886C0.559659 21.5108 3.4304 15.8941 7.72333 11.4581C12.0163 7.02203 17.5358 3.9687 23.5749 2.68925C29.614 1.40981 35.8976 1.96252 41.6206 4.27657C47.3436 6.59061 52.2454 10.5606 55.698 15.6779C59.1506 20.7953 60.9968 26.8269 61 33L61 57C61 60 58 64 54 64L31 64Z" fill="#F5F5F5"/>
</g>
<defs>
<clipPath id="clip0_7503_65908">
<rect width="318" height="189" fill="white" transform="translate(318 189) rotate(-180)"/>
</clipPath>
</defs>
</svg>
