<svg width="318" height="189" fill="none" xmlns="http://www.w3.org/2000/svg">
    <path d="M119 63c4 0 8 4 8 8v46c0 4-4 8-8 8H73c-4 0-8-4-8-8V71c0-4 4-8 8-8h46Z" fill="#F5F5F5"/>
    <path fill-rule="evenodd" clip-rule="evenodd"
          d="M236 124c7 0 11 0 13-2l3-3c2-2 2-6 2-12V80c0-7 0-11-3-13l-3-3c-4-1-6-1-11 1-20 6-36 22-42 42-2 5-3 8-1 11l3 3c2 3 6 3 12 3h27ZM257 107c0 7 0 10 2 13l3 3c4 1 6 0 12-1 25-8 44-32 44-60 0-29-19-53-44-60-6-2-8-3-12-1l-3 2c-2 3-2 7-2 13v91ZM190 16c0-6 0-10-2-13l-4-2c-3-2-6-1-11 1-25 7-44 31-44 60 0 28 19 52 44 60 5 1 8 2 11 1l4-3c2-3 2-6 2-13V16Z"
          fill="#F5F5F5"/>
    <path d="M193 31a31 31 0 1 1 30 30h-23c-4 0-7-3-7-7V31ZM97 188a31 31 0 1 1 30-30v23c0 4-3 7-7 7H97ZM31 124a31 31 0 1 1 30-30v23c0 4-3 7-7 7H31ZM223 187a31 31 0 1 1 31-31v24c0 4-3 7-7 7h-24ZM287 125a31 31 0 1 1-30 31v-24c0-3 3-7 7-7h23Z"
          fill="#F5F5F5"/>
</svg>