<svg width="437" height="259" viewBox="0 0 437 259" fill="none" xmlns="http://www.w3.org/2000/svg">
<path d="M163.782 87.7544C169.354 87.7544 173.871 92.2713 173.871 97.8431L173.871 161.738C173.871 167.31 169.354 171.827 163.782 171.827L99.887 171.827C94.3152 171.827 89.7983 167.31 89.7983 161.738L89.7983 97.8431C89.7983 92.2713 94.3152 87.7544 99.887 87.7544L163.782 87.7544Z" fill="#DFC3DD"/>
<path fill-rule="evenodd" clip-rule="evenodd" d="M324.315 170.713C333.764 170.713 338.489 170.713 341.883 168.446C343.352 167.464 344.613 166.203 345.595 164.733C347.863 161.34 347.863 156.615 347.863 147.166L347.863 110.106C347.863 100.86 347.863 96.2361 344.718 92.4854C343.584 91.1335 341.363 89.4785 339.743 88.7788C335.25 86.8376 331.732 87.8874 324.696 89.9869C297.397 98.1331 275.282 120.248 267.136 147.547C265.037 154.583 263.987 158.101 265.928 162.594C266.628 164.214 268.283 166.435 269.635 167.568C273.385 170.713 278.009 170.713 287.255 170.713L324.315 170.713Z" fill="#DFC3DD"/>
<path fill-rule="evenodd" clip-rule="evenodd" d="M352.039 147.73C352.039 157.027 352.039 161.676 355.166 165.419C356.298 166.775 358.495 168.421 360.114 169.126C364.586 171.075 368.147 170.034 375.269 167.95C410.403 157.671 436.111 124.662 436.111 85.5306C436.111 46.3988 410.403 13.3903 375.269 3.11129C368.147 1.02759 364.586 -0.0142665 360.114 1.93481C358.495 2.64059 356.298 4.28663 355.166 5.64216C352.039 9.38556 352.039 14.0341 352.039 23.3313L352.039 147.73Z" fill="#DFC3DD"/>
<path fill-rule="evenodd" clip-rule="evenodd" d="M261.008 23.3287C261.008 14.0316 261.008 9.38303 257.881 5.63963C256.749 4.28409 254.552 2.63807 252.932 1.93228C248.461 -0.0167921 244.9 1.02506 237.778 3.10876C202.644 13.3878 176.936 46.3963 176.936 85.528C176.936 124.66 202.644 157.668 237.778 167.947C244.9 170.031 248.461 171.073 252.932 169.124C254.552 168.418 256.749 166.772 257.881 165.416C261.008 161.673 261.008 157.024 261.008 147.727L261.008 23.3287Z" fill="#DFC3DD"/>
<path d="M131.835 258.686C108.619 258.686 89.7988 239.865 89.7988 216.649C89.7988 193.433 108.619 174.613 131.835 174.613C155.051 174.613 173.872 193.433 173.872 216.649L173.872 249.145C173.872 254.414 169.6 258.686 164.331 258.686L131.835 258.686Z" fill="#DFC3DD"/>
<path d="M264.347 42.9348C264.347 19.7188 283.168 0.898442 306.384 0.898447C329.6 0.898453 348.42 19.7188 348.42 42.9349C348.42 66.1509 329.6 84.9713 306.384 84.9712L273.887 84.9712C268.618 84.9712 264.347 80.7 264.347 75.4311L264.347 42.9348Z" fill="#DFC3DD"/>
<path d="M306.384 257.569C283.167 257.569 264.347 238.749 264.347 215.533C264.347 192.317 283.167 173.497 306.384 173.497C329.6 173.497 348.42 192.317 348.42 215.533L348.42 248.029C348.42 253.298 344.149 257.569 338.88 257.569L306.384 257.569Z" fill="#DFC3DD"/>
<path d="M394.075 172.94C417.291 172.94 436.111 191.761 436.111 214.977C436.111 238.193 417.291 257.013 394.075 257.013C370.859 257.013 352.039 238.193 352.039 214.977L352.039 182.481C352.039 177.212 356.31 172.94 361.579 172.94L394.075 172.94Z" fill="#DFC3DD"/>
<path d="M42.0364 171.503C18.8203 171.503 3.51508e-06 152.683 7.85116e-06 129.467C1.21872e-05 106.251 18.8204 87.4306 42.0364 87.4306C65.2525 87.4306 84.0728 106.251 84.0728 129.467L84.0728 161.963C84.0728 167.232 79.8015 171.503 74.5326 171.503L42.0364 171.503Z" fill="#DFC3DD"/>
</svg>
