<svg width="42" height="42" viewBox="0 0 42 42" fill="none" xmlns="http://www.w3.org/2000/svg">
<path fill-rule="evenodd" clip-rule="evenodd" d="M11.9213 0.000975248C7.13757 0.000975039 4.74572 0.000974934 3.02753 1.12407C2.28371 1.61028 1.64507 2.23504 1.14806 2.96269C3.61176e-06 4.64353 -3.05211e-07 6.98339 -5.09768e-07 11.6631L-1.31207e-06 30.0176C-1.51225e-06 34.5973 -1.61234e-06 36.8871 1.59227 38.7447C2.16617 39.4142 3.29056 40.2339 4.1105 40.5804C6.3854 41.5419 8.16645 41.022 11.7285 39.9821C25.5495 35.9475 36.7456 24.9946 40.8697 11.4744C41.9326 7.98985 42.464 6.24755 41.4812 4.02211C41.127 3.21999 40.2891 2.12005 39.6047 1.55863C37.7058 0.000976375 35.3651 0.000976272 30.6837 0.000976068L11.9213 0.000975248Z" fill="white"/>
</svg>
