<svg width="114" height="114" viewBox="0 0 114 114" fill="none" xmlns="http://www.w3.org/2000/svg">
<path fill-rule="evenodd" clip-rule="evenodd" d="M113.77 32.2187C113.77 19.3162 113.77 12.865 110.673 8.23071C109.333 6.22449 107.61 4.50195 105.604 3.16144C100.97 0.0649327 94.5183 0.0649321 81.6158 0.064931L31.0764 0.0649265C18.4477 0.0649254 12.1334 0.0649249 7.01264 4.35676C5.16628 5.90424 2.90723 8.93384 1.95092 11.145C-0.701339 17.2775 0.730027 22.0853 3.59275 31.701C14.7024 69.0173 44.8815 99.2493 82.1378 110.389C91.7382 113.259 96.5384 114.695 102.677 112.045C104.889 111.09 107.924 108.83 109.472 106.984C113.77 101.862 113.77 95.5493 113.77 82.9246L113.77 32.2187Z" fill="white"/>
</svg>
