<svg width="114" height="114" viewBox="0 0 114 114" fill="none" xmlns="http://www.w3.org/2000/svg">
<path fill-rule="evenodd" clip-rule="evenodd" d="M81.4894 113.935C94.3919 113.935 100.843 113.935 105.477 110.839C107.484 109.498 109.206 107.775 110.547 105.769C113.643 101.135 113.643 94.6838 113.643 81.7813L113.643 31.0757C113.643 18.4508 113.643 12.1384 109.346 7.01599C107.798 5.17033 104.762 2.9098 102.551 1.95513C96.412 -0.694424 91.6117 0.740864 82.0111 3.61145C44.754 14.7514 14.5754 44.9839 3.46616 82.2993C0.603523 91.9148 -0.827793 96.7225 1.82448 102.855C2.78078 105.066 5.03985 108.096 6.8862 109.643C12.007 113.935 18.3212 113.935 30.9497 113.935L81.4894 113.935Z" fill="white"/>
</svg>
