<svg width="100" height="100" viewBox="0 0 100 100" fill="none" xmlns="http://www.w3.org/2000/svg">
<path fill-rule="evenodd" clip-rule="evenodd" d="M99.293 28.8554C99.293 17.5593 99.293 11.9113 96.582 7.85402C95.4084 6.09759 93.9003 4.58952 92.1439 3.4159C88.0866 0.704925 82.4386 0.704924 71.1425 0.704923L26.8375 0.704919C15.7895 0.704918 10.2655 0.704918 5.77863 4.4743C4.16374 5.83096 2.1826 8.49638 1.34908 10.4338C-0.966789 15.8169 0.295288 20.009 2.81943 28.3931C12.5856 60.8322 38.9988 87.103 71.5944 96.7881C80.0187 99.2912 84.2309 100.543 89.5974 98.2197C91.533 97.3818 94.1831 95.4046 95.5376 93.7878C99.293 89.3053 99.293 83.7763 99.293 72.7185L99.293 28.8554Z" fill="#FFBE32"/>
</svg>
