<svg width="108" height="111" viewBox="0 0 108 111" fill="none" xmlns="http://www.w3.org/2000/svg">
<path fill-rule="evenodd" clip-rule="evenodd" d="M77.3453 110.128C89.6463 110.128 95.7967 110.128 100.215 107.121C102.128 105.819 103.77 104.147 105.048 102.198C108 97.6984 108 91.434 108 78.9052L108 29.7658C108 17.5048 108 11.3744 103.906 6.4011C102.43 4.60858 99.5386 2.41419 97.4301 1.48643C91.5804 -1.0876 87.0005 0.304348 77.8409 3.08825C42.3013 13.8898 13.5114 43.2134 2.90661 79.4104C0.173422 88.7395 -1.19317 93.404 1.33406 99.3621C2.24495 101.51 4.39945 104.454 6.15937 105.957C11.0422 110.128 17.0611 110.128 29.099 110.128L77.3453 110.128Z" fill="#FFB71B"/>
</svg>
