<svg width="137" height="33" viewBox="0 0 137 33" fill="none" xmlns="http://www.w3.org/2000/svg">
<path d="M38.4091 13.5V1.86364H39.8182V7.04545H46.0227V1.86364H47.4318V13.5H46.0227V8.29545H39.8182V13.5H38.4091ZM53.6165 13.6818C52.8286 13.6818 52.1373 13.4943 51.5426 13.1193C50.9517 12.7443 50.4896 12.2197 50.1562 11.5455C49.8267 10.8712 49.6619 10.0833 49.6619 9.18182C49.6619 8.27273 49.8267 7.47917 50.1562 6.80114C50.4896 6.12311 50.9517 5.59659 51.5426 5.22159C52.1373 4.84659 52.8286 4.65909 53.6165 4.65909C54.4044 4.65909 55.0938 4.84659 55.6847 5.22159C56.2794 5.59659 56.7415 6.12311 57.071 6.80114C57.4044 7.47917 57.571 8.27273 57.571 9.18182C57.571 10.0833 57.4044 10.8712 57.071 11.5455C56.7415 12.2197 56.2794 12.7443 55.6847 13.1193C55.0938 13.4943 54.4044 13.6818 53.6165 13.6818ZM53.6165 12.4773C54.215 12.4773 54.7074 12.3239 55.0938 12.017C55.4801 11.7102 55.7661 11.3068 55.9517 10.8068C56.1373 10.3068 56.2301 9.76515 56.2301 9.18182C56.2301 8.59848 56.1373 8.05492 55.9517 7.55114C55.7661 7.04735 55.4801 6.64015 55.0938 6.32955C54.7074 6.01894 54.215 5.86364 53.6165 5.86364C53.018 5.86364 52.5256 6.01894 52.1392 6.32955C51.7528 6.64015 51.4669 7.04735 51.2812 7.55114C51.0956 8.05492 51.0028 8.59848 51.0028 9.18182C51.0028 9.76515 51.0956 10.3068 51.2812 10.8068C51.4669 11.3068 51.7528 11.7102 52.1392 12.017C52.5256 12.3239 53.018 12.4773 53.6165 12.4773ZM60.9588 8.25V13.5H59.6179V4.77273H60.9134V6.13636H61.027C61.2315 5.69318 61.5421 5.33712 61.9588 5.06818C62.3755 4.79545 62.9134 4.65909 63.5724 4.65909C64.1634 4.65909 64.6804 4.7803 65.1236 5.02273C65.5668 5.26136 65.9115 5.625 66.1577 6.11364C66.4039 6.59848 66.527 7.21212 66.527 7.95455V13.5H65.1861V8.04545C65.1861 7.35985 65.008 6.82576 64.652 6.44318C64.2959 6.05682 63.8073 5.86364 63.1861 5.86364C62.758 5.86364 62.3755 5.95644 62.0384 6.14205C61.705 6.32765 61.4418 6.59848 61.2486 6.95455C61.0554 7.31061 60.9588 7.74242 60.9588 8.25ZM72.6364 13.6818C71.7955 13.6818 71.0701 13.4962 70.4602 13.125C69.8542 12.75 69.3864 12.2273 69.0568 11.5568C68.7311 10.8826 68.5682 10.0985 68.5682 9.20455C68.5682 8.31061 68.7311 7.52273 69.0568 6.84091C69.3864 6.1553 69.8447 5.62121 70.4318 5.23864C71.0227 4.85227 71.7121 4.65909 72.5 4.65909C72.9545 4.65909 73.4034 4.73485 73.8466 4.88636C74.2898 5.03788 74.6932 5.28409 75.0568 5.625C75.4205 5.96212 75.7102 6.40909 75.9261 6.96591C76.142 7.52273 76.25 8.20833 76.25 9.02273V9.59091H69.5227V8.43182H74.8864C74.8864 7.93939 74.7879 7.5 74.5909 7.11364C74.3977 6.72727 74.1212 6.42235 73.7614 6.19886C73.4053 5.97538 72.9848 5.86364 72.5 5.86364C71.9659 5.86364 71.5038 5.99621 71.1136 6.26136C70.7273 6.52273 70.4299 6.86364 70.2216 7.28409C70.0133 7.70455 69.9091 8.1553 69.9091 8.63636V9.40909C69.9091 10.0682 70.0227 10.6269 70.25 11.0852C70.4811 11.5398 70.8011 11.8864 71.2102 12.125C71.6193 12.3598 72.0947 12.4773 72.6364 12.4773C72.9886 12.4773 73.3068 12.428 73.5909 12.3295C73.8788 12.2273 74.1269 12.0758 74.3352 11.875C74.5436 11.6705 74.7045 11.4167 74.8182 11.1136L76.1136 11.4773C75.9773 11.9167 75.7481 12.303 75.4261 12.6364C75.1042 12.9659 74.7064 13.2235 74.233 13.4091C73.7595 13.5909 73.2273 13.6818 72.6364 13.6818ZM78.8878 16.7727C78.6605 16.7727 78.4579 16.7538 78.2798 16.7159C78.1018 16.6818 77.9787 16.6477 77.9105 16.6136L78.2514 15.4318C78.5772 15.5152 78.8651 15.5455 79.1151 15.5227C79.3651 15.5 79.5866 15.3883 79.7798 15.1875C79.9768 14.9905 80.1567 14.6705 80.3196 14.2273L80.5696 13.5455L77.3423 4.77273H78.7969L81.206 11.7273H81.2969L83.706 4.77273H85.1605L81.456 14.7727C81.2893 15.2235 81.0829 15.5966 80.8366 15.892C80.5904 16.1913 80.3045 16.4129 79.9787 16.5568C79.6567 16.7008 79.2931 16.7727 78.8878 16.7727ZM90.1634 13.6818C89.3452 13.6818 88.6406 13.4886 88.0497 13.1023C87.4588 12.7159 87.0043 12.1837 86.6861 11.5057C86.3679 10.8277 86.2088 10.053 86.2088 9.18182C86.2088 8.29545 86.3717 7.51326 86.6974 6.83523C87.027 6.15341 87.4853 5.62121 88.0724 5.23864C88.6634 4.85227 89.3527 4.65909 90.1406 4.65909C90.7543 4.65909 91.3073 4.77273 91.7997 5C92.2921 5.22727 92.6955 5.54545 93.0099 5.95455C93.3243 6.36364 93.5194 6.84091 93.5952 7.38636H92.2543C92.152 6.98864 91.9247 6.63636 91.5724 6.32955C91.224 6.01894 90.7543 5.86364 90.1634 5.86364C89.6406 5.86364 89.1823 6 88.7884 6.27273C88.3982 6.54167 88.0933 6.92235 87.8736 7.41477C87.6577 7.90341 87.5497 8.47727 87.5497 9.13636C87.5497 9.81061 87.6558 10.3977 87.8679 10.8977C88.0838 11.3977 88.3868 11.786 88.777 12.0625C89.1709 12.339 89.633 12.4773 90.1634 12.4773C90.5118 12.4773 90.8281 12.4167 91.1122 12.2955C91.3963 12.1742 91.6368 12 91.8338 11.7727C92.0308 11.5455 92.1709 11.2727 92.2543 10.9545H93.5952C93.5194 11.4697 93.3319 11.9337 93.0327 12.3466C92.7372 12.7557 92.3452 13.0814 91.8565 13.3239C91.3717 13.5625 90.8073 13.6818 90.1634 13.6818ZM99.1009 13.6818C98.313 13.6818 97.6217 13.4943 97.027 13.1193C96.4361 12.7443 95.974 12.2197 95.6406 11.5455C95.3111 10.8712 95.1463 10.0833 95.1463 9.18182C95.1463 8.27273 95.3111 7.47917 95.6406 6.80114C95.974 6.12311 96.4361 5.59659 97.027 5.22159C97.6217 4.84659 98.313 4.65909 99.1009 4.65909C99.8887 4.65909 100.578 4.84659 101.169 5.22159C101.764 5.59659 102.226 6.12311 102.555 6.80114C102.889 7.47917 103.055 8.27273 103.055 9.18182C103.055 10.0833 102.889 10.8712 102.555 11.5455C102.226 12.2197 101.764 12.7443 101.169 13.1193C100.578 13.4943 99.8887 13.6818 99.1009 13.6818ZM99.1009 12.4773C99.6993 12.4773 100.192 12.3239 100.578 12.017C100.964 11.7102 101.25 11.3068 101.436 10.8068C101.622 10.3068 101.714 9.76515 101.714 9.18182C101.714 8.59848 101.622 8.05492 101.436 7.55114C101.25 7.04735 100.964 6.64015 100.578 6.32955C100.192 6.01894 99.6993 5.86364 99.1009 5.86364C98.5024 5.86364 98.0099 6.01894 97.6236 6.32955C97.2372 6.64015 96.9512 7.04735 96.7656 7.55114C96.58 8.05492 96.4872 8.59848 96.4872 9.18182C96.4872 9.76515 96.58 10.3068 96.7656 10.8068C96.9512 11.3068 97.2372 11.7102 97.6236 12.017C98.0099 12.3239 98.5024 12.4773 99.1009 12.4773ZM105.102 13.5V4.77273H106.398V6.13636H106.511C106.693 5.67045 106.987 5.30871 107.392 5.05114C107.797 4.78977 108.284 4.65909 108.852 4.65909C109.428 4.65909 109.907 4.78977 110.29 5.05114C110.676 5.30871 110.977 5.67045 111.193 6.13636H111.284C111.508 5.68561 111.843 5.32765 112.29 5.0625C112.737 4.79356 113.273 4.65909 113.898 4.65909C114.678 4.65909 115.316 4.90341 115.812 5.39205C116.309 5.87689 116.557 6.63258 116.557 7.65909V13.5H115.216V7.65909C115.216 7.01515 115.04 6.55492 114.688 6.27841C114.335 6.00189 113.92 5.86364 113.443 5.86364C112.83 5.86364 112.354 6.04924 112.017 6.42045C111.68 6.78788 111.511 7.25379 111.511 7.81818V13.5H110.148V7.52273C110.148 7.02652 109.987 6.62689 109.665 6.32386C109.343 6.01705 108.928 5.86364 108.42 5.86364C108.072 5.86364 107.746 5.95644 107.443 6.14205C107.144 6.32765 106.902 6.58523 106.716 6.91477C106.534 7.24053 106.443 7.61742 106.443 8.04545V13.5H105.102ZM119.19 13.5V1.86364H120.531V6.15909H120.645C120.743 6.00758 120.88 5.81439 121.054 5.57955C121.232 5.34091 121.486 5.12879 121.815 4.94318C122.149 4.75379 122.599 4.65909 123.168 4.65909C123.902 4.65909 124.55 4.8428 125.111 5.21023C125.671 5.57765 126.109 6.09848 126.423 6.77273C126.738 7.44697 126.895 8.24242 126.895 9.15909C126.895 10.0833 126.738 10.8845 126.423 11.5625C126.109 12.2367 125.673 12.7595 125.116 13.1307C124.56 13.4981 123.918 13.6818 123.19 13.6818C122.63 13.6818 122.181 13.589 121.844 13.4034C121.507 13.214 121.247 13 121.065 12.7614C120.884 12.5189 120.743 12.3182 120.645 12.1591H120.486V13.5H119.19ZM120.509 9.13636C120.509 9.79545 120.605 10.3769 120.798 10.8807C120.991 11.3807 121.274 11.7727 121.645 12.0568C122.016 12.3371 122.471 12.4773 123.009 12.4773C123.569 12.4773 124.037 12.3295 124.412 12.0341C124.791 11.7348 125.075 11.3333 125.264 10.8295C125.457 10.322 125.554 9.75758 125.554 9.13636C125.554 8.52273 125.459 7.9697 125.27 7.47727C125.084 6.98106 124.802 6.58902 124.423 6.30114C124.048 6.00947 123.577 5.86364 123.009 5.86364C122.463 5.86364 122.005 6.00189 121.634 6.27841C121.262 6.55114 120.982 6.93371 120.793 7.42614C120.603 7.91477 120.509 8.48485 120.509 9.13636Z" fill="white"/>
<path d="M41.0625 29.5H38.1449V20.0455H41.1918C42.1089 20.0455 42.8937 20.2347 43.5462 20.6133C44.1986 20.9888 44.6987 21.5289 45.0465 22.2337C45.3943 22.9354 45.5682 23.7756 45.5682 24.7543C45.5682 25.7391 45.3928 26.587 45.0419 27.2979C44.6911 28.0058 44.1802 28.5505 43.5092 28.9322C42.8383 29.3107 42.0227 29.5 41.0625 29.5ZM39.2898 28.4844H40.9886C41.7704 28.4844 42.4182 28.3336 42.9322 28.032C43.4461 27.7304 43.8293 27.301 44.0817 26.744C44.334 26.1869 44.4602 25.5237 44.4602 24.7543C44.4602 23.991 44.3356 23.3339 44.0863 22.783C43.837 22.229 43.4646 21.8043 42.9691 21.5089C42.4736 21.2103 41.8565 21.0611 41.1179 21.0611H39.2898V28.4844ZM50.3139 29.6477C49.6307 29.6477 49.0413 29.4969 48.5458 29.1953C48.0534 28.8906 47.6733 28.4659 47.4055 27.9212C47.1409 27.3733 47.0085 26.7363 47.0085 26.0099C47.0085 25.2836 47.1409 24.6435 47.4055 24.0895C47.6733 23.5324 48.0457 23.0985 48.5227 22.7876C49.0028 22.4737 49.563 22.3168 50.2031 22.3168C50.5724 22.3168 50.9371 22.3783 51.2972 22.5014C51.6573 22.6245 51.9851 22.8246 52.2805 23.1016C52.576 23.3755 52.8114 23.7386 52.9869 24.1911C53.1623 24.6435 53.25 25.2005 53.25 25.8622V26.3239H47.7841V25.3821H52.142C52.142 24.982 52.062 24.625 51.902 24.3111C51.745 23.9972 51.5204 23.7494 51.228 23.5678C50.9387 23.3862 50.5971 23.2955 50.2031 23.2955C49.7692 23.2955 49.3937 23.4032 49.0767 23.6186C48.7628 23.831 48.5212 24.108 48.3519 24.4496C48.1826 24.7912 48.098 25.1574 48.098 25.5483V26.1761C48.098 26.7116 48.1903 27.1656 48.375 27.538C48.5627 27.9073 48.8228 28.1889 49.1552 28.3828C49.4876 28.5736 49.8738 28.669 50.3139 28.669C50.6001 28.669 50.8587 28.629 51.0895 28.549C51.3234 28.4659 51.525 28.3428 51.6942 28.1797C51.8635 28.0135 51.9943 27.8073 52.0866 27.5611L53.1392 27.8565C53.0284 28.2135 52.8422 28.5275 52.5806 28.7983C52.319 29.0661 51.9959 29.2753 51.6112 29.4261C51.2264 29.5739 50.794 29.6477 50.3139 29.6477ZM59.93 23.9972L58.9513 24.2741C58.8898 24.111 58.799 23.9525 58.679 23.7987C58.562 23.6417 58.402 23.5124 58.1989 23.4109C57.9957 23.3093 57.7357 23.2585 57.4187 23.2585C56.9847 23.2585 56.6231 23.3585 56.3338 23.5586C56.0476 23.7556 55.9045 24.0064 55.9045 24.3111C55.9045 24.5819 56.003 24.7958 56.1999 24.9528C56.3969 25.1097 56.7047 25.2405 57.1232 25.3452L58.1758 25.6037C58.8098 25.7576 59.2822 25.993 59.593 26.31C59.9039 26.6239 60.0593 27.0286 60.0593 27.5241C60.0593 27.9304 59.9424 28.2936 59.7085 28.6136C59.4776 28.9337 59.1545 29.1861 58.739 29.3707C58.3235 29.5554 57.8403 29.6477 57.2894 29.6477C56.5662 29.6477 55.9676 29.4908 55.4936 29.1768C55.0196 28.8629 54.7196 28.4044 54.5934 27.8011L55.6275 27.5426C55.726 27.9242 55.9122 28.2105 56.1861 28.4013C56.4631 28.5921 56.8247 28.6875 57.271 28.6875C57.7788 28.6875 58.1819 28.5798 58.4805 28.3643C58.7821 28.1458 58.9329 27.8842 58.9329 27.5795C58.9329 27.3333 58.8467 27.1271 58.6744 26.9609C58.502 26.7917 58.2373 26.6655 57.8803 26.5824L56.6985 26.3054C56.0491 26.1515 55.5721 25.913 55.2674 25.5898C54.9658 25.2636 54.815 24.8558 54.815 24.3665C54.815 23.9664 54.9273 23.6125 55.152 23.3047C55.3797 22.9969 55.689 22.7553 56.0799 22.5799C56.4738 22.4045 56.9201 22.3168 57.4187 22.3168C58.1204 22.3168 58.6713 22.4706 59.0714 22.7784C59.4746 23.0862 59.7608 23.4924 59.93 23.9972ZM61.6993 29.5V22.4091H62.7888V29.5H61.6993ZM62.2533 21.2273C62.0409 21.2273 61.8578 21.1549 61.7039 21.0103C61.5531 20.8656 61.4777 20.6918 61.4777 20.4886C61.4777 20.2855 61.5531 20.1116 61.7039 19.967C61.8578 19.8223 62.0409 19.75 62.2533 19.75C62.4656 19.75 62.6472 19.8223 62.798 19.967C62.9519 20.1116 63.0289 20.2855 63.0289 20.4886C63.0289 20.6918 62.9519 20.8656 62.798 21.0103C62.6472 21.1549 62.4656 21.2273 62.2533 21.2273ZM67.6465 32.3068C67.1202 32.3068 66.6678 32.2391 66.2892 32.1037C65.9107 31.9714 65.5952 31.7959 65.3429 31.5774C65.0936 31.362 64.8951 31.1312 64.7473 30.8849L65.6152 30.2756C65.7137 30.4048 65.8384 30.5526 65.9892 30.7188C66.14 30.888 66.3462 31.0342 66.6078 31.1573C66.8725 31.2835 67.2187 31.3466 67.6465 31.3466C68.2189 31.3466 68.6913 31.2081 69.0637 30.9311C69.4361 30.6541 69.6223 30.2202 69.6223 29.6293V28.1889H69.53C69.45 28.3182 69.3361 28.4782 69.1884 28.669C69.0437 28.8568 68.8345 29.0245 68.5605 29.1722C68.2897 29.3169 67.9235 29.3892 67.4618 29.3892C66.8894 29.3892 66.3754 29.2538 65.9199 28.983C65.4675 28.7121 65.109 28.3182 64.8443 27.8011C64.5827 27.2841 64.4519 26.6562 64.4519 25.9176C64.4519 25.1913 64.5796 24.5588 64.835 24.0202C65.0905 23.4786 65.446 23.06 65.9015 22.7646C66.3569 22.466 66.8832 22.3168 67.4803 22.3168C67.9419 22.3168 68.3082 22.3937 68.579 22.5476C68.8529 22.6984 69.0622 22.8707 69.2069 23.0646C69.3546 23.2554 69.4685 23.4124 69.5485 23.5355H69.6593V22.4091H70.7118V29.7031C70.7118 30.3125 70.5733 30.808 70.2963 31.1896C70.0224 31.5743 69.6531 31.8559 69.1884 32.0344C68.7267 32.216 68.2128 32.3068 67.6465 32.3068ZM67.6096 28.4105C68.0466 28.4105 68.4159 28.3105 68.7175 28.1104C69.0191 27.9104 69.2484 27.6226 69.4054 27.2472C69.5623 26.8717 69.6408 26.4223 69.6408 25.8991C69.6408 25.3883 69.5639 24.9374 69.41 24.5465C69.2561 24.1557 69.0284 23.8494 68.7267 23.6278C68.4251 23.4062 68.0527 23.2955 67.6096 23.2955C67.1479 23.2955 66.7632 23.4124 66.4554 23.6463C66.1507 23.8802 65.9215 24.1941 65.7676 24.5881C65.6168 24.982 65.5414 25.419 65.5414 25.8991C65.5414 26.3916 65.6183 26.8271 65.7722 27.2056C65.9292 27.5811 66.16 27.8765 66.4647 28.092C66.7724 28.3043 67.1541 28.4105 67.6096 28.4105ZM73.7956 25.2344V29.5H72.7061V22.4091H73.7587V23.517H73.851C74.0172 23.157 74.2696 22.8677 74.6081 22.6491C74.9467 22.4276 75.3837 22.3168 75.9192 22.3168C76.3993 22.3168 76.8194 22.4152 77.1795 22.6122C77.5396 22.8061 77.8197 23.1016 78.0197 23.4986C78.2198 23.8925 78.3198 24.3911 78.3198 24.9943V29.5H77.2303V25.0682C77.2303 24.5111 77.0856 24.0772 76.7963 23.7663C76.507 23.4524 76.11 23.2955 75.6053 23.2955C75.2575 23.2955 74.9467 23.3709 74.6728 23.5217C74.4019 23.6725 74.188 23.8925 74.0311 24.1818C73.8741 24.4711 73.7956 24.822 73.7956 25.2344ZM88.9896 23.9972L88.0109 24.2741C87.9494 24.111 87.8586 23.9525 87.7385 23.7987C87.6216 23.6417 87.4616 23.5124 87.2584 23.4109C87.0553 23.3093 86.7952 23.2585 86.4782 23.2585C86.0443 23.2585 85.6827 23.3585 85.3934 23.5586C85.1072 23.7556 84.964 24.0064 84.964 24.3111C84.964 24.5819 85.0625 24.7958 85.2595 24.9528C85.4565 25.1097 85.7642 25.2405 86.1828 25.3452L87.2354 25.6037C87.8693 25.7576 88.3418 25.993 88.6526 26.31C88.9635 26.6239 89.1189 27.0286 89.1189 27.5241C89.1189 27.9304 89.0019 28.2936 88.768 28.6136C88.5372 28.9337 88.214 29.1861 87.7986 29.3707C87.3831 29.5554 86.8999 29.6477 86.349 29.6477C85.6257 29.6477 85.0271 29.4908 84.5532 29.1768C84.0792 28.8629 83.7791 28.4044 83.653 27.8011L84.6871 27.5426C84.7855 27.9242 84.9717 28.2105 85.2456 28.4013C85.5226 28.5921 85.8843 28.6875 86.3305 28.6875C86.8383 28.6875 87.2415 28.5798 87.54 28.3643C87.8416 28.1458 87.9925 27.8842 87.9925 27.5795C87.9925 27.3333 87.9063 27.1271 87.7339 26.9609C87.5616 26.7917 87.2969 26.6655 86.9399 26.5824L85.7581 26.3054C85.1087 26.1515 84.6317 25.913 84.327 25.5898C84.0254 25.2636 83.8746 24.8558 83.8746 24.3665C83.8746 23.9664 83.9869 23.6125 84.2116 23.3047C84.4393 22.9969 84.7486 22.7553 85.1395 22.5799C85.5334 22.4045 85.9797 22.3168 86.4782 22.3168C87.18 22.3168 87.7309 22.4706 88.1309 22.7784C88.5341 23.0862 88.8203 23.4924 88.9896 23.9972ZM91.4606 32.1591C91.2759 32.1591 91.1113 32.1437 90.9666 32.1129C90.822 32.0852 90.7219 32.0575 90.6665 32.0298L90.9435 31.0696C91.2082 31.1373 91.4421 31.1619 91.6452 31.1435C91.8484 31.125 92.0284 31.0342 92.1854 30.8711C92.3454 30.7111 92.4916 30.451 92.6239 30.0909L92.8271 29.5369L90.2049 22.4091H91.3867L93.3441 28.0597H93.418L95.3754 22.4091H96.5572L93.5472 30.5341C93.4118 30.9003 93.2441 31.2035 93.044 31.4435C92.844 31.6867 92.6116 31.8667 92.3469 31.9837C92.0853 32.1006 91.7899 32.1591 91.4606 32.1591ZM103.018 23.9972L102.039 24.2741C101.978 24.111 101.887 23.9525 101.767 23.7987C101.65 23.6417 101.49 23.5124 101.287 23.4109C101.084 23.3093 100.824 23.2585 100.507 23.2585C100.073 23.2585 99.711 23.3585 99.4217 23.5586C99.1355 23.7556 98.9924 24.0064 98.9924 24.3111C98.9924 24.5819 99.0908 24.7958 99.2878 24.9528C99.4848 25.1097 99.7926 25.2405 100.211 25.3452L101.264 25.6037C101.898 25.7576 102.37 25.993 102.681 26.31C102.992 26.6239 103.147 27.0286 103.147 27.5241C103.147 27.9304 103.03 28.2936 102.796 28.6136C102.566 28.9337 102.242 29.1861 101.827 29.3707C101.411 29.5554 100.928 29.6477 100.377 29.6477C99.6541 29.6477 99.0555 29.4908 98.5815 29.1768C98.1075 28.8629 97.8075 28.4044 97.6813 27.8011L98.7154 27.5426C98.8139 27.9242 99.0001 28.2105 99.274 28.4013C99.551 28.5921 99.9126 28.6875 100.359 28.6875C100.867 28.6875 101.27 28.5798 101.568 28.3643C101.87 28.1458 102.021 27.8842 102.021 27.5795C102.021 27.3333 101.935 27.1271 101.762 26.9609C101.59 26.7917 101.325 26.6655 100.968 26.5824L99.7864 26.3054C99.137 26.1515 98.66 25.913 98.3553 25.5898C98.0537 25.2636 97.9029 24.8558 97.9029 24.3665C97.9029 23.9664 98.0152 23.6125 98.2399 23.3047C98.4676 22.9969 98.7769 22.7553 99.1678 22.5799C99.5617 22.4045 100.008 22.3168 100.507 22.3168C101.208 22.3168 101.759 22.4706 102.159 22.7784C102.562 23.0862 102.849 23.4924 103.018 23.9972ZM107.871 22.4091V23.3324H104.196V22.4091H107.871ZM105.267 20.7102H106.357V27.4688C106.357 27.7765 106.401 28.0073 106.491 28.1612C106.583 28.312 106.7 28.4136 106.842 28.4659C106.986 28.5152 107.139 28.5398 107.299 28.5398C107.419 28.5398 107.517 28.5336 107.594 28.5213C107.671 28.5059 107.733 28.4936 107.779 28.4844L108 29.4631C107.926 29.4908 107.823 29.5185 107.691 29.5462C107.559 29.5769 107.391 29.5923 107.188 29.5923C106.88 29.5923 106.578 29.5262 106.283 29.3938C105.991 29.2615 105.747 29.0599 105.554 28.7891C105.363 28.5182 105.267 28.1766 105.267 27.7642V20.7102ZM112.407 29.6477C111.723 29.6477 111.134 29.4969 110.639 29.1953C110.146 28.8906 109.766 28.4659 109.498 27.9212C109.234 27.3733 109.101 26.7363 109.101 26.0099C109.101 25.2836 109.234 24.6435 109.498 24.0895C109.766 23.5324 110.138 23.0985 110.616 22.7876C111.096 22.4737 111.656 22.3168 112.296 22.3168C112.665 22.3168 113.03 22.3783 113.39 22.5014C113.75 22.6245 114.078 22.8246 114.373 23.1016C114.669 23.3755 114.904 23.7386 115.08 24.1911C115.255 24.6435 115.343 25.2005 115.343 25.8622V26.3239H109.877V25.3821H114.235C114.235 24.982 114.155 24.625 113.995 24.3111C113.838 23.9972 113.613 23.7494 113.321 23.5678C113.031 23.3862 112.69 23.2955 112.296 23.2955C111.862 23.2955 111.486 23.4032 111.169 23.6186C110.856 23.831 110.614 24.108 110.445 24.4496C110.275 24.7912 110.191 25.1574 110.191 25.5483V26.1761C110.191 26.7116 110.283 27.1656 110.468 27.538C110.656 27.9073 110.916 28.1889 111.248 28.3828C111.58 28.5736 111.967 28.669 112.407 28.669C112.693 28.669 112.951 28.629 113.182 28.549C113.416 28.4659 113.618 28.3428 113.787 28.1797C113.956 28.0135 114.087 27.8073 114.179 27.5611L115.232 27.8565C115.121 28.2135 114.935 28.5275 114.673 28.7983C114.412 29.0661 114.089 29.2753 113.704 29.4261C113.319 29.5739 112.887 29.6477 112.407 29.6477ZM117 29.5V22.4091H118.053V23.517H118.145C118.293 23.1385 118.531 22.8446 118.861 22.6353C119.19 22.4229 119.585 22.3168 120.047 22.3168C120.515 22.3168 120.904 22.4229 121.215 22.6353C121.529 22.8446 121.774 23.1385 121.949 23.517H122.023C122.204 23.1508 122.477 22.86 122.84 22.6445C123.203 22.426 123.639 22.3168 124.146 22.3168C124.78 22.3168 125.299 22.5153 125.702 22.9123C126.105 23.3062 126.307 23.9202 126.307 24.7543V29.5H125.217V24.7543C125.217 24.2311 125.074 23.8571 124.788 23.6325C124.502 23.4078 124.165 23.2955 123.777 23.2955C123.278 23.2955 122.892 23.4463 122.618 23.7479C122.344 24.0464 122.207 24.425 122.207 24.8835V29.5H121.1V24.6435C121.1 24.2403 120.969 23.9156 120.707 23.6694C120.446 23.4201 120.109 23.2955 119.696 23.2955C119.413 23.2955 119.148 23.3709 118.902 23.5217C118.659 23.6725 118.462 23.8817 118.311 24.1495C118.163 24.4142 118.09 24.7204 118.09 25.0682V29.5H117Z" fill="#8F8F8F"/>
<path d="M14 18.6C14 17.1641 15.1641 16 16.6 16H24.4C25.8359 16 27 17.1641 27 18.6V26.4C27 27.8359 25.8359 29 24.4 29H16.6C15.1641 29 14 27.8359 14 26.4V18.6Z" fill="#FF8300"/>
<path d="M14 4.6C14 3.16406 15.1641 2 16.6 2H24.4C25.8359 2 27 3.16406 27 4.6V12.4C27 13.8359 25.8359 15 24.4 15H16.6C15.1641 15 14 13.8359 14 12.4V4.6Z" fill="#FFBE32"/>
<path d="M0 9C0 6.5 0.5 2 6 2C11 2 13 4.5 13 9.5V12.4C13 15 13 15 10.4 15H6C2.5 15 0 12 0 9Z" fill="#1B63FF"/>
<path d="M0 18.6C0 17.1641 1.16406 16 2.6 16H10.4C11.8359 16 13 17.1641 13 18.6V26.4C13 27.8359 11.8359 29 10.4 29H2.6C1.16406 29 0 27.8359 0 26.4V18.6Z" fill="#F5F5F5"/>
</svg>
