<svg width="119" height="110" viewBox="0 0 119 110" fill="none" xmlns="http://www.w3.org/2000/svg">
<rect y="13" width="97" height="97" rx="20" fill="#B3CAFE"/>
<path d="M94.484 69.38C103.562 62.1786 81.641 58.5414 69.7922 57.807C69.6961 57.8011 69.6121 57.8641 69.585 57.9554C66.0584 69.8291 56.8787 74.6345 52.6869 75.781C62.6483 76.7631 85.3647 76.6142 94.484 69.38Z" fill="#0F0F0F"/>
<path d="M43.649 73.9516C30.5474 73.9516 19.9264 63.4436 19.9264 50.4812C19.9264 37.5188 30.5474 27.0107 43.649 27.0107C56.7506 27.0107 67.3716 37.5188 67.3716 50.4812C67.3716 63.4436 56.7506 73.9516 43.649 73.9516Z" stroke="#0F0F0F" stroke-width="1.43773"/>
<path d="M43.6492 77.0001C28.846 77.0001 16.8457 65.1273 16.8457 50.4815C16.8457 35.8357 28.846 23.9629 43.6492 23.9629C58.4523 23.9629 70.4526 35.8357 70.4526 50.4815C70.4526 65.1273 58.4523 77.0001 43.6492 77.0001Z" stroke="#0F0F0F" stroke-width="1.43773"/>
<path d="M43.6495 31.7861C42.9689 31.7861 42.4171 31.2401 42.4171 30.5664C42.4171 29.8928 42.9689 29.3467 43.6495 29.3467C44.3301 29.3467 44.8818 29.8928 44.8818 30.5664C44.8818 31.2401 44.3301 31.7861 43.6495 31.7861Z" fill="#0F0F0F"/>
<path d="M43.6495 71.6162C42.9689 71.6162 42.4171 71.0701 42.4171 70.3965C42.4171 69.7229 42.9689 69.1768 43.6495 69.1768C44.3301 69.1768 44.8818 69.7229 44.8818 70.3965C44.8818 71.0701 44.3301 71.6162 43.6495 71.6162Z" fill="#0F0F0F"/>
<path d="M23.5206 51.7012C22.84 51.7012 22.2882 51.1551 22.2882 50.4815C22.2882 49.8078 22.84 49.2617 23.5206 49.2617C24.2012 49.2617 24.7529 49.8078 24.7529 50.4815C24.7529 51.1551 24.2012 51.7012 23.5206 51.7012Z" fill="#0F0F0F"/>
<path d="M63.7774 51.7012C63.0968 51.7012 62.545 51.1551 62.545 50.4815C62.545 49.8078 63.0968 49.2617 63.7774 49.2617C64.458 49.2617 65.0098 49.8078 65.0098 50.4815C65.0098 51.1551 64.458 51.7012 63.7774 51.7012Z" fill="#0F0F0F"/>
<path d="M43.6492 53.0213C42.3447 53.0213 41.2872 51.9751 41.2872 50.6845C41.2872 49.3939 42.3447 48.3477 43.6492 48.3477C44.9537 48.3477 46.0112 49.3939 46.0112 50.6845C46.0112 51.9751 44.9537 53.0213 43.6492 53.0213Z" stroke="#0F0F0F" stroke-width="1.43773"/>
<path d="M53.9185 50.6865H46.1136" stroke="#0F0F0F" stroke-width="1.43773" stroke-linecap="round"/>
<path d="M87.3969 31.4824C88.3211 31.3468 90.3956 30.9538 91.2993 30.4658" stroke="#0F0F0F" stroke-width="1.43773" stroke-linecap="round"/>
<path d="M65.7283 34.7337C68.501 34.9709 74.7449 35.0589 80.0029 33.1074" stroke="#0F0F0F" stroke-width="1.43773" stroke-linecap="round"/>
<path d="M70.9664 48.957C78.0524 49.1263 93.1075 48.774 99.5156 46.416" stroke="#0F0F0F" stroke-width="1.43773" stroke-linecap="round"/>
<path d="M88.6298 56.1711C95.7841 55.9339 111.674 54.9519 118 52.9199" stroke="#0F0F0F" stroke-width="1.43773" stroke-linecap="round"/>
<path d="M43.6489 48.3471V35.0371" stroke="#0F0F0F" stroke-width="1.43773" stroke-linecap="round"/>
<path d="M18.1804 42.151C14.9968 42.3542 8.42431 44.0815 9.04049 40.1189C9.35802 38.0768 11.5547 37.7044 12.7217 37.773C12.7952 37.7775 12.8651 37.7462 12.9084 37.6873C14.2305 35.8873 17.5985 33.1344 21.0698 35.8499" stroke="#0F0F0F" stroke-width="1.43773" stroke-linecap="round"/>
<path d="M56.4863 14.9698C55.6648 11.6506 51.6596 6.00802 42.2117 9.99102L39.2335 11.4661" stroke="#0F0F0F" stroke-width="1.43773" stroke-linecap="round"/>
<path d="M42.2114 9.99062C40.1916 8.6359 35.2281 7.18636 32.7634 12.226" stroke="#0F0F0F" stroke-width="1.43773" stroke-linecap="round"/>
<path d="M60.6968 15.2744H53.0973" stroke="#0F0F0F" stroke-width="1.43773" stroke-linecap="round"/>
<path d="M85.5419 6.69806C85.8241 4.96034 87.5409 3.60656 89.6573 3.60656C90.0572 3.60656 90.4568 3.66717 90.8097 3.74799C91.8913 2.11132 93.9374 1 96.2889 1C99.7694 1 102.568 3.4247 102.568 6.39497" stroke="#0F0F0F" stroke-width="1.43773" stroke-miterlimit="10" stroke-linecap="round" stroke-linejoin="round"/>
<path d="M85.5417 6.73859C86.3098 6.61061 88.3401 6.71837 90.3156 8.17328M85.5417 6.69817C83.0254 6.96086 81.0736 8.79969 81.0736 11.0427C81.0736 13.4675 83.3547 15.4276 86.1765 15.4276L100.028 15.4073H101.439C104.261 15.4073 106.542 13.4473 106.542 11.0225C106.542 8.92094 104.825 7.18315 102.544 6.73859C101.509 6.52977 98.8097 6.14047 96.2888 6.25362L85.5417 6.69817Z" stroke="#0F0F0F" stroke-width="1.43773" stroke-miterlimit="10" stroke-linecap="round" stroke-linejoin="round"/>
</svg>
