<svg width="105" height="110" viewBox="0 0 105 110" fill="none" xmlns="http://www.w3.org/2000/svg">
<rect y="13" width="97" height="97" rx="20" fill="#F1C3C6"/>
<path d="M51.6724 28.3769C44.9389 27.2915 37.7931 29.3268 32.5712 34.4824C30.5099 36.5176 28.9983 38.8242 27.8989 41.2663C32.7086 40.3844 38.2741 40.2487 44.2518 40.995C46.1756 36.6532 48.6492 32.3795 51.6724 28.3769Z" stroke="#0F0F0F" stroke-width="1.52527" stroke-miterlimit="10" stroke-linecap="round" stroke-linejoin="round"/>
<path d="M70.1556 71.5905C68.1629 73.6256 65.7582 75.1181 63.2847 76.2035C64.455 71.1906 63.9717 63.1785 63.5595 59.9902C67.9569 58.1586 72.2168 55.7163 76.3394 52.7314C77.4388 59.4474 75.3776 66.4349 70.1556 71.5905Z" stroke="#0F0F0F" stroke-width="1.52527" stroke-miterlimit="10" stroke-linecap="round" stroke-linejoin="round"/>
<path d="M58.2681 49.8154C61.5661 52.8004 65.0704 55.2426 68.8495 57.3458" stroke="#0F0F0F" stroke-width="1.52527" stroke-miterlimit="10" stroke-linecap="round" stroke-linejoin="round"/>
<path d="M47 35.7041C49.0612 39.3674 51.6034 42.8949 54.6266 46.1512" stroke="#0F0F0F" stroke-width="1.52527" stroke-miterlimit="10" stroke-linecap="round" stroke-linejoin="round"/>
<path d="M45.8326 58.4988C44.8019 57.4812 44.8019 55.8532 45.8326 54.8355L59.5745 41.268C60.6051 40.2505 62.2541 40.2505 63.2848 41.268C64.3155 42.2856 64.3155 43.9137 63.2848 44.9313L49.5428 58.4988C48.5123 59.5163 46.8633 59.5163 45.8326 58.4988Z" stroke="#0F0F0F" stroke-width="1.52527" stroke-miterlimit="10" stroke-linecap="round" stroke-linejoin="round"/>
<path d="M54.5583 53.478C57.3754 55.988 60.3299 58.1588 63.4218 60.0583C70.9112 56.87 78.1945 52.0535 84.6531 45.6766M50.8479 49.8149C48.3057 47.1013 46.107 44.1163 44.1831 41.0636C47.4812 33.6692 52.2909 26.4784 58.7496 20.1016C65.0038 13.9584 72.0295 9.24899 79.2801 6.04336M90.515 39.1306C99.8623 27.2846 104.48 13.5158 103.961 1.03893C97.6882 0.784434 91.1056 1.77936 84.5956 3.97457" stroke="#0F0F0F" stroke-width="1.52527" stroke-miterlimit="10" stroke-linecap="round" stroke-linejoin="round"/>
<path d="M87.6074 3.07422C89.394 5.99128 91.4552 8.63697 93.9287 11.0113C96.4023 13.4535 99.082 15.4886 101.968 17.1846" stroke="#0F0F0F" stroke-width="1.52527" stroke-miterlimit="10" stroke-linecap="round" stroke-linejoin="round"/>
<path d="M30.5892 60.8897C30.4043 58.3538 28.3359 52.7088 23.4416 55.1685C19.9294 56.9335 20.7099 60.7071 22.6406 62.5331" stroke="#0F0F0F" stroke-width="1.08948" stroke-linecap="round"/>
<path d="M28.9872 64.2976C27.6316 62.5934 21.9876 63.6639 23.2568 68.4971C23.9421 71.1066 29.1104 72.4937 31.5135 71.1749" stroke="#0F0F0F" stroke-width="1.08948" stroke-linecap="round"/>
<path d="M31.9452 69.7757C32.7875 69.4308 34.4351 69.2644 34.2872 71.3582C34.1393 73.4519 32.2123 74.7057 31.2673 75.0708C30.5586 75.3447 29.4924 74.9736 29.5417 73.3667" stroke="#0F0F0F" stroke-width="1.08948" stroke-linecap="round"/>
<path d="M36.0737 81.6426C36.9363 82.4951 39.2408 83.8229 41.5577 82.3125" stroke="#0F0F0F" stroke-width="1.08948" stroke-linecap="round"/>
<path d="M40.2627 74.8279C39.626 73.631 37.7117 71.87 35.1485 74.4018C31.9444 77.5667 36.4425 80.4271 37.8597 80.1228" stroke="#0F0F0F" stroke-width="1.08948" stroke-linecap="round"/>
<path d="M44.8847 72.8174C46.8154 73.2638 50.9123 75.1646 49.9989 78.8427C49.198 82.0684 45.1311 81.5005 43.0361 80.486" stroke="#0F0F0F" stroke-width="1.08948" stroke-linecap="round"/>
<path d="M39.5851 61.1309C39.4374 61.3744 35.1282 64.032 32.9922 65.3305" stroke="#0F0F0F" stroke-width="1.08948" stroke-linecap="round"/>
<path d="M41.2491 63.75L36.0117 68.9234" stroke="#0F0F0F" stroke-width="1.08948" stroke-linecap="round"/>
<path d="M43.6525 65.5156L39.6465 71.4191" stroke="#0F0F0F" stroke-width="1.08948" stroke-linecap="round"/>
<path d="M77.5966 34.1391C81.6392 34.1391 84.9164 30.902 84.9164 26.9089C84.9164 22.9158 81.6392 19.6787 77.5966 19.6787C73.554 19.6787 70.2769 22.9158 70.2769 26.9089C70.2769 30.902 73.554 34.1391 77.5966 34.1391Z" stroke="#0F0F0F" stroke-width="1.08948"/>
</svg>
