<svg width="159" height="127" viewBox="0 0 159 127" fill="none" xmlns="http://www.w3.org/2000/svg">
<path fill-rule="evenodd" clip-rule="evenodd" d="M137.176 127C145.798 127 150.109 127 153.58 124.102C154.837 123.053 156.363 121.017 157.018 119.516C158.826 115.372 157.86 112.069 155.93 105.463C146.404 72.8593 115.791 49 79.4995 49C43.2075 49 12.5953 72.8593 3.06878 105.463C1.13852 112.069 0.173387 115.372 1.98137 119.516C2.63622 121.017 4.1622 123.053 5.41933 124.102C8.89014 127 13.2011 127 21.823 127L137.176 127Z" fill="#FFE9BB"/>
<path d="M84.7225 67.2228C88.3119 67.1354 96.594 65.9976 99.899 64.9134C101.893 64.2591 103.568 64.9919 103.356 67.3989C103.143 69.8059 95.5119 74.116 89.2635 75.117C85.4526 75.7273 76.4478 76.5821 70.9174 75.117C65.387 73.6518 59.0412 79.5647 56.5596 82.7042C54.9643 84.6664 51.1355 89.8729 48.583 95.0008" stroke="#0F0F0F" stroke-width="1.32144" stroke-linecap="round"/>
<path d="M85.2754 65.4368C89.2193 64.8698 98.1871 63.0051 100.564 61.9047C102.824 60.8581 104.286 61.9047 104.685 63.4745C104.774 63.9104 104.685 64.9397 103.622 65.5676" stroke="#0F0F0F" stroke-width="1.32144" stroke-linecap="round"/>
<path d="M81.5527 61.9045C84.7434 60.5085 91.6564 58.2927 93.7835 60.5959" stroke="#0F0F0F" stroke-width="1.32144" stroke-linecap="round"/>
<path d="M84.0791 63.4753C84.4779 63.2136 89.9286 62.1671 95.1134 60.205C96.2213 59.856 98.5699 59.7079 99.1017 61.9055" stroke="#0F0F0F" stroke-width="1.32144" stroke-linecap="round"/>
<path d="M69.721 67.3985C75.349 68.6632 86.2591 70.067 84.8765 65.5671C83.525 61.1681 77.0661 60.8277 73.7962 61.222C73.6543 61.2393 73.5104 61.1995 73.3958 61.1153C64.4772 54.5571 52.2734 62.5945 47.5196 67.9217C45.747 70.0147 44.8607 71.192 42.9995 74.0699" stroke="#0F0F0F" stroke-width="1.32144" stroke-linecap="round"/>
<path d="M68.6575 23.335C68.4862 23.3342 68.4111 23.5447 68.5494 23.6442C72.0881 26.1892 79.8129 30.4197 86.1275 29.3635C86.1788 29.3549 86.2317 29.3609 86.2796 29.3813L92.1392 31.8825" stroke="#0F0F0F" stroke-width="1.32144" stroke-linecap="round"/>
<path d="M63.2065 13.915C62.4974 14.1331 61.106 15.1185 61.2123 17.3162C61.3823 20.1041 63.5345 21.8669 64.5893 22.596C65.9188 23.3809 66.9983 23.3156 68.1253 23.3337C68.1661 23.3344 69.1808 23.2409 69.2197 23.2287C69.9487 22.998 70.7679 22.3674 70.5182 20.9777" stroke="#0F0F0F" stroke-width="1.32144" stroke-linecap="round"/>
<path d="M65.6001 9.85938C64.5809 10.2082 62.6754 11.5077 63.2071 13.9147C63.7389 16.3217 64.1469 17.0142 64.3241 17.363C64.9524 18.7026 65.976 19.4757 66.4304 19.7072C66.4445 19.7145 66.4571 19.7221 66.47 19.7314C67.09 20.1776 68.6864 20.7916 70.519 20.9774C71.0212 21.0283 72.6761 21.0723 73.0449 21.1095C74.5072 21.1095 75.4378 20.5549 74.9061 18.3014" stroke="#0F0F0F" stroke-width="1.32144" stroke-linecap="round"/>
<path d="M68.0447 5.2832C67.0624 5.2832 64.9353 6.32971 65.6 9.86168C66.1318 12.6873 66.717 13.964 67.5146 14.8797C68.3123 15.7954 69.3758 16.8419 70.9711 17.3181L74.8823 18.2976C74.898 18.3015 74.9142 18.304 74.9304 18.3051L75.7775 18.3607C75.8163 18.3632 75.8551 18.3577 75.891 18.3429C76.6937 18.0117 77.9689 16.9643 77.033 15.225" stroke="#0F0F0F" stroke-width="1.32144" stroke-linecap="round"/>
<path d="M100.515 16.5785L95.9091 14.3701C95.8278 14.3311 95.7727 14.2565 95.7608 14.1682C95.3486 11.1496 92.9083 5.0234 86.2067 3.58085C79.4 2.11576 74.5077 1.31344 72.9124 1.09541C71.1841 0.790184 67.7807 1.04309 67.9934 4.49654C68.01 4.76656 68.0273 5.02822 68.0451 5.28144C68.2549 8.26693 68.9775 9.25298 69.9081 10.6448C71.3984 12.8047 72.9374 13.7378 73.6305 14.0931C74.9065 14.7471 78.3628 16.2697 78.6289 12.9994V11.6804" stroke="#0F0F0F" stroke-width="1.32144" stroke-linecap="round"/>
<path d="M86.2061 3.58008C84.3449 3.71089 78.2558 4.65275 75.1715 5.28066C72.0873 5.90859 72.823 8.59463 73.5762 9.85915C75.0737 11.9463 80.7086 11.6521 82.0184 10.815C82.1415 10.7363 82.3138 10.7171 82.4305 10.8043C85.7674 13.2949 86.7509 12.9987 91.1782 12.9987" stroke="#0F0F0F" stroke-width="1.32144" stroke-linecap="round"/>
<path d="M77.0868 17.3643L77.0337 33.6686" stroke="#0F0F0F" stroke-width="1.32144" stroke-linecap="round"/>
<path d="M78.3625 34.4521H75.7036C74.8959 34.4521 74.2412 35.0968 74.2412 35.8921C74.2412 36.6873 74.8959 37.332 75.7036 37.332H78.3625C79.1701 37.332 79.8248 36.6873 79.8248 35.8921C79.8248 35.0968 79.1701 34.4521 78.3625 34.4521Z" stroke="#0F0F0F" stroke-width="1.32144"/>
<path d="M77.0337 37.7256V47.1441" stroke="#0F0F0F" stroke-width="1.32144" stroke-linecap="round"/>
<path d="M107.166 40.1364L92.0099 31.7643C90.0602 28.3195 88.6334 20.7499 97.4608 17.5057C105.567 14.5267 113.277 18.2794 117 20.3724" stroke="#0F0F0F" stroke-width="1.32144" stroke-linecap="round"/>
<path d="M73.1773 42.5996H76.5008C76.7946 42.5996 77.0326 42.8338 77.0326 43.1229V46.0007C77.0326 46.2898 76.7946 46.524 76.5008 46.524H74.3738C74.0802 46.524 73.842 46.2898 73.842 46.0007V45.6083C73.842 45.3192 74.0802 45.0851 74.3738 45.0851H74.4402C74.6973 45.0851 74.9055 44.8802 74.9055 44.6272C74.9055 44.3745 74.6973 44.1694 74.4402 44.1694H73.1773C72.8837 44.1694 72.6455 43.9352 72.6455 43.6461V43.1229C72.6455 42.8338 72.8837 42.5996 73.1773 42.5996Z" fill="#0F0F0F"/>
</svg>
