<svg width="145" height="112" viewBox="0 0 145 112" fill="none" xmlns="http://www.w3.org/2000/svg">
<path fill-rule="evenodd" clip-rule="evenodd" d="M125.098 112C132.972 112 136.909 112 140.068 109.375C141.217 108.421 142.603 106.584 143.206 105.218C144.864 101.46 143.998 98.422 142.266 92.3466C133.654 62.1349 105.68 40 72.5 40C39.3203 40 11.3464 62.1349 2.73393 92.3466C1.00198 98.422 0.136014 101.46 1.79393 105.218C2.39674 106.584 3.78314 108.421 4.93194 109.375C8.09144 112 12.0283 112 19.902 112L125.098 112Z" fill="#B3E7E2"/>
<path d="M107.555 31.7729C110.493 49.4373 101.533 65.3003 87.8634 67.4622C74.1941 69.6239 60.5519 57.3357 57.6141 39.6711C54.6762 22.0067 63.6365 6.1437 77.3058 3.98185C90.9751 1.82003 104.617 14.1084 107.555 31.7729Z" stroke="#0F0F0F" stroke-width="1.08825"/>
<path d="M101.871 32.3487C102.994 39.1029 101.925 45.5265 99.3143 50.4482C96.7036 55.3701 92.5737 58.7592 87.5695 59.5507C82.5655 60.3421 77.5486 58.3997 73.4766 54.5345C69.4046 50.6695 66.3082 44.9048 65.1849 38.1508C64.0616 31.3966 65.1309 24.973 67.7415 20.0512C70.3522 15.1292 74.4824 11.7402 79.4864 10.9488C84.4906 10.1574 89.5072 12.0998 93.5794 15.9649C97.6515 19.8298 100.748 25.5947 101.871 32.3487Z" stroke="#0F0F0F" stroke-width="1.08825"/>
<path d="M87.3742 48.0335C92.6307 47.2021 95.9601 40.9253 94.8107 34.0137C93.6612 27.1022 88.4681 22.1732 83.2116 23.0045C77.9551 23.8358 74.6257 30.1127 75.7752 37.0242C76.9246 43.9358 82.1177 48.8648 87.3742 48.0335Z" fill="#0F0F0F"/>
<path d="M63.1376 64.1597C80.5495 80.5025 100 68.3104 104.056 60.6577C101.5 71.2119 89.7369 76.7511 79.3524 77.0002C67.9257 77.0002 55.5071 71.6995 49.7519 59.384C35.3349 28.5329 57.2973 6.81846 68.2524 3.77637C47.6843 13.2212 44.4239 46.595 63.1376 64.1597Z" fill="#0F0F0F"/>
<path d="M85.1201 32.746L116.135 13.4086L122.338 9.61133" stroke="#0F0F0F" stroke-width="1.08825" stroke-linecap="round"/>
<path d="M115.374 11.8421L116.085 7.08603C116.116 6.8751 116.254 6.69357 116.452 6.60239L128.452 1.06417C129.035 0.795052 129.622 1.42577 129.292 1.96599L126.894 5.88307C126.649 6.28478 126.916 6.7992 127.394 6.84327L132.587 7.32231C133.199 7.37877 133.399 8.15347 132.888 8.48598L122.6 15.174C122.435 15.2815 122.228 15.3097 122.039 15.2508L116.135 13.4108" stroke="#0F0F0F" stroke-width="1.08825" stroke-linecap="round"/>
<path d="M86.3174 34.9759L125.142 21.4162L132.032 18.9922" stroke="#0F0F0F" stroke-width="1.08825" stroke-linecap="round"/>
<path d="M124.74 19.7247L126.473 15.2249C126.549 15.0254 126.723 14.8765 126.936 14.8284L139.87 11.9055C140.498 11.7635 140.935 12.5016 140.494 12.9609L137.297 16.2913C136.969 16.6328 137.118 17.1909 137.576 17.333L142.546 18.8781C143.132 19.0602 143.158 19.8587 142.586 20.0775L131.075 24.4791C130.89 24.5497 130.682 24.5345 130.51 24.4377L125.142 21.4156" stroke="#0F0F0F" stroke-width="1.08825" stroke-linecap="round"/>
<path d="M116.618 30.6171L118.923 26.8697C119.035 26.6878 119.233 26.5724 119.45 26.5616L131.148 25.9756C131.792 25.9433 132.089 26.7439 131.573 27.121L128.38 29.4542C127.998 29.7331 128.041 30.3036 128.461 30.5244L132.361 32.5753C132.898 32.8582 132.779 33.6422 132.179 33.76L121.416 35.874C121.218 35.9128 121.013 35.8602 120.86 35.7311L116.676 32.199" stroke="#0F0F0F" stroke-width="1.08825" stroke-linecap="round"/>
<path d="M86.9697 37.206L116.676 32.2001L123.188 31.1025" stroke="#0F0F0F" stroke-width="1.08825" stroke-linecap="round"/>
</svg>
