<svg width="96" height="79" viewBox="0 0 96 79" fill="none" xmlns="http://www.w3.org/2000/svg">
<path d="M40.6286 0.954293C16.3143 13.8514 0.668571 34.7829 0.668571 54.6571C0.668571 69.88 10.1829 78.3371 22.4457 78.3371C36.1886 78.3371 45.0686 67.3429 44.6457 54.8686C30.9029 51.9086 24.3486 45.5657 24.3486 35.4171C24.3486 25.0571 31.1143 15.5429 44.2229 7.93143L40.6286 0.954293ZM91.3714 0.954293C67.0571 13.8514 51.4114 34.7829 51.4114 54.6571C51.4114 69.88 60.9257 78.3371 73.1886 78.3371C86.9314 78.3371 95.8114 67.3429 95.3886 54.8686C81.6457 51.9086 75.0914 45.5657 75.0914 35.4171C75.0914 25.0571 81.8571 15.5429 94.9657 7.93143L91.3714 0.954293Z" fill="#80D7CF"/>
</svg>
