<svg width="96" height="79" viewBox="0 0 96 79" fill="none" xmlns="http://www.w3.org/2000/svg">
<path d="M55.3714 78.0457C79.6857 65.1486 95.3314 44.2171 95.3314 24.3429C95.3314 9.12 85.8172 0.662854 73.5543 0.662853C59.8114 0.662851 50.9314 11.6571 51.3543 24.1314C65.0971 27.0914 71.6514 33.4343 71.6514 43.5829C71.6514 53.9429 64.8857 63.4571 51.7771 71.0686L55.3714 78.0457ZM4.62857 78.0457C28.9429 65.1486 44.5886 44.2171 44.5886 24.3428C44.5886 9.11999 35.0743 0.662849 22.8114 0.662848C9.06858 0.662847 0.18858 11.6571 0.611437 24.1314C14.3543 27.0914 20.9086 33.4343 20.9086 43.5828C20.9086 53.9429 14.1429 63.4571 1.03429 71.0686L4.62857 78.0457Z" fill="#80D7CF"/>
</svg>
