<svg width="97" height="96" viewBox="0 0 97 96" fill="none" xmlns="http://www.w3.org/2000/svg">
<path fill-rule="evenodd" clip-rule="evenodd" d="M28.1507 0.356931C17.201 0.35693 11.7261 0.35693 7.7932 2.97131C6.09061 4.1031 4.62878 5.55743 3.49115 7.25128C0.863288 11.164 0.863281 16.6108 0.86328 27.5043L0.863278 70.2303C0.863278 80.8909 0.863277 86.2212 4.50794 90.5454C5.82158 92.104 8.39526 94.012 10.2721 94.8187C15.4793 97.0567 19.556 95.8465 27.7096 93.4259C59.3453 84.0342 84.9728 58.5378 94.4127 27.0651C96.8456 18.9536 98.0621 14.8979 95.8125 9.71741C95.0016 7.85023 93.0838 5.28976 91.5172 3.98287C87.1707 0.356933 81.8129 0.356933 71.0974 0.356932L28.1507 0.356931Z" fill="white"/>
</svg>
