<svg width="365" height="186" viewBox="0 0 365 186" fill="none" xmlns="http://www.w3.org/2000/svg">
<path d="M60.6817 150H84.6191V119.27H106.13V101.963H84.6191V27.4017H63.1078L0.191304 119.27H60.6817V150ZM21.3791 101.963L60.6817 43.5756V101.963H21.3791Z" fill="#292929"/>
<path d="M315.682 150H339.619V119.27H361.13V101.963H339.619V27.4017H318.108L255.191 119.27H315.682V150ZM276.379 101.963L315.682 43.5756V101.963H276.379Z" fill="#292929"/>
<path d="M124 90C124 56.8629 150.863 30 184 30V30C217.137 30 244 56.8629 244 90V90C244 123.137 217.137 150 184 150H137.617C130.097 150 124 143.903 124 136.383V90Z" fill="#FF8F1A"/>
</svg>
