<svg width="880" height="636" viewBox="0 0 880 636" fill="none" xmlns="http://www.w3.org/2000/svg">
    <g opacity="0.5">
        <rect x="441.057" width="211.538" height="211.538" rx="25.3846" fill="#F5F5F5"/>
        <rect width="211.538" height="211.538" rx="25.3846" fill="#F5F5F5"/>
        <path fill-rule="evenodd" clip-rule="evenodd"
              d="M432.596 59.2315C432.596 35.4637 432.596 23.5797 426.892 15.0429C424.422 11.3473 421.249 8.17418 417.553 5.70481C409.017 0.00071158 397.133 0.000712619 373.365 0.000714697L280.145 0.000722847C256.885 0.00072488 245.255 0.000725897 235.82 7.91191C232.42 10.7633 228.257 16.3498 226.497 20.4237C221.614 31.7265 224.255 40.5756 229.536 58.2738C250.027 126.943 305.655 182.571 374.323 203.061C392.021 208.342 400.87 210.983 412.173 206.1C416.247 204.339 421.833 200.177 424.685 196.776C432.596 187.341 432.596 175.712 432.596 152.452L432.596 59.2315Z"
              fill="#F5F5F5"/>
        <path d="M432.596 311.55C432.596 369.965 385.241 417.319 326.826 417.319V417.319C268.412 417.319 221.057 369.965 221.057 311.55V311.55C221.057 253.135 268.412 205.781 326.827 205.781L408.591 205.781C421.849 205.781 432.596 216.528 432.596 229.785L432.596 311.55Z"
              fill="#F5F5F5"/>
        <path d="M326.827 423.077C385.241 423.077 432.596 470.432 432.596 528.846V528.846C432.596 587.261 385.241 634.616 326.827 634.616V634.616C268.412 634.616 221.057 587.261 221.057 528.846L221.057 447.082C221.057 433.824 231.804 423.077 245.062 423.077L326.827 423.077Z"
              fill="#F5F5F5"/>
        <path d="M547.884 634.615C489.47 634.615 442.115 587.261 442.115 528.846V528.846C442.115 470.431 489.47 423.077 547.884 423.077V423.077C606.299 423.077 653.654 470.431 653.654 528.846L653.654 610.611C653.654 623.868 642.907 634.615 629.649 634.615L547.884 634.615Z"
              fill="#F5F5F5"/>
        <path d="M772.116 424.135C830.53 424.135 877.885 471.489 877.885 529.904V529.904C877.885 588.319 830.53 635.673 772.116 635.673V635.673C713.701 635.673 666.346 588.319 666.346 529.904L666.346 448.139C666.346 434.882 677.093 424.135 690.351 424.135L772.116 424.135Z"
              fill="#F5F5F5"/>
        <path d="M1.05664 325.769C1.05664 267.354 48.4111 220 106.826 220V220C165.241 220 212.595 267.354 212.595 325.769V325.769C212.595 384.184 165.241 431.538 106.826 431.538H25.061C11.8038 431.538 1.05664 420.791 1.05664 407.534L1.05664 325.769Z"
              fill="#F5F5F5"/>
        <path d="M668.461 311.55C668.461 253.136 715.815 205.781 774.23 205.781V205.781C832.645 205.781 879.999 253.136 879.999 311.55V311.55C879.999 369.965 832.645 417.32 774.23 417.32H692.465C679.208 417.32 668.461 406.573 668.461 393.315V311.55Z"
              fill="#F5F5F5"/>
    </g>
</svg>
